<svg xmlns:xlink="http://www.w3.org/1999/xlink" xmlns="http://www.w3.org/2000/svg" width="16" height="15" viewBox="0 0 16 15" fill="none">
<path d="M15.5531 6.93757L15.5531 6.93756L11.0985 2.12506L11.0985 2.12505L11.0973 2.1238C10.959 1.97954 10.7722 1.89819 10.5765 1.90003C10.3809 1.90187 10.1955 1.98669 10.0596 2.13344C9.92404 2.27993 9.84831 2.47659 9.84667 2.68072C9.84503 2.88485 9.91758 3.08283 10.0507 3.23176L10.0507 3.23177L10.0519 3.23304L13.2648 6.70405H2.30239C2.10448 6.70405 1.91641 6.78905 1.77902 6.93749C1.64186 7.08566 1.56602 7.28508 1.56602 7.49155C1.56602 7.69802 1.64186 7.89744 1.77902 8.04562C1.91641 8.19405 2.10448 8.27905 2.30239 8.27905H13.2648L10.0531 11.7488C10.0529 11.749 10.0527 11.7492 10.0525 11.7494C9.98282 11.8223 9.92762 11.9089 9.88974 12.0042C9.85176 12.0997 9.83186 12.2022 9.83103 12.3057C9.8302 12.4092 9.84845 12.5121 9.88487 12.6082C9.9213 12.7044 9.97528 12.7923 10.044 12.8666C10.1127 12.9408 10.1949 13 10.286 13.0403C10.377 13.0805 10.4749 13.1009 10.5738 13.1C10.6728 13.099 10.7703 13.0768 10.8606 13.0349C10.9507 12.9931 11.0317 12.9326 11.0991 12.8574L15.5531 8.04554L15.5531 8.04553C15.6902 7.89737 15.766 7.69798 15.766 7.49155C15.766 7.28512 15.6902 7.08574 15.5531 6.93757Z" fill="#A9FF5D" stroke="#A9FF5D" stroke-width="0.2"/>
</svg>