<svg xmlns:xlink="http://www.w3.org/1999/xlink" xmlns="http://www.w3.org/2000/svg" width="172" height="42" viewBox="0 0 172 42" fill="none">
<g clip-path="url(#clip0_61_242)">
<mask id="mask0_61_242" style="mask-type:luminance" maskUnits="userSpaceOnUse" x="0" y="0" width="30" height="42">
<path d="M29.1608 0.0829468H0.0297852V41.9183H29.1608V0.0829468Z" fill="white"/>
</mask>
<g mask="url(#mask0_61_242)">
<path d="M27.8052 7.95843C27.8052 11.5594 24.8859 14.4787 21.2847 14.4787H14.5947V1.43823H21.2847C24.8859 1.43823 27.8052 4.35742 27.8052 7.95843Z" stroke="#CECFCC" stroke-width="2.92874"/>
<path d="M1.38428 7.95831C1.38428 11.5593 4.30365 14.4786 7.90489 14.4786H14.5949V1.43811H7.90489C4.30365 1.43811 1.38428 4.3573 1.38428 7.95831Z" stroke="#CECFCC" stroke-width="2.92874"/>
<path d="M1.38428 21.0005C1.38428 24.6015 4.30365 27.5206 7.90489 27.5206H14.5949V14.4802H7.90489C4.30365 14.4802 1.38428 17.3994 1.38428 21.0005Z" stroke="#CECFCC" stroke-width="2.92874"/>
<path d="M1.38428 34.042C1.38428 37.643 4.34572 40.5623 7.94696 40.5623C11.595 40.5623 14.5949 37.6051 14.5949 33.9573V27.5219H7.90489C4.30365 27.5219 1.38428 30.441 1.38428 34.042Z" stroke="#CECFCC" stroke-width="2.92874"/>
<path d="M14.5947 21.0005C14.5947 24.6015 17.514 27.5206 21.1153 27.5206H21.2847C24.8859 27.5206 27.8052 24.6015 27.8052 21.0005C27.8052 17.3994 24.8859 14.4802 21.2847 14.4802H21.1153C17.514 14.4802 14.5947 17.3994 14.5947 21.0005Z" stroke="#CECFCC" stroke-width="2.92874"/>
</g>
<mask id="mask1_61_242" style="mask-type:luminance" maskUnits="userSpaceOnUse" x="55" y="0" width="116" height="42">
<path d="M170.708 0.0825195H55.3057V41.9179H170.708V0.0825195Z" fill="white"/>
</mask>
<g mask="url(#mask1_61_242)">
<path d="M55.3057 0.0845388V32.3999L59.4636 32.4127V17.0237H69.4885V12.9561H59.4636V4.15018H72.5196V0.0825195L55.3057 0.0845388Z" fill="#CECFCC"/>
<path d="M80.0046 6.64412C81.5022 6.64412 82.7162 5.43013 82.7162 3.93262C82.7162 2.4351 81.5022 1.22113 80.0046 1.22113C78.5071 1.22113 77.293 2.4351 77.293 3.93262C77.293 5.43013 78.5071 6.64412 80.0046 6.64412Z" fill="#CECFCC"/>
<path d="M77.8882 10.712V32.4063H82.046V10.712H77.8882Z" fill="#CECFCC"/>
<path fill-rule="evenodd" clip-rule="evenodd" d="M97.4685 10.08C91.9471 10.08 88.094 14.7499 88.094 20.2944C88.094 25.8389 91.9471 30.5088 97.4685 30.5088C99.9963 30.5088 102.079 29.5301 103.596 27.9369V30.8251C103.596 34.4194 100.772 37.4237 97.0877 37.4237C95.7632 37.4237 94.4473 36.9103 93.399 36.1878L91.3156 39.7962C92.9795 40.8689 94.961 41.4914 97.0877 41.4914C102.978 41.4914 107.754 36.7159 107.754 30.8251V10.7128H103.596V12.6519C102.079 11.0587 99.9963 10.08 97.4685 10.08ZM92.2518 20.2944C92.2518 16.8528 94.8842 14.1477 97.9205 14.1477C100.957 14.1477 103.589 16.8528 103.589 20.2944C103.589 23.7359 100.957 26.441 97.9205 26.441C94.8842 26.441 92.2518 23.7359 92.2518 20.2944Z" fill="#CECFCC"/>
<path d="M122.735 14.1477C120.277 14.1477 118.284 16.2311 118.284 18.6899V32.407H114.126V10.7128H118.284V12.7001C119.502 11.1251 121.297 10.08 123.639 10.08C126.552 10.08 128.789 11.5272 130.084 13.7418C131.524 11.6027 133.873 10.08 136.701 10.08C141.433 10.08 144.378 13.8982 144.406 18.622C144.406 18.6363 144.406 18.6505 144.406 18.665V18.6665C144.406 18.6741 144.406 18.6823 144.406 18.6899V32.407H140.249V18.6899C140.249 16.2311 138.255 14.1477 135.796 14.1477C133.338 14.1477 131.345 16.2311 131.345 18.6899V32.407H127.187V18.6899C127.187 16.2311 125.194 14.1477 122.735 14.1477Z" fill="#CECFCC"/>
<path fill-rule="evenodd" clip-rule="evenodd" d="M166.551 13.1721C164.701 11.2619 162.168 10.08 159.229 10.08C153.044 10.08 148.654 15.3174 148.654 21.5598C148.654 27.8023 153.044 33.0397 159.229 33.0397C162.168 33.0397 164.701 31.8579 166.551 29.9478V32.407H170.708V10.7128H166.551V13.1721ZM152.811 21.5598C152.811 17.4185 155.983 14.1477 159.681 14.1477C163.379 14.1477 166.551 17.4185 166.551 21.5598C166.551 25.7013 163.379 28.9721 159.681 28.9721C155.983 28.9721 152.811 25.7013 152.811 21.5598Z" fill="#CECFCC"/>
</g>
</g>
<defs>
<clipPath id="clip0_61_242">
<rect width="171.256" height="41.8353" fill="white" transform="translate(0.0285645 0.0823364)"/>
</clipPath>
</defs>
</svg>