<svg xmlns:xlink="http://www.w3.org/1999/xlink" xmlns="http://www.w3.org/2000/svg" width="24" height="24" viewBox="0 0 24 24" fill="none">
<path d="M13.8563 7.67331C13.6172 7.90769 13.6172 8.29675 13.8516 8.53581L16.7016 11.3905H5.85469C5.52188 11.3905 5.25 11.6624 5.25 11.9999C5.25 12.3374 5.52188 12.6092 5.85469 12.6092H16.6969L13.8469 15.4639C13.6125 15.703 13.6172 16.0874 13.8516 16.3264C14.0906 16.5608 14.4703 16.5608 14.7094 16.3217L18.5719 12.4311C18.6234 12.3749 18.6656 12.3139 18.6984 12.2389C18.7312 12.1639 18.7453 12.0842 18.7453 12.0046C18.7453 11.8452 18.6844 11.6952 18.5719 11.578L14.7094 7.68737C14.4797 7.44362 14.0953 7.43894 13.8563 7.67331Z" fill="black"/>
</svg>