<svg xmlns:xlink="http://www.w3.org/1999/xlink" xmlns="http://www.w3.org/2000/svg" width="81" height="81" viewBox="0 0 81 81" fill="none">
<g clip-path="url(#clip0_1104_4010)">
<g filter="url(#filter0_bdi_1104_4010)">
<rect x="5.34912" y="5.34863" width="69.5349" height="69.5349" rx="34.7674" fill="#191B17"/>
<rect x="6.35203" y="6.35154" width="67.5291" height="67.5291" rx="33.7645" stroke="url(#paint0_linear_1104_4010)" stroke-opacity="0.8" stroke-width="2.00581"/>
<g clip-path="url(#clip1_1104_4010)">
<path d="M40.2373 39.5307C42.355 39.5307 44.1885 38.7712 45.687 37.2727C47.1851 35.7744 47.9448 33.9411 47.9448 31.8232C47.9448 29.706 47.1853 27.8726 45.6868 26.3738C44.1882 24.8757 42.3547 24.1162 40.2373 24.1162C38.1194 24.1162 36.2861 24.8757 34.7878 26.374C33.2896 27.8723 32.5298 29.7058 32.5298 31.8232C32.5298 33.9411 33.2896 35.7746 34.7878 37.2729C36.2866 38.771 38.1201 39.5307 40.2373 39.5307ZM36.114 27.6999C37.2637 26.5503 38.6123 25.9915 40.2373 25.9915C41.8621 25.9915 43.2109 26.5503 44.3608 27.6999C45.5105 28.8498 46.0696 30.1987 46.0696 31.8232C46.0696 33.4482 45.5105 34.7969 44.3608 35.9468C43.2109 37.0967 41.8621 37.6555 40.2373 37.6555C38.6128 37.6555 37.2642 37.0964 36.114 35.9468C34.9641 34.7971 34.405 33.4482 34.405 31.8232C34.405 30.1987 34.9641 28.8498 36.114 27.6999Z" fill="#A9FF5D"/>
<path d="M53.7234 48.7224C53.6802 48.0989 53.5928 47.4187 53.4641 46.7004C53.3342 45.9768 53.167 45.2927 52.9668 44.6675C52.7598 44.0212 52.4788 43.383 52.1309 42.7715C51.7703 42.1367 51.3464 41.584 50.8708 41.1291C50.3735 40.6533 49.7646 40.2708 49.0605 39.9917C48.3589 39.7141 47.5813 39.5735 46.7495 39.5735C46.4229 39.5735 46.1069 39.7075 45.4968 40.1047C45.1213 40.3496 44.6821 40.6328 44.1919 40.946C43.7727 41.2131 43.2048 41.4634 42.5034 41.6899C41.8191 41.9114 41.1243 42.0237 40.4382 42.0237C39.7527 42.0237 39.0579 41.9114 38.373 41.6899C37.6724 41.4636 37.1042 41.2134 36.6858 40.9463C36.2002 40.636 35.7607 40.3528 35.3796 40.1045C34.77 39.7073 34.4541 39.5732 34.1274 39.5732C33.2954 39.5732 32.5181 39.7141 31.8167 39.9919C31.113 40.2705 30.5039 40.6531 30.0061 41.1294C29.5305 41.5845 29.1067 42.137 28.7463 42.7715C28.3989 43.383 28.1177 44.021 27.9106 44.6677C27.7107 45.293 27.5435 45.9768 27.4136 46.7004C27.2847 47.4177 27.1975 48.0981 27.1543 48.7231C27.1118 49.3342 27.0903 49.9702 27.0903 50.6128C27.0903 52.2832 27.6213 53.6355 28.6685 54.6328C29.7026 55.6169 31.0708 56.1159 32.7351 56.1159H48.1433C49.8071 56.1159 51.1753 55.6169 52.2097 54.6328C53.2571 53.6362 53.7881 52.2834 53.7881 50.6125C53.7878 49.9678 53.7661 49.3318 53.7234 48.7224ZM50.9167 53.2741C50.2334 53.9245 49.3262 54.2407 48.1431 54.2407H32.7351C31.5518 54.2407 30.6445 53.9245 29.9614 53.2744C29.2913 52.6364 28.9656 51.7656 28.9656 50.6128C28.9656 50.0132 28.9854 49.4211 29.0249 48.8528C29.0635 48.2951 29.1423 47.6826 29.2593 47.0317C29.3748 46.3889 29.5217 45.7856 29.6965 45.2395C29.8643 44.7158 30.093 44.1973 30.3767 43.6977C30.6475 43.2217 30.959 42.8132 31.3027 42.4841C31.6243 42.1763 32.0295 41.9243 32.5071 41.7353C32.9487 41.5605 33.4451 41.4648 33.9839 41.4504C34.0496 41.4853 34.1665 41.552 34.356 41.6755C34.7415 41.9268 35.1858 42.2134 35.677 42.5271C36.2307 42.8801 36.9441 43.199 37.7964 43.4741C38.6677 43.7559 39.5564 43.8989 40.4385 43.8989C41.3206 43.8989 42.2095 43.7559 43.0803 43.4744C43.9333 43.1987 44.6465 42.8801 45.2009 42.5266C45.7036 42.2053 46.1355 41.927 46.521 41.6755C46.7104 41.5522 46.8274 41.4853 46.8931 41.4504C47.4321 41.4648 47.9285 41.5605 48.3704 41.7353C48.8477 41.9243 49.2529 42.1765 49.5745 42.4841C49.9182 42.813 50.2297 43.2214 50.5005 43.698C50.7844 44.1973 51.0134 44.7161 51.1809 45.2392C51.356 45.7861 51.5032 46.3891 51.6184 47.0315C51.7351 47.6836 51.8142 48.2964 51.8528 48.853V48.8535C51.8926 49.4197 51.9126 50.0115 51.9128 50.6128C51.9126 51.7658 51.5869 52.6364 50.9167 53.2741Z" fill="#A9FF5D"/>
</g>
</g>
</g>
<rect x="1.00291" y="1.00291" width="78.2267" height="78.2267" rx="39.1134" stroke="#A9FF5D" stroke-width="2.00581"/>
<defs>
<filter id="filter0_bdi_1104_4010" x="-10.6974" y="-10.6979" width="101.628" height="139.07" filterUnits="userSpaceOnUse" color-interpolation-filters="sRGB">
<feFlood flood-opacity="0" result="BackgroundImageFix"/>
<feGaussianBlur in="BackgroundImageFix" stdDeviation="8.02326"/>
<feComposite in2="SourceAlpha" operator="in" result="effect1_backgroundBlur_1104_4010"/>
<feColorMatrix in="SourceAlpha" type="matrix" values="0 0 0 0 0 0 0 0 0 0 0 0 0 0 0 0 0 0 127 0" result="hardAlpha"/>
<feMorphology radius="21.3953" operator="erode" in="SourceAlpha" result="effect2_dropShadow_1104_4010"/>
<feOffset dy="42.7907"/>
<feGaussianBlur stdDeviation="16.0465"/>
<feComposite in2="hardAlpha" operator="out"/>
<feColorMatrix type="matrix" values="0 0 0 0 0 0 0 0 0 0 0 0 0 0 0 0 0 0 0.4 0"/>
<feBlend mode="multiply" in2="effect1_backgroundBlur_1104_4010" result="effect2_dropShadow_1104_4010"/>
<feBlend mode="normal" in="SourceGraphic" in2="effect2_dropShadow_1104_4010" result="shape"/>
<feColorMatrix in="SourceAlpha" type="matrix" values="0 0 0 0 0 0 0 0 0 0 0 0 0 0 0 0 0 0 127 0" result="hardAlpha"/>
<feOffset/>
<feGaussianBlur stdDeviation="5.34884"/>
<feComposite in2="hardAlpha" operator="arithmetic" k2="-1" k3="1"/>
<feColorMatrix type="matrix" values="0 0 0 0 0.972549 0 0 0 0 0.972549 0 0 0 0 0.972549 0 0 0 0.25 0"/>
<feBlend mode="normal" in2="shape" result="effect3_innerShadow_1104_4010"/>
</filter>
<linearGradient id="paint0_linear_1104_4010" x1="40.1166" y1="4.2271" x2="71.3415" y2="83.0483" gradientUnits="userSpaceOnUse">
<stop stop-color="#DADFD6" stop-opacity="0.4"/>
<stop offset="0.4" stop-color="#DADFD6" stop-opacity="0.1"/>
<stop offset="0.6" stop-color="#DADFD6" stop-opacity="0.1"/>
<stop offset="1" stop-color="#DADFD6" stop-opacity="0.2"/>
</linearGradient>
<clipPath id="clip0_1104_4010">
<rect width="80.2326" height="80.2326" rx="40.1163" fill="white"/>
</clipPath>
<clipPath id="clip1_1104_4010">
<rect width="32" height="32" fill="white" transform="translate(24.4653 24.1162)"/>
</clipPath>
</defs>
</svg>