<svg xmlns:xlink="http://www.w3.org/1999/xlink" xmlns="http://www.w3.org/2000/svg" width="70" height="70" viewBox="0 0 70 70" fill="none">
<g filter="url(#filter0_i_78_440)">
<g clip-path="url(#clip0_78_440)">
<g filter="url(#filter1_bdi_78_440)">
<rect x="4.66663" y="4.6665" width="60.6667" height="60.6667" rx="30.3333" fill="#191B17"/>
<rect x="5.54163" y="5.5415" width="58.9167" height="58.9167" rx="29.4583" stroke="url(#paint0_linear_78_440)" stroke-opacity="0.8" stroke-width="1.75"/>
<g clip-path="url(#clip1_78_440)">
<path d="M35.1054 34.4894C36.953 34.4894 38.5526 33.8267 39.8601 32.5193C41.1671 31.2121 41.8299 29.6127 41.8299 27.7649C41.8299 25.9177 41.1673 24.318 39.8598 23.0104C38.5524 21.7034 36.9528 21.0408 35.1054 21.0408C33.2576 21.0408 31.6581 21.7034 30.3509 23.0106C29.0437 24.3178 28.3809 25.9175 28.3809 27.7649C28.3809 29.6127 29.0437 31.2123 30.3509 32.5195C31.6586 33.8265 33.2582 34.4894 35.1054 34.4894ZM31.508 24.1674C32.511 23.1644 33.6876 22.6769 35.1054 22.6769C36.5229 22.6769 37.6998 23.1644 38.703 24.1674C39.7061 25.1707 40.1938 26.3475 40.1938 27.7649C40.1938 29.1826 39.7061 30.3592 38.703 31.3625C37.6998 32.3657 36.5229 32.8533 35.1054 32.8533C33.6881 32.8533 32.5114 32.3655 31.508 31.3625C30.5047 30.3595 30.0169 29.1826 30.0169 27.7649C30.0169 26.3475 30.5047 25.1707 31.508 24.1674Z" fill="url(#paint1_linear_78_440)"/>
<path d="M46.8715 42.5089C46.8338 41.9649 46.7575 41.3715 46.6453 40.7448C46.532 40.1135 46.3861 39.5166 46.2114 38.9711C46.0308 38.4073 45.7856 37.8505 45.4821 37.317C45.1675 36.7631 44.7977 36.2809 44.3828 35.8841C43.9489 35.4689 43.4176 35.1352 42.8033 34.8917C42.1912 34.6495 41.5128 34.5268 40.7871 34.5268C40.5021 34.5268 40.2264 34.6438 39.6941 34.9903C39.3665 35.204 38.9833 35.451 38.5556 35.7243C38.1899 35.9574 37.6944 36.1757 37.0825 36.3734C36.4854 36.5665 35.8792 36.6645 35.2807 36.6645C34.6826 36.6645 34.0764 36.5665 33.4789 36.3734C32.8676 36.1759 32.3719 35.9576 32.0068 35.7245C31.5832 35.4538 31.1997 35.2067 30.8673 34.9901C30.3354 34.6436 30.0598 34.5266 29.7748 34.5266C29.0488 34.5266 28.3706 34.6495 27.7587 34.8919C27.1448 35.1349 26.6134 35.4687 26.179 35.8843C25.7641 36.2813 25.3943 36.7634 25.0799 37.317C24.7768 37.8505 24.5315 38.4071 24.3508 38.9714C24.1764 39.5169 24.0305 40.1135 23.9171 40.7448C23.8047 41.3706 23.7286 41.9643 23.6909 42.5096C23.6539 43.0427 23.6351 43.5976 23.6351 44.1582C23.6351 45.6156 24.0984 46.7954 25.012 47.6655C25.9143 48.5241 27.1079 48.9595 28.56 48.9595H42.0031C43.4547 48.9595 44.6484 48.5241 45.5509 47.6655C46.4647 46.796 46.928 45.6158 46.928 44.158C46.9277 43.5954 46.9088 43.0406 46.8715 42.5089ZM44.4228 46.4801C43.8266 47.0476 43.0351 47.3234 42.0029 47.3234H28.56C27.5276 47.3234 26.736 47.0476 26.1401 46.4804C25.5554 45.9238 25.2712 45.164 25.2712 44.1582C25.2712 43.6351 25.2885 43.1185 25.323 42.6227C25.3566 42.1362 25.4254 41.6017 25.5275 41.0339C25.6282 40.473 25.7564 39.9467 25.9089 39.4702C26.0553 39.0133 26.2549 38.5609 26.5024 38.1251C26.7386 37.7097 27.0104 37.3534 27.3103 37.0663C27.5908 36.7977 27.9444 36.5778 28.361 36.413C28.7464 36.2605 29.1794 36.177 29.6495 36.1644C29.7068 36.1949 29.8088 36.253 29.9741 36.3608C30.3105 36.58 30.6981 36.83 31.1267 37.1037C31.6098 37.4117 32.2322 37.6899 32.9758 37.93C33.736 38.1758 34.5113 38.3006 35.2809 38.3006C36.0505 38.3006 36.826 38.1758 37.5858 37.9302C38.3301 37.6897 38.9522 37.4117 39.436 37.1033C39.8745 36.823 40.2513 36.5802 40.5877 36.3608C40.753 36.2532 40.855 36.1949 40.9123 36.1644C41.3826 36.177 41.8156 36.2605 42.2012 36.413C42.6176 36.5778 42.9712 36.7979 43.2517 37.0663C43.5516 37.3532 43.8234 37.7095 44.0596 38.1253C44.3074 38.5609 44.5072 39.0135 44.6533 39.47C44.806 39.9471 44.9345 40.4732 45.035 41.0337C45.1368 41.6026 45.2058 42.1372 45.2395 42.6229V42.6233C45.2742 43.1173 45.2917 43.6336 45.2919 44.1582C45.2917 45.1642 45.0075 45.9238 44.4228 46.4801Z" fill="url(#paint2_linear_78_440)"/>
</g>
</g>
</g>
<rect x="0.875" y="0.875" width="68.25" height="68.25" rx="34.125" stroke="url(#paint3_linear_78_440)" stroke-width="1.75"/>
</g>
<defs>
<filter id="filter0_i_78_440" x="0" y="0" width="70" height="70" filterUnits="userSpaceOnUse" color-interpolation-filters="sRGB">
<feFlood flood-opacity="0" result="BackgroundImageFix"/>
<feBlend mode="normal" in="SourceGraphic" in2="BackgroundImageFix" result="shape"/>
<feColorMatrix in="SourceAlpha" type="matrix" values="0 0 0 0 0 0 0 0 0 0 0 0 0 0 0 0 0 0 127 0" result="hardAlpha"/>
<feOffset/>
<feGaussianBlur stdDeviation="4.66667"/>
<feComposite in2="hardAlpha" operator="arithmetic" k2="-1" k3="1"/>
<feColorMatrix type="matrix" values="0 0 0 0 0.972549 0 0 0 0 0.972549 0 0 0 0 0.972549 0 0 0 0.25 0"/>
<feBlend mode="normal" in2="shape" result="effect1_innerShadow_78_440"/>
</filter>
<filter id="filter1_bdi_78_440" x="-9.33337" y="-9.3335" width="88.6666" height="121.333" filterUnits="userSpaceOnUse" color-interpolation-filters="sRGB">
<feFlood flood-opacity="0" result="BackgroundImageFix"/>
<feGaussianBlur in="BackgroundImageFix" stdDeviation="7"/>
<feComposite in2="SourceAlpha" operator="in" result="effect1_backgroundBlur_78_440"/>
<feColorMatrix in="SourceAlpha" type="matrix" values="0 0 0 0 0 0 0 0 0 0 0 0 0 0 0 0 0 0 127 0" result="hardAlpha"/>
<feMorphology radius="18.6667" operator="erode" in="SourceAlpha" result="effect2_dropShadow_78_440"/>
<feOffset dy="37.3333"/>
<feGaussianBlur stdDeviation="14"/>
<feComposite in2="hardAlpha" operator="out"/>
<feColorMatrix type="matrix" values="0 0 0 0 0 0 0 0 0 0 0 0 0 0 0 0 0 0 0.4 0"/>
<feBlend mode="multiply" in2="effect1_backgroundBlur_78_440" result="effect2_dropShadow_78_440"/>
<feBlend mode="normal" in="SourceGraphic" in2="effect2_dropShadow_78_440" result="shape"/>
<feColorMatrix in="SourceAlpha" type="matrix" values="0 0 0 0 0 0 0 0 0 0 0 0 0 0 0 0 0 0 127 0" result="hardAlpha"/>
<feOffset/>
<feGaussianBlur stdDeviation="4.66667"/>
<feComposite in2="hardAlpha" operator="arithmetic" k2="-1" k3="1"/>
<feColorMatrix type="matrix" values="0 0 0 0 0.972549 0 0 0 0 0.972549 0 0 0 0 0.972549 0 0 0 0.25 0"/>
<feBlend mode="normal" in2="shape" result="effect3_innerShadow_78_440"/>
</filter>
<linearGradient id="paint0_linear_78_440" x1="35" y1="3.68801" x2="62.2426" y2="72.4566" gradientUnits="userSpaceOnUse">
<stop stop-color="#DADFD6" stop-opacity="0.4"/>
<stop offset="0.4" stop-color="#DADFD6" stop-opacity="0.1"/>
<stop offset="0.6" stop-color="#DADFD6" stop-opacity="0.1"/>
<stop offset="1" stop-color="#DADFD6" stop-opacity="0.2"/>
</linearGradient>
<linearGradient id="paint1_linear_78_440" x1="35.1054" y1="21.0408" x2="35.1054" y2="34.4894" gradientUnits="userSpaceOnUse">
<stop stop-color="#F8F8F8" stop-opacity="0.9"/>
<stop offset="1" stop-color="#F8F8F8" stop-opacity="0.3"/>
</linearGradient>
<linearGradient id="paint2_linear_78_440" x1="35.2815" y1="34.5266" x2="35.2815" y2="48.9595" gradientUnits="userSpaceOnUse">
<stop stop-color="#F8F8F8" stop-opacity="0.9"/>
<stop offset="1" stop-color="#F8F8F8" stop-opacity="0.3"/>
</linearGradient>
<linearGradient id="paint3_linear_78_440" x1="35" y1="0" x2="35" y2="70" gradientUnits="userSpaceOnUse">
<stop stop-color="#F8F8F8" stop-opacity="0.9"/>
<stop offset="1" stop-color="#F8F8F8" stop-opacity="0.3"/>
</linearGradient>
<clipPath id="clip0_78_440">
<rect width="70" height="70" rx="35" fill="white"/>
</clipPath>
<clipPath id="clip1_78_440">
<rect width="27.9188" height="27.9188" fill="white" transform="translate(21.3448 21.0408)"/>
</clipPath>
</defs>
</svg>