<svg xmlns:xlink="http://www.w3.org/1999/xlink" xmlns="http://www.w3.org/2000/svg" width="227" height="40" viewBox="0 0 227 40" fill="none">
<g filter="url(#filter0_bi_39_234)">
<g clip-path="url(#clip0_39_234)">
<rect width="227" height="40" rx="10" fill="#A9FF5D" fill-opacity="0.1"/>
<g filter="url(#filter1_di_39_234)">
<rect x="4" y="4" width="68" height="32" rx="8" fill="white" fill-opacity="0.05" shape-rendering="crispEdges"/>
<rect x="4.75" y="4.75" width="66.5" height="30.5" rx="7.25" stroke="url(#paint0_linear_39_234)" stroke-opacity="0.25" stroke-width="1.5" shape-rendering="crispEdges"/>
<path d="M19.036 24C18.948 24 18.876 23.972 18.82 23.916C18.764 23.86 18.736 23.788 18.736 23.7V17.268H16.552C16.472 17.268 16.404 17.24 16.348 17.184C16.292 17.128 16.264 17.06 16.264 16.98V15.9C16.264 15.812 16.292 15.74 16.348 15.684C16.404 15.628 16.472 15.6 16.552 15.6H22.84C22.928 15.6 23 15.628 23.056 15.684C23.112 15.74 23.14 15.812 23.14 15.9V16.98C23.14 17.06 23.112 17.128 23.056 17.184C23 17.24 22.928 17.268 22.84 17.268H20.668V23.7C20.668 23.788 20.64 23.86 20.584 23.916C20.528 23.972 20.456 24 20.368 24H19.036ZM25.8681 24.12C24.9481 24.12 24.2161 23.864 23.6721 23.352C23.1361 22.84 22.8521 22.096 22.8201 21.12C22.8201 21.056 22.8201 20.972 22.8201 20.868C22.8201 20.756 22.8201 20.668 22.8201 20.604C22.8521 19.988 22.9921 19.46 23.2401 19.02C23.4881 18.572 23.8361 18.232 24.2841 18C24.7321 17.76 25.2561 17.64 25.8561 17.64C26.5281 17.64 27.0881 17.78 27.5361 18.06C27.9921 18.332 28.3321 18.708 28.5561 19.188C28.7881 19.66 28.9041 20.204 28.9041 20.82V21.096C28.9041 21.176 28.8721 21.244 28.8081 21.3C28.7521 21.356 28.6841 21.384 28.6041 21.384H24.6801C24.6801 21.392 24.6801 21.408 24.6801 21.432C24.6801 21.448 24.6801 21.464 24.6801 21.48C24.6881 21.736 24.7361 21.972 24.8241 22.188C24.9201 22.396 25.0521 22.564 25.2201 22.692C25.3961 22.82 25.6041 22.884 25.8441 22.884C26.0441 22.884 26.2081 22.856 26.3361 22.8C26.4641 22.744 26.5681 22.676 26.6481 22.596C26.7361 22.516 26.8001 22.448 26.8401 22.392C26.9121 22.312 26.9681 22.264 27.0081 22.248C27.0561 22.224 27.1281 22.212 27.2241 22.212H28.4721C28.5521 22.212 28.6161 22.236 28.6641 22.284C28.7201 22.324 28.7441 22.384 28.7361 22.464C28.7281 22.592 28.6601 22.752 28.5321 22.944C28.4121 23.128 28.2321 23.312 27.9921 23.496C27.7521 23.672 27.4521 23.82 27.0921 23.94C26.7401 24.06 26.3321 24.12 25.8681 24.12ZM24.6801 20.292H27.0321V20.268C27.0321 19.98 26.9841 19.732 26.8881 19.524C26.8001 19.308 26.6681 19.14 26.4921 19.02C26.3161 18.9 26.1041 18.84 25.8561 18.84C25.6081 18.84 25.3961 18.9 25.2201 19.02C25.0441 19.14 24.9081 19.308 24.8121 19.524C24.7241 19.732 24.6801 19.98 24.6801 20.268V20.292ZM32.5637 24.12C32.0677 24.12 31.6397 24.064 31.2797 23.952C30.9277 23.832 30.6397 23.688 30.4157 23.52C30.1997 23.352 30.0357 23.184 29.9237 23.016C29.8197 22.84 29.7637 22.692 29.7557 22.572C29.7477 22.484 29.7757 22.412 29.8397 22.356C29.9037 22.3 29.9677 22.272 30.0317 22.272H31.1957C31.2197 22.272 31.2437 22.276 31.2677 22.284C31.2917 22.292 31.3157 22.312 31.3397 22.344C31.4437 22.416 31.5517 22.5 31.6637 22.596C31.7757 22.684 31.9037 22.76 32.0477 22.824C32.1997 22.888 32.3877 22.92 32.6117 22.92C32.8757 22.92 33.0997 22.868 33.2837 22.764C33.4677 22.652 33.5597 22.496 33.5597 22.296C33.5597 22.152 33.5157 22.032 33.4277 21.936C33.3477 21.84 33.1917 21.752 32.9597 21.672C32.7277 21.592 32.3837 21.504 31.9277 21.408C31.4957 21.312 31.1277 21.184 30.8237 21.024C30.5197 20.864 30.2917 20.664 30.1397 20.424C29.9877 20.176 29.9117 19.88 29.9117 19.536C29.9117 19.224 30.0077 18.924 30.1997 18.636C30.3997 18.348 30.6917 18.112 31.0757 17.928C31.4597 17.736 31.9397 17.64 32.5157 17.64C32.9557 17.64 33.3397 17.696 33.6677 17.808C34.0037 17.912 34.2837 18.048 34.5077 18.216C34.7317 18.376 34.8997 18.544 35.0117 18.72C35.1317 18.888 35.1957 19.036 35.2037 19.164C35.2117 19.244 35.1877 19.312 35.1317 19.368C35.0757 19.424 35.0117 19.452 34.9397 19.452H33.8717C33.8317 19.452 33.7957 19.448 33.7637 19.44C33.7317 19.424 33.7037 19.404 33.6797 19.38C33.5837 19.316 33.4837 19.244 33.3797 19.164C33.2837 19.076 33.1677 19 33.0317 18.936C32.8957 18.872 32.7197 18.84 32.5037 18.84C32.2397 18.84 32.0357 18.9 31.8917 19.02C31.7557 19.132 31.6877 19.276 31.6877 19.452C31.6877 19.564 31.7237 19.668 31.7957 19.764C31.8677 19.86 32.0157 19.948 32.2397 20.028C32.4637 20.108 32.8037 20.192 33.2597 20.28C33.8037 20.376 34.2357 20.52 34.5557 20.712C34.8757 20.904 35.1037 21.128 35.2397 21.384C35.3837 21.632 35.4557 21.9 35.4557 22.188C35.4557 22.564 35.3437 22.9 35.1197 23.196C34.8957 23.484 34.5677 23.712 34.1357 23.88C33.7117 24.04 33.1877 24.12 32.5637 24.12ZM39.5841 24C39.0881 24 38.6641 23.92 38.3121 23.76C37.9601 23.592 37.6921 23.336 37.5081 22.992C37.3321 22.648 37.2441 22.216 37.2441 21.696V19.176H36.3081C36.2201 19.176 36.1481 19.148 36.0921 19.092C36.0361 19.036 36.0081 18.964 36.0081 18.876V18.06C36.0081 17.972 36.0361 17.9 36.0921 17.844C36.1481 17.788 36.2201 17.76 36.3081 17.76H37.2441V15.78C37.2441 15.692 37.2721 15.62 37.3281 15.564C37.3921 15.508 37.4641 15.48 37.5441 15.48H38.7201C38.8081 15.48 38.8801 15.508 38.9361 15.564C38.9921 15.62 39.0201 15.692 39.0201 15.78V17.76H40.5201C40.6001 17.76 40.6681 17.788 40.7241 17.844C40.7801 17.9 40.8081 17.972 40.8081 18.06V18.876C40.8081 18.964 40.7801 19.036 40.7241 19.092C40.6681 19.148 40.6001 19.176 40.5201 19.176H39.0201V21.552C39.0201 21.856 39.0721 22.096 39.1761 22.272C39.2881 22.44 39.4801 22.524 39.7521 22.524H40.6281C40.7081 22.524 40.7761 22.552 40.8321 22.608C40.8881 22.664 40.9161 22.732 40.9161 22.812V23.7C40.9161 23.788 40.8881 23.86 40.8321 23.916C40.7761 23.972 40.7081 24 40.6281 24H39.5841ZM42.251 24C42.171 24 42.103 23.972 42.047 23.916C41.991 23.86 41.963 23.788 41.963 23.7V18.06C41.963 17.972 41.991 17.9 42.047 17.844C42.103 17.788 42.171 17.76 42.251 17.76H43.451C43.539 17.76 43.611 17.788 43.667 17.844C43.723 17.9 43.751 17.972 43.751 18.06V23.7C43.751 23.788 43.723 23.86 43.667 23.916C43.611 23.972 43.539 24 43.451 24H42.251ZM42.215 16.8C42.135 16.8 42.067 16.772 42.011 16.716C41.955 16.66 41.927 16.588 41.927 16.5V15.54C41.927 15.452 41.955 15.38 42.011 15.324C42.067 15.26 42.135 15.228 42.215 15.228H43.475C43.563 15.228 43.635 15.26 43.691 15.324C43.755 15.38 43.787 15.452 43.787 15.54V16.5C43.787 16.588 43.755 16.66 43.691 16.716C43.635 16.772 43.563 16.8 43.475 16.8H42.215ZM45.544 24C45.464 24 45.396 23.972 45.34 23.916C45.284 23.86 45.256 23.788 45.256 23.7V18.06C45.256 17.972 45.284 17.9 45.34 17.844C45.396 17.788 45.464 17.76 45.544 17.76H46.72C46.808 17.76 46.88 17.788 46.936 17.844C46.992 17.9 47.02 17.972 47.02 18.06V18.528C47.228 18.272 47.496 18.06 47.824 17.892C48.152 17.724 48.552 17.64 49.024 17.64C49.496 17.64 49.908 17.748 50.26 17.964C50.62 18.172 50.9 18.48 51.1 18.888C51.308 19.288 51.412 19.776 51.412 20.352V23.7C51.412 23.788 51.38 23.86 51.316 23.916C51.26 23.972 51.192 24 51.112 24H49.84C49.752 24 49.68 23.972 49.624 23.916C49.568 23.86 49.54 23.788 49.54 23.7V20.424C49.54 20 49.436 19.672 49.228 19.44C49.028 19.2 48.732 19.08 48.34 19.08C47.964 19.08 47.664 19.2 47.44 19.44C47.216 19.672 47.104 20 47.104 20.424V23.7C47.104 23.788 47.076 23.86 47.02 23.916C46.964 23.972 46.896 24 46.816 24H45.544ZM55.7778 26.64C55.1858 26.64 54.6938 26.56 54.3018 26.4C53.9098 26.248 53.5978 26.06 53.3658 25.836C53.1418 25.62 52.9818 25.404 52.8857 25.188C52.7898 24.972 52.7378 24.804 52.7298 24.684C52.7218 24.596 52.7498 24.524 52.8138 24.468C52.8778 24.412 52.9498 24.384 53.0298 24.384H54.3138C54.3858 24.384 54.4458 24.4 54.4938 24.432C54.5498 24.472 54.5938 24.536 54.6258 24.624C54.6658 24.72 54.7218 24.82 54.7938 24.924C54.8658 25.036 54.9738 25.128 55.1178 25.2C55.2698 25.272 55.4698 25.308 55.7178 25.308C55.9978 25.308 56.2298 25.268 56.4138 25.188C56.5978 25.108 56.7338 24.972 56.8218 24.78C56.9178 24.588 56.9658 24.328 56.9658 24V23.196C56.7738 23.404 56.5298 23.576 56.2338 23.712C55.9458 23.848 55.5898 23.916 55.1658 23.916C54.7498 23.916 54.3818 23.852 54.0618 23.724C53.7498 23.588 53.4898 23.4 53.2818 23.16C53.0738 22.912 52.9138 22.616 52.8018 22.272C52.6898 21.928 52.6258 21.54 52.6098 21.108C52.6018 20.892 52.6018 20.68 52.6098 20.472C52.6258 20.056 52.6898 19.676 52.8018 19.332C52.9138 18.988 53.0738 18.692 53.2818 18.444C53.4898 18.188 53.7498 17.992 54.0618 17.856C54.3818 17.712 54.7498 17.64 55.1658 17.64C55.6058 17.64 55.9818 17.724 56.2938 17.892C56.6058 18.06 56.8618 18.268 57.0618 18.516V18.06C57.0618 17.98 57.0898 17.912 57.1458 17.856C57.2018 17.792 57.2698 17.76 57.3498 17.76H58.5258C58.6058 17.76 58.6738 17.792 58.7298 17.856C58.7938 17.912 58.8258 17.98 58.8258 18.06L58.8378 23.832C58.8378 24.432 58.7218 24.94 58.4898 25.356C58.2578 25.772 57.9138 26.088 57.4578 26.304C57.0098 26.528 56.4498 26.64 55.7778 26.64ZM55.7178 22.512C56.0058 22.512 56.2378 22.448 56.4138 22.32C56.5978 22.184 56.7338 22.016 56.8218 21.816C56.9098 21.608 56.9578 21.392 56.9658 21.168C56.9738 21.08 56.9778 20.956 56.9778 20.796C56.9778 20.628 56.9738 20.5 56.9658 20.412C56.9578 20.188 56.9098 19.976 56.8218 19.776C56.7338 19.568 56.5978 19.4 56.4138 19.272C56.2378 19.144 56.0058 19.08 55.7178 19.08C55.4138 19.08 55.1738 19.148 54.9978 19.284C54.8218 19.412 54.6938 19.584 54.6138 19.8C54.5338 20.016 54.4858 20.252 54.4698 20.508C54.4618 20.7 54.4618 20.888 54.4698 21.072C54.4858 21.336 54.5338 21.576 54.6138 21.792C54.6938 22.008 54.8218 22.184 54.9978 22.32C55.1738 22.448 55.4138 22.512 55.7178 22.512Z" fill="#F8F8F8" fill-opacity="0.95"/>
</g>
</g>
<rect x="0.75" y="0.75" width="225.5" height="38.5" rx="9.25" stroke="#A9FF5D" stroke-width="1.5"/>
</g>
<defs>
<filter id="filter0_bi_39_234" x="-100" y="-100" width="427" height="240" filterUnits="userSpaceOnUse" color-interpolation-filters="sRGB">
<feFlood flood-opacity="0" result="BackgroundImageFix"/>
<feGaussianBlur in="BackgroundImageFix" stdDeviation="50"/>
<feComposite in2="SourceAlpha" operator="in" result="effect1_backgroundBlur_39_234"/>
<feBlend mode="normal" in="SourceGraphic" in2="effect1_backgroundBlur_39_234" result="shape"/>
<feColorMatrix in="SourceAlpha" type="matrix" values="0 0 0 0 0 0 0 0 0 0 0 0 0 0 0 0 0 0 127 0" result="hardAlpha"/>
<feOffset dx="2" dy="4"/>
<feGaussianBlur stdDeviation="8"/>
<feComposite in2="hardAlpha" operator="arithmetic" k2="-1" k3="1"/>
<feColorMatrix type="matrix" values="0 0 0 0 0.972549 0 0 0 0 0.972549 0 0 0 0 0.972549 0 0 0 0.06 0"/>
<feBlend mode="normal" in2="shape" result="effect2_innerShadow_39_234"/>
</filter>
<filter id="filter1_di_39_234" x="-20" y="4" width="116" height="88" filterUnits="userSpaceOnUse" color-interpolation-filters="sRGB">
<feFlood flood-opacity="0" result="BackgroundImageFix"/>
<feColorMatrix in="SourceAlpha" type="matrix" values="0 0 0 0 0 0 0 0 0 0 0 0 0 0 0 0 0 0 127 0" result="hardAlpha"/>
<feOffset dy="32"/>
<feGaussianBlur stdDeviation="12"/>
<feComposite in2="hardAlpha" operator="out"/>
<feColorMatrix type="matrix" values="0 0 0 0 0 0 0 0 0 0 0 0 0 0 0 0 0 0 0.4 0"/>
<feBlend mode="normal" in2="BackgroundImageFix" result="effect1_dropShadow_39_234"/>
<feBlend mode="normal" in="SourceGraphic" in2="effect1_dropShadow_39_234" result="shape"/>
<feColorMatrix in="SourceAlpha" type="matrix" values="0 0 0 0 0 0 0 0 0 0 0 0 0 0 0 0 0 0 127 0" result="hardAlpha"/>
<feOffset/>
<feGaussianBlur stdDeviation="4"/>
<feComposite in2="hardAlpha" operator="arithmetic" k2="-1" k3="1"/>
<feColorMatrix type="matrix" values="0 0 0 0 0.972549 0 0 0 0 0.972549 0 0 0 0 0.972549 0 0 0 0.25 0"/>
<feBlend mode="normal" in2="shape" result="effect2_innerShadow_39_234"/>
</filter>
<linearGradient id="paint0_linear_39_234" x1="38" y1="4" x2="45.3244" y2="43.2891" gradientUnits="userSpaceOnUse">
<stop stop-color="white" stop-opacity="0.4"/>
<stop offset="0.4" stop-color="white" stop-opacity="0.01"/>
<stop offset="0.6" stop-color="white" stop-opacity="0.01"/>
<stop offset="1" stop-color="white" stop-opacity="0.1"/>
</linearGradient>
<clipPath id="clip0_39_234">
<rect width="227" height="40" rx="10" fill="white"/>
</clipPath>
</defs>
</svg>