<svg xmlns:xlink="http://www.w3.org/1999/xlink" xmlns="http://www.w3.org/2000/svg" width="32" height="32" viewBox="0 0 32 32" fill="none">
<rect width="32" height="32" rx="16" fill="white"/>
<path d="M6.70597 12.7273H8.42827L10.0866 15.8594H10.1577L11.8161 12.7273H13.5384L10.8857 17.429V20H9.35866V17.429L6.70597 12.7273ZM15.6717 20.1065C15.1201 20.1065 14.6431 19.9893 14.2406 19.755C13.8405 19.5182 13.5315 19.1892 13.3137 18.7678C13.0959 18.344 12.987 17.8527 12.987 17.294C12.987 16.7306 13.0959 16.2382 13.3137 15.8168C13.5315 15.393 13.8405 15.0639 14.2406 14.8295C14.6431 14.5928 15.1201 14.4744 15.6717 14.4744C16.2233 14.4744 16.6992 14.5928 17.0993 14.8295C17.5017 15.0639 17.8118 15.393 18.0297 15.8168C18.2475 16.2382 18.3564 16.7306 18.3564 17.294C18.3564 17.8527 18.2475 18.344 18.0297 18.7678C17.8118 19.1892 17.5017 19.5182 17.0993 19.755C16.6992 19.9893 16.2233 20.1065 15.6717 20.1065ZM15.6788 18.9347C15.9297 18.9347 16.1393 18.8636 16.3074 18.7216C16.4754 18.5772 16.6021 18.3807 16.6873 18.1321C16.7749 17.8835 16.8187 17.6006 16.8187 17.2834C16.8187 16.9661 16.7749 16.6832 16.6873 16.4347C16.6021 16.1861 16.4754 15.9896 16.3074 15.8452C16.1393 15.7008 15.9297 15.6286 15.6788 15.6286C15.4255 15.6286 15.2124 15.7008 15.0396 15.8452C14.8691 15.9896 14.7401 16.1861 14.6525 16.4347C14.5673 16.6832 14.5247 16.9661 14.5247 17.2834C14.5247 17.6006 14.5673 17.8835 14.6525 18.1321C14.7401 18.3807 14.8691 18.5772 15.0396 18.7216C15.2124 18.8636 15.4255 18.9347 15.6788 18.9347ZM22.8379 17.6776V14.5455H24.3507V20H22.8983V19.0092H22.8414C22.7183 19.3288 22.5136 19.5857 22.2271 19.7798C21.943 19.974 21.5962 20.071 21.1866 20.071C20.822 20.071 20.5012 19.9882 20.2243 19.8224C19.9473 19.6567 19.7306 19.4212 19.5744 19.1158C19.4205 18.8104 19.3424 18.4446 19.34 18.0185V14.5455H20.8528V17.7486C20.8552 18.0705 20.9416 18.325 21.112 18.5121C21.2825 18.6991 21.5109 18.7926 21.7974 18.7926C21.9797 18.7926 22.1502 18.7512 22.3088 18.6683C22.4674 18.5831 22.5952 18.4576 22.6923 18.2919C22.7917 18.1262 22.8403 17.9214 22.8379 17.6776Z" fill="#090D06"/>
</svg>