<svg xmlns:xlink="http://www.w3.org/1999/xlink" xmlns="http://www.w3.org/2000/svg" width="19" height="19" viewBox="0 0 19 19" fill="none">
<path d="M3.08369 1.18301C2.89593 1.11557 2.70542 1.04714 2.54456 1.00534C2.39196 0.965674 2.09736 0.899927 1.78148 1.00932C1.41935 1.13472 1.13476 1.41931 1.00935 1.78144C0.899965 2.09731 0.965712 2.39192 1.00537 2.54452C1.04718 2.70538 1.11561 2.89589 1.18305 3.08365L5.95714 16.383C6.04095 16.6166 6.12132 16.8405 6.20064 17.0131C6.26765 17.1589 6.42004 17.4778 6.75137 17.6581C7.11367 17.8553 7.54991 17.861 7.91726 17.6734C8.25321 17.5019 8.41392 17.1871 8.48473 17.0431C8.56856 16.8726 8.65478 16.6509 8.74468 16.4196L10.8937 10.8937L16.4197 8.74465C16.6509 8.65476 16.8727 8.56854 17.0431 8.48473C17.1871 8.41392 17.5019 8.25321 17.6734 7.91726C17.861 7.54991 17.8553 7.11368 17.6581 6.75138C17.4778 6.42004 17.1589 6.26765 17.0131 6.20064C16.8405 6.12132 16.6166 6.04095 16.383 5.95715L3.08369 1.18301Z" fill="#121212" stroke="#F8F8F8" stroke-width="1.5" stroke-linecap="round" stroke-linejoin="round"/>
</svg>