<svg xmlns:xlink="http://www.w3.org/1999/xlink" xmlns="http://www.w3.org/2000/svg" width="92" height="17" viewBox="0 0 92 17" fill="none">
<path d="M8 13.4839L12.944 16.625L11.632 10.705L16 6.72184L10.248 6.20816L8 0.625L5.752 6.20816L0 6.72184L4.368 10.705L3.056 16.625L8 13.4839Z" fill="#F0FF3E"/>
<path d="M27 13.4839L31.944 16.625L30.632 10.705L35 6.72184L29.248 6.20816L27 0.625L24.752 6.20816L19 6.72184L23.368 10.705L22.056 16.625L27 13.4839Z" fill="#F0FF3E"/>
<path d="M46 13.4839L50.944 16.625L49.632 10.705L54 6.72184L48.248 6.20816L46 0.625L43.752 6.20816L38 6.72184L42.368 10.705L41.056 16.625L46 13.4839Z" fill="#F0FF3E"/>
<path d="M65 13.4839L69.944 16.625L68.632 10.705L73 6.72184L67.248 6.20816L65 0.625L62.752 6.20816L57 6.72184L61.368 10.705L60.056 16.625L65 13.4839Z" fill="#F0FF3E"/>
<path d="M84 13.4839L88.944 16.625L87.632 10.705L92 6.72184L86.248 6.20816L84 0.625L81.752 6.20816L76 6.72184L80.368 10.705L79.056 16.625L84 13.4839Z" fill="#F0FF3E"/>
</svg>