<svg xmlns:xlink="http://www.w3.org/1999/xlink" xmlns="http://www.w3.org/2000/svg" width="193" height="30" viewBox="0 0 193 30" fill="none">
<path d="M0.25 14.9898C0.25 7.26385 6.53045 0.983398 14.2564 0.983398H177.975C185.701 0.983398 191.981 7.26385 191.981 14.9898C191.981 22.7157 185.701 28.9962 177.975 28.9962H14.2564C6.53045 28.9962 0.25 22.7157 0.25 14.9898Z" fill="#EAFFD8" stroke="#A9FF5D" stroke-width="0.5"/>
<path d="M146.533 20.0909V9.18182H147.232V20.0909H146.533ZM148.719 12.5653C148.673 12.1619 148.486 11.8494 148.156 11.6278C147.827 11.4034 147.412 11.2912 146.912 11.2912C146.554 11.2912 146.244 11.348 145.983 11.4616C145.722 11.5724 145.518 11.7259 145.374 11.9219C145.232 12.1151 145.161 12.3352 145.161 12.5824C145.161 12.7898 145.209 12.9687 145.305 13.1193C145.405 13.2699 145.534 13.3963 145.693 13.4986C145.855 13.598 146.028 13.6818 146.213 13.75C146.398 13.8153 146.575 13.8693 146.746 13.9119L147.598 14.1335C147.876 14.2017 148.162 14.294 148.455 14.4105C148.747 14.527 149.018 14.6804 149.268 14.8707C149.518 15.0611 149.72 15.2969 149.874 15.5781C150.03 15.8594 150.108 16.196 150.108 16.5881C150.108 17.0824 149.98 17.5213 149.724 17.9048C149.472 18.2884 149.104 18.5909 148.621 18.8125C148.141 19.0341 147.56 19.1449 146.878 19.1449C146.224 19.1449 145.659 19.0412 145.182 18.8338C144.705 18.6264 144.331 18.3324 144.061 17.9517C143.791 17.5682 143.642 17.1136 143.614 16.5881H144.935C144.96 16.9034 145.063 17.1662 145.241 17.3764C145.423 17.5838 145.655 17.7386 145.936 17.8409C146.22 17.9403 146.531 17.9901 146.869 17.9901C147.241 17.9901 147.572 17.9318 147.862 17.8153C148.155 17.696 148.385 17.5312 148.553 17.321C148.72 17.108 148.804 16.8594 148.804 16.5753C148.804 16.3168 148.73 16.1051 148.582 15.9403C148.438 15.7756 148.24 15.6392 147.99 15.5312C147.743 15.4233 147.463 15.3281 147.151 15.2457L146.119 14.9645C145.42 14.7741 144.866 14.4943 144.457 14.125C144.051 13.7557 143.848 13.267 143.848 12.6591C143.848 12.1562 143.984 11.7173 144.257 11.3423C144.53 10.9673 144.899 10.6761 145.365 10.4688C145.831 10.2585 146.357 10.1534 146.942 10.1534C147.533 10.1534 148.054 10.2571 148.506 10.4645C148.96 10.6719 149.318 10.9574 149.58 11.321C149.841 11.6818 149.977 12.0966 149.989 12.5653H148.719ZM154.443 19.1193C153.909 19.1193 153.429 19.017 153.002 18.8125C152.579 18.6051 152.241 18.321 151.988 17.9602C151.735 17.5994 151.6 17.1875 151.583 16.7244H152.862C152.893 17.0994 153.059 17.4077 153.36 17.6491C153.662 17.8906 154.022 18.0114 154.443 18.0114C154.778 18.0114 155.075 17.9347 155.333 17.7812C155.595 17.625 155.799 17.4105 155.947 17.1378C156.098 16.8651 156.173 16.554 156.173 16.2045C156.173 15.8494 156.096 15.5327 155.943 15.2543C155.789 14.9759 155.578 14.7571 155.308 14.598C155.041 14.4389 154.734 14.358 154.387 14.3551C154.123 14.3551 153.858 14.4006 153.591 14.4915C153.324 14.5824 153.108 14.7017 152.943 14.8494L151.737 14.6705L152.227 10.2727H157.025V11.402H153.322L153.045 13.8438H153.096C153.267 13.679 153.493 13.5412 153.774 13.4304C154.058 13.3196 154.362 13.2642 154.686 13.2642C155.217 13.2642 155.69 13.3906 156.105 13.6435C156.522 13.8963 156.85 14.2415 157.089 14.679C157.331 15.1136 157.45 15.6136 157.447 16.179C157.45 16.7443 157.322 17.2486 157.064 17.6918C156.808 18.1349 156.453 18.4844 155.998 18.7401C155.547 18.9929 155.028 19.1193 154.443 19.1193ZM162.042 19.1449C161.369 19.142 160.793 18.9645 160.316 18.6122C159.839 18.2599 159.474 17.7472 159.221 17.0739C158.968 16.4006 158.842 15.5895 158.842 14.6406C158.842 13.6946 158.968 12.8864 159.221 12.2159C159.477 11.5455 159.843 11.0341 160.32 10.6818C160.8 10.3295 161.374 10.1534 162.042 10.1534C162.71 10.1534 163.282 10.331 163.759 10.6861C164.237 11.0384 164.602 11.5497 164.854 12.2202C165.11 12.8878 165.238 13.6946 165.238 14.6406C165.238 15.5923 165.112 16.4048 164.859 17.0781C164.606 17.7486 164.241 18.2614 163.763 18.6165C163.286 18.9688 162.712 19.1449 162.042 19.1449ZM162.042 18.0071C162.633 18.0071 163.094 17.7188 163.427 17.142C163.762 16.5653 163.93 15.7315 163.93 14.6406C163.93 13.9162 163.853 13.304 163.7 12.804C163.549 12.3011 163.332 11.9205 163.048 11.6619C162.766 11.4006 162.431 11.2699 162.042 11.2699C161.454 11.2699 160.992 11.5597 160.657 12.1392C160.322 12.7187 160.153 13.5526 160.15 14.6406C160.15 15.3679 160.225 15.983 160.376 16.4858C160.529 16.9858 160.746 17.3651 161.028 17.6236C161.309 17.8793 161.647 18.0071 162.042 18.0071ZM169.788 19.1449C169.115 19.142 168.539 18.9645 168.062 18.6122C167.585 18.2599 167.22 17.7472 166.967 17.0739C166.714 16.4006 166.588 15.5895 166.588 14.6406C166.588 13.6946 166.714 12.8864 166.967 12.2159C167.223 11.5455 167.589 11.0341 168.066 10.6818C168.547 10.3295 169.12 10.1534 169.788 10.1534C170.456 10.1534 171.028 10.331 171.505 10.6861C171.983 11.0384 172.348 11.5497 172.6 12.2202C172.856 12.8878 172.984 13.6946 172.984 14.6406C172.984 15.5923 172.858 16.4048 172.605 17.0781C172.352 17.7486 171.987 18.2614 171.51 18.6165C171.032 18.9688 170.458 19.1449 169.788 19.1449ZM169.788 18.0071C170.379 18.0071 170.841 17.7188 171.173 17.142C171.508 16.5653 171.676 15.7315 171.676 14.6406C171.676 13.9162 171.599 13.304 171.446 12.804C171.295 12.3011 171.078 11.9205 170.794 11.6619C170.512 11.4006 170.177 11.2699 169.788 11.2699C169.2 11.2699 168.738 11.5597 168.403 12.1392C168.068 12.7187 167.899 13.5526 167.896 14.6406C167.896 15.3679 167.971 15.983 168.122 16.4858C168.275 16.9858 168.493 17.3651 168.774 17.6236C169.055 17.8793 169.393 18.0071 169.788 18.0071ZM177.078 17.5341V11.7727H178.224V17.5341H177.078ZM174.773 15.2244V14.0824H180.534V15.2244H174.773Z" fill="#090D06"/>
<path d="M95.8092 14.9414C95.5149 14.9414 95.2481 14.9046 95.0182 14.831C94.7883 14.7574 94.5951 14.6655 94.4204 14.5459C94.2548 14.4263 94.1168 14.2883 93.9973 14.132C93.8777 13.9756 93.7949 13.8101 93.7305 13.6537L94.8067 13.1938C94.9078 13.4238 95.0458 13.5985 95.2206 13.7181C95.3953 13.8285 95.5977 13.8837 95.8092 13.8837C96.0299 13.8837 96.2047 13.8469 96.3335 13.7641C96.4622 13.6813 96.5266 13.5893 96.5266 13.479C96.5266 13.3594 96.4714 13.2582 96.3611 13.1846C96.2599 13.1018 96.0759 13.0375 95.8092 12.9731L95.1746 12.8351C95.0366 12.8075 94.8894 12.7523 94.7331 12.688C94.5859 12.6236 94.4479 12.5316 94.3284 12.4304C94.2088 12.3292 94.1076 12.2005 94.0249 12.0533C93.9421 11.9062 93.9053 11.7314 93.9053 11.5382C93.9053 11.3175 93.9513 11.1243 94.0433 10.9496C94.1444 10.7748 94.2732 10.6369 94.4388 10.5173C94.6043 10.3977 94.7975 10.3058 95.0182 10.2414C95.2481 10.177 95.4873 10.1402 95.7448 10.1402C96.1771 10.1402 96.5542 10.223 96.8945 10.3977C97.2348 10.5633 97.4832 10.83 97.6395 11.1979L96.6002 11.621C96.5174 11.4463 96.3887 11.3175 96.2231 11.2347C96.0575 11.1519 95.892 11.1152 95.7264 11.1152C95.5517 11.1152 95.4045 11.1519 95.2757 11.2255C95.147 11.2899 95.0826 11.3819 95.0826 11.4923C95.0826 11.5934 95.1378 11.6762 95.2389 11.7406C95.3493 11.805 95.4965 11.8602 95.6804 11.9062L96.3703 12.0717C96.8301 12.1821 97.1705 12.3568 97.3912 12.6052C97.6211 12.8443 97.7315 13.1294 97.7315 13.4606C97.7315 13.6537 97.6855 13.8469 97.5936 14.0216C97.5016 14.1964 97.3728 14.3619 97.1981 14.4999C97.0325 14.6379 96.8301 14.739 96.591 14.8218C96.3611 14.9046 96.0943 14.9414 95.8092 14.9414ZM90.1986 10.876H90.2722C90.4102 10.6461 90.6033 10.4713 90.8425 10.3425C91.0816 10.2046 91.3575 10.1402 91.6611 10.1402C91.9462 10.1402 92.1945 10.1862 92.4061 10.2782C92.6176 10.3701 92.7924 10.4989 92.9303 10.6737C93.0683 10.8392 93.1787 11.0416 93.2431 11.2807C93.3166 11.5107 93.3534 11.7774 93.3534 12.0625V14.7942H92.1485V12.2097C92.1485 11.8878 92.0749 11.6486 91.9278 11.4923C91.7898 11.3359 91.5783 11.2531 91.3023 11.2531C91.1368 11.2531 90.9896 11.2899 90.8609 11.3635C90.7413 11.4279 90.6309 11.529 90.5389 11.6486C90.4562 11.7682 90.3826 11.9062 90.3366 12.0717C90.2906 12.2281 90.2722 12.4028 90.2722 12.5868V14.7942H89.0673V10.2874H90.1986V10.876ZM86.262 13.8285C86.4184 13.8285 86.5655 13.8009 86.7035 13.7457C86.8507 13.6813 86.9794 13.5985 87.0898 13.4882C87.2002 13.3778 87.283 13.2398 87.3473 13.0835C87.4117 12.9271 87.4485 12.7431 87.4485 12.5408C87.4485 12.3384 87.4117 12.1545 87.3473 11.9981C87.283 11.8418 87.2002 11.7038 87.0898 11.5934C86.9794 11.4831 86.8507 11.4003 86.7035 11.3451C86.5655 11.2807 86.4184 11.2531 86.262 11.2531C86.1057 11.2531 85.9493 11.2807 85.8113 11.3451C85.6734 11.4003 85.5446 11.4831 85.4342 11.5934C85.3239 11.7038 85.2319 11.8418 85.1675 11.9981C85.1031 12.1545 85.0755 12.3384 85.0755 12.5408C85.0755 12.7431 85.1031 12.9271 85.1675 13.0835C85.2319 13.2398 85.3239 13.3778 85.4342 13.4882C85.5446 13.5985 85.6734 13.6813 85.8113 13.7457C85.9493 13.8009 86.1057 13.8285 86.262 13.8285ZM86.262 10.1402C86.6115 10.1402 86.9334 10.2046 87.2186 10.3242C87.5129 10.4437 87.7612 10.6093 87.9728 10.8208C88.1843 11.0324 88.3499 11.2807 88.4695 11.575C88.589 11.8694 88.6534 12.1913 88.6534 12.5408C88.6534 12.8903 88.589 13.2122 88.4695 13.5065C88.3499 13.8009 88.1843 14.0584 87.9728 14.27C87.7612 14.4815 87.5129 14.6471 87.2186 14.7666C86.9334 14.8862 86.6115 14.9414 86.262 14.9414C85.9125 14.9414 85.5906 14.8862 85.2963 14.7666C85.0111 14.6471 84.7536 14.4815 84.542 14.27C84.3305 14.0584 84.1649 13.8009 84.0454 13.5065C83.9258 13.2122 83.8706 12.8903 83.8706 12.5408C83.8706 12.1913 83.9258 11.8694 84.0454 11.575C84.1649 11.2807 84.3305 11.0324 84.542 10.8208C84.7536 10.6093 85.0111 10.4437 85.2963 10.3242C85.5906 10.2046 85.9125 10.1402 86.262 10.1402ZM82.1415 14.7942V10.2874H83.3464V14.7942H82.1415ZM82.7393 9.63433C82.6381 9.63433 82.537 9.61593 82.4358 9.57914C82.3438 9.53315 82.261 9.47797 82.1874 9.41358C82.1231 9.34 82.0679 9.25722 82.0219 9.16524C81.9851 9.07327 81.9667 8.97209 81.9667 8.86172C81.9667 8.75135 81.9851 8.65017 82.0219 8.5582C82.0679 8.46622 82.1231 8.38344 82.1874 8.31906C82.261 8.24548 82.3438 8.19029 82.4358 8.1535C82.537 8.10751 82.6381 8.08912 82.7393 8.08912C82.9509 8.08912 83.1348 8.1627 83.2912 8.31906C83.4475 8.46622 83.5211 8.65017 83.5211 8.86172C83.5211 9.07327 83.4475 9.25722 83.2912 9.41358C83.1348 9.56074 82.9509 9.63433 82.7393 9.63433ZM79.7317 14.9414C79.4373 14.9414 79.1706 14.9046 78.9407 14.831C78.7107 14.7574 78.5176 14.6655 78.3428 14.5459C78.1773 14.4263 78.0393 14.2883 77.9197 14.132C77.8002 13.9756 77.7174 13.8101 77.653 13.6537L78.7291 13.1938C78.8303 13.4238 78.9683 13.5985 79.143 13.7181C79.3178 13.8285 79.5201 13.8837 79.7317 13.8837C79.9524 13.8837 80.1272 13.8469 80.2559 13.7641C80.3847 13.6813 80.4491 13.5893 80.4491 13.479C80.4491 13.3594 80.3939 13.2582 80.2835 13.1846C80.1824 13.1018 79.9984 13.0375 79.7317 12.9731L79.097 12.8351C78.9591 12.8075 78.8119 12.7523 78.6555 12.688C78.5084 12.6236 78.3704 12.5316 78.2508 12.4304C78.1313 12.3292 78.0301 12.2005 77.9473 12.0533C77.8645 11.9062 77.8278 11.7314 77.8278 11.5382C77.8278 11.3175 77.8737 11.1243 77.9657 10.9496C78.0669 10.7748 78.1957 10.6369 78.3612 10.5173C78.5268 10.3977 78.7199 10.3058 78.9407 10.2414C79.1706 10.177 79.4098 10.1402 79.6673 10.1402C80.0996 10.1402 80.4767 10.223 80.817 10.3977C81.1573 10.5633 81.4056 10.83 81.562 11.1979L80.5227 11.621C80.4399 11.4463 80.3111 11.3175 80.1456 11.2347C79.98 11.1519 79.8144 11.1152 79.6489 11.1152C79.4741 11.1152 79.327 11.1519 79.1982 11.2255C79.0694 11.2899 79.0051 11.3819 79.0051 11.4923C79.0051 11.5934 79.0602 11.6762 79.1614 11.7406C79.2718 11.805 79.4189 11.8602 79.6029 11.9062L80.2927 12.0717C80.7526 12.1821 81.0929 12.3568 81.3137 12.6052C81.5436 12.8443 81.654 13.1294 81.654 13.4606C81.654 13.6537 81.608 13.8469 81.516 14.0216C81.424 14.1964 81.2953 14.3619 81.1205 14.4999C80.955 14.6379 80.7526 14.739 80.5135 14.8218C80.2835 14.9046 80.0168 14.9414 79.7317 14.9414ZM75.5559 14.9414C75.2616 14.9414 74.9949 14.9046 74.7649 14.831C74.535 14.7574 74.3418 14.6655 74.1671 14.5459C74.0015 14.4263 73.8636 14.2883 73.744 14.132C73.6244 13.9756 73.5416 13.8101 73.4772 13.6537L74.5534 13.1938C74.6545 13.4238 74.7925 13.5985 74.9673 13.7181C75.142 13.8285 75.3444 13.8837 75.5559 13.8837C75.7767 13.8837 75.9514 13.8469 76.0802 13.7641C76.209 13.6813 76.2733 13.5893 76.2733 13.479C76.2733 13.3594 76.2182 13.2582 76.1078 13.1846C76.0066 13.1018 75.8227 13.0375 75.5559 12.9731L74.9213 12.8351C74.7833 12.8075 74.6362 12.7523 74.4798 12.688C74.3326 12.6236 74.1947 12.5316 74.0751 12.4304C73.9555 12.3292 73.8544 12.2005 73.7716 12.0533C73.6888 11.9062 73.652 11.7314 73.652 11.5382C73.652 11.3175 73.698 11.1243 73.79 10.9496C73.8911 10.7748 74.0199 10.6369 74.1855 10.5173C74.351 10.3977 74.5442 10.3058 74.7649 10.2414C74.9949 10.177 75.234 10.1402 75.4915 10.1402C75.9238 10.1402 76.3009 10.223 76.6413 10.3977C76.9816 10.5633 77.2299 10.83 77.3863 11.1979L76.3469 11.621C76.2641 11.4463 76.1354 11.3175 75.9698 11.2347C75.8043 11.1519 75.6387 11.1152 75.4731 11.1152C75.2984 11.1152 75.1512 11.1519 75.0225 11.2255C74.8937 11.2899 74.8293 11.3819 74.8293 11.4923C74.8293 11.5934 74.8845 11.6762 74.9857 11.7406C75.096 11.805 75.2432 11.8602 75.4272 11.9062L76.117 12.0717C76.5769 12.1821 76.9172 12.3568 77.1379 12.6052C77.3679 12.8443 77.4782 13.1294 77.4782 13.4606C77.4782 13.6537 77.4323 13.8469 77.3403 14.0216C77.2483 14.1964 77.1195 14.3619 76.9448 14.4999C76.7792 14.6379 76.5769 14.739 76.3377 14.8218C76.1078 14.9046 75.841 14.9414 75.5559 14.9414ZM71.7481 14.7942V10.2874H72.953V14.7942H71.7481ZM72.3459 9.63433C72.2448 9.63433 72.1436 9.61593 72.0424 9.57914C71.9504 9.53315 71.8677 9.47797 71.7941 9.41358C71.7297 9.34 71.6745 9.25722 71.6285 9.16524C71.5917 9.07327 71.5733 8.97209 71.5733 8.86172C71.5733 8.75135 71.5917 8.65017 71.6285 8.5582C71.6745 8.46622 71.7297 8.38344 71.7941 8.31906C71.8677 8.24548 71.9504 8.19029 72.0424 8.1535C72.1436 8.10751 72.2448 8.08912 72.3459 8.08912C72.5575 8.08912 72.7414 8.1627 72.8978 8.31906C73.0542 8.46622 73.1277 8.65017 73.1277 8.86172C73.1277 9.07327 73.0542 9.25722 72.8978 9.41358C72.7414 9.56074 72.5575 9.63433 72.3459 9.63433ZM63.8565 10.2874H64.9878V10.876H65.0614C65.1993 10.6553 65.3925 10.4805 65.6316 10.3425C65.88 10.2046 66.1467 10.1402 66.441 10.1402C66.7813 10.1402 67.0757 10.223 67.3056 10.3793C67.5356 10.5357 67.7011 10.738 67.8023 10.968C67.9403 10.738 68.1426 10.5449 68.4001 10.3885C68.6577 10.223 68.9704 10.1402 69.3383 10.1402C69.6142 10.1402 69.8534 10.1862 70.0557 10.2782C70.2581 10.3609 70.4236 10.4897 70.5524 10.6461C70.6904 10.8024 70.7915 10.9956 70.8559 11.2255C70.9203 11.4463 70.9571 11.6854 70.9571 11.9521V14.7942H69.7522V12.1729C69.7522 11.5566 69.5039 11.2531 68.998 11.2531C68.8416 11.2531 68.6945 11.2899 68.5749 11.3635C68.4553 11.4279 68.3449 11.529 68.2622 11.6486C68.1794 11.7682 68.115 11.9062 68.069 12.0717C68.023 12.2373 68.0046 12.412 68.0046 12.6052V14.7942H66.7997V12.1729C66.7997 11.5566 66.533 11.2531 66.0087 11.2531C65.8524 11.2531 65.7236 11.2899 65.604 11.3635C65.4845 11.4279 65.3925 11.529 65.3097 11.6486C65.2269 11.7682 65.1717 11.9062 65.1258 12.0717C65.0798 12.2373 65.0614 12.412 65.0614 12.6052V14.7942H63.8565V10.2874ZM56.0385 10.2874H57.1698V10.876H57.2434C57.3813 10.6553 57.5745 10.4805 57.8136 10.3425C58.0619 10.2046 58.3287 10.1402 58.623 10.1402C58.9633 10.1402 59.2576 10.223 59.4876 10.3793C59.7175 10.5357 59.8831 10.738 59.9843 10.968C60.1222 10.738 60.3246 10.5449 60.5821 10.3885C60.8396 10.223 61.1524 10.1402 61.5203 10.1402C61.7962 10.1402 62.0353 10.1862 62.2377 10.2782C62.44 10.3609 62.6056 10.4897 62.7344 10.6461C62.8723 10.8024 62.9735 10.9956 63.0379 11.2255C63.1023 11.4463 63.1391 11.6854 63.1391 11.9521V14.7942H61.9342V12.1729C61.9342 11.5566 61.6858 11.2531 61.18 11.2531C61.0236 11.2531 60.8764 11.2899 60.7569 11.3635C60.6373 11.4279 60.5269 11.529 60.4441 11.6486C60.3614 11.7682 60.297 11.9062 60.251 12.0717C60.205 12.2373 60.1866 12.412 60.1866 12.6052V14.7942H58.9817V12.1729C58.9817 11.5566 58.715 11.2531 58.1907 11.2531C58.0344 11.2531 57.9056 11.2899 57.786 11.3635C57.6664 11.4279 57.5745 11.529 57.4917 11.6486C57.4089 11.7682 57.3537 11.9062 57.3077 12.0717C57.2618 12.2373 57.2434 12.412 57.2434 12.6052V14.7942H56.0385V10.2874ZM53.2332 13.8285C53.3895 13.8285 53.5367 13.8009 53.6747 13.7457C53.8218 13.6813 53.9506 13.5985 54.061 13.4882C54.1713 13.3778 54.2541 13.2398 54.3185 13.0835C54.3829 12.9271 54.4197 12.7431 54.4197 12.5408C54.4197 12.3384 54.3829 12.1545 54.3185 11.9981C54.2541 11.8418 54.1713 11.7038 54.061 11.5934C53.9506 11.4831 53.8218 11.4003 53.6747 11.3451C53.5367 11.2807 53.3895 11.2531 53.2332 11.2531C53.0768 11.2531 52.9204 11.2807 52.7825 11.3451C52.6445 11.4003 52.5158 11.4831 52.4054 11.5934C52.295 11.7038 52.203 11.8418 52.1386 11.9981C52.0743 12.1545 52.0467 12.3384 52.0467 12.5408C52.0467 12.7431 52.0743 12.9271 52.1386 13.0835C52.203 13.2398 52.295 13.3778 52.4054 13.4882C52.5158 13.5985 52.6445 13.6813 52.7825 13.7457C52.9204 13.8009 53.0768 13.8285 53.2332 13.8285ZM53.2332 10.1402C53.5827 10.1402 53.9046 10.2046 54.1897 10.3242C54.4841 10.4437 54.7324 10.6093 54.9439 10.8208C55.1555 11.0324 55.321 11.2807 55.4406 11.575C55.5602 11.8694 55.6246 12.1913 55.6246 12.5408C55.6246 12.8903 55.5602 13.2122 55.4406 13.5065C55.321 13.8009 55.1555 14.0584 54.9439 14.27C54.7324 14.4815 54.4841 14.6471 54.1897 14.7666C53.9046 14.8862 53.5827 14.9414 53.2332 14.9414C52.8837 14.9414 52.5617 14.8862 52.2674 14.7666C51.9823 14.6471 51.7248 14.4815 51.5132 14.27C51.3017 14.0584 51.1361 13.8009 51.0165 13.5065C50.897 13.2122 50.8418 12.8903 50.8418 12.5408C50.8418 12.1913 50.897 11.8694 51.0165 11.575C51.1361 11.2807 51.3017 11.0324 51.5132 10.8208C51.7248 10.6093 51.9823 10.4437 52.2674 10.3242C52.5617 10.2046 52.8837 10.1402 53.2332 10.1402ZM50.713 13.7365C50.3911 14.132 50.0048 14.4263 49.5633 14.6379C49.1218 14.8402 48.6251 14.9414 48.0825 14.9414C47.595 14.9414 47.1351 14.8494 46.712 14.6747C46.2981 14.4999 45.9302 14.2516 45.6267 13.948C45.3232 13.6445 45.0748 13.2766 44.9001 12.8627C44.7253 12.4396 44.6333 11.9889 44.6333 11.5015C44.6333 11.014 44.7253 10.5633 44.9001 10.1494C45.0748 9.7263 45.3232 9.3584 45.6267 9.05487C45.9302 8.75135 46.2981 8.50301 46.712 8.32826C47.1351 8.1535 47.595 8.06152 48.0825 8.06152C48.6067 8.06152 49.0758 8.1535 49.4713 8.33745C49.876 8.52141 50.2347 8.78814 50.5475 9.13765L49.6737 9.98384C49.4805 9.7539 49.2506 9.57914 48.993 9.44117C48.7447 9.30321 48.4412 9.23883 48.0917 9.23883C47.7881 9.23883 47.4938 9.29401 47.2271 9.40438C46.9604 9.50556 46.7212 9.66192 46.5189 9.85507C46.3257 10.0482 46.1694 10.2874 46.0498 10.5725C45.9302 10.8484 45.875 11.1611 45.875 11.5015C45.875 11.8418 45.9302 12.1545 46.0498 12.4396C46.1694 12.7155 46.3257 12.9547 46.5189 13.1478C46.7212 13.341 46.9604 13.4973 47.2271 13.6077C47.4938 13.7089 47.7881 13.7641 48.0917 13.7641C48.4596 13.7641 48.7815 13.6905 49.0666 13.5433C49.3518 13.387 49.6093 13.1754 49.83 12.8995L50.713 13.7365ZM41.2762 14.7942V8.20869H42.4811V14.7942H41.2762ZM39.4091 12.9639C39.2711 12.8995 39.1239 12.8443 38.9676 12.8075C38.8204 12.7615 38.6549 12.7431 38.4801 12.7431C38.195 12.7431 37.965 12.8075 37.8087 12.9363C37.6523 13.0559 37.5787 13.2122 37.5787 13.3962C37.5787 13.5801 37.6523 13.7273 37.7995 13.8377C37.9558 13.948 38.1306 14.0032 38.3237 14.0032C38.4801 14.0032 38.6273 13.9756 38.7652 13.9204C38.9032 13.8561 39.0136 13.7825 39.1055 13.6905C39.2067 13.5893 39.2803 13.479 39.3263 13.3594C39.3815 13.2306 39.4091 13.1018 39.4091 12.9639ZM39.4091 14.3159H39.3355C39.1975 14.4907 39.0228 14.6379 38.8204 14.7574C38.6273 14.877 38.3697 14.9414 38.057 14.9414C37.8271 14.9414 37.6063 14.9046 37.3948 14.8218C37.1924 14.7482 37.0177 14.6471 36.8613 14.5091C36.705 14.3711 36.5854 14.2148 36.5026 14.0216C36.4198 13.8285 36.3738 13.6261 36.3738 13.3962C36.3738 13.1662 36.4198 12.9547 36.5118 12.7707C36.6038 12.5776 36.7325 12.4212 36.8981 12.2833C37.0637 12.1453 37.2568 12.0441 37.4776 11.9797C37.7075 11.9062 37.9466 11.8694 38.2134 11.8694C38.5077 11.8694 38.7468 11.897 38.94 11.9429C39.1331 11.9889 39.2895 12.0349 39.4091 12.0809V11.9429C39.4091 11.7038 39.3171 11.5107 39.1239 11.3543C38.9308 11.1979 38.7008 11.1152 38.4157 11.1152C38.0018 11.1152 37.6431 11.2899 37.358 11.6394L36.4842 11.0416C36.9625 10.4437 37.6155 10.1402 38.4433 10.1402C39.1423 10.1402 39.6758 10.3058 40.0437 10.6369C40.4116 10.9588 40.5956 11.4463 40.5956 12.0901V14.7942H39.4091V14.3159ZM33.3386 10.2874H34.4699V10.9128H34.5435C34.5987 10.8024 34.6723 10.7013 34.7642 10.6093C34.8562 10.5173 34.9574 10.4345 35.0678 10.3701C35.1873 10.3058 35.3069 10.2506 35.4357 10.2138C35.5736 10.177 35.7024 10.1586 35.8312 10.1586C35.9875 10.1586 36.1255 10.177 36.2359 10.2046C36.3554 10.2322 36.4474 10.2782 36.5302 10.3242L36.2083 11.4187C36.1347 11.3819 36.0519 11.3543 35.9599 11.3359C35.8772 11.3083 35.7668 11.2991 35.638 11.2991C35.4725 11.2991 35.3253 11.3359 35.1873 11.4003C35.0494 11.4647 34.939 11.5474 34.8378 11.667C34.7458 11.7866 34.6723 11.9245 34.6171 12.0809C34.5711 12.2373 34.5435 12.4028 34.5435 12.5868V14.7942H33.3386V10.2874ZM29.8711 10.2874H31.0024V10.9128H31.076C31.1312 10.8024 31.2047 10.7013 31.2967 10.6093C31.3887 10.5173 31.4899 10.4345 31.6002 10.3701C31.7198 10.3058 31.8394 10.2506 31.9682 10.2138C32.1061 10.177 32.2349 10.1586 32.3637 10.1586C32.52 10.1586 32.658 10.177 32.7683 10.2046C32.8879 10.2322 32.9799 10.2782 33.0627 10.3242L32.7408 11.4187C32.6672 11.3819 32.5844 11.3543 32.4924 11.3359C32.4096 11.3083 32.2993 11.2991 32.1705 11.2991C32.0049 11.2991 31.8578 11.3359 31.7198 11.4003C31.5818 11.4647 31.4715 11.5474 31.3703 11.667C31.2783 11.7866 31.2047 11.9245 31.1496 12.0809C31.1036 12.2373 31.076 12.4028 31.076 12.5868V14.7942H29.8711V10.2874ZM28.2063 11.9613C28.1971 11.8786 28.1695 11.7958 28.1235 11.6946C28.0775 11.5934 28.0131 11.5015 27.9212 11.4187C27.8384 11.3359 27.728 11.2623 27.5901 11.2071C27.4613 11.1519 27.3049 11.1243 27.121 11.1243C26.8634 11.1243 26.6335 11.1979 26.4403 11.3451C26.2472 11.4923 26.1092 11.6946 26.0265 11.9613H28.2063ZM29.3008 13.7089C29.0893 14.0768 28.8133 14.3711 28.4546 14.6011C28.1051 14.831 27.6728 14.9414 27.167 14.9414C26.8267 14.9414 26.5047 14.8862 26.2104 14.7666C25.9253 14.6471 25.6677 14.4723 25.4562 14.2608C25.2446 14.0492 25.0699 13.7917 24.9503 13.5065C24.8308 13.2122 24.7756 12.8903 24.7756 12.5408C24.7756 12.2189 24.8308 11.9062 24.9503 11.621C25.0699 11.3267 25.2263 11.0692 25.4378 10.8576C25.6493 10.6369 25.8885 10.4621 26.1736 10.3333C26.4587 10.2046 26.7807 10.1402 27.121 10.1402C27.4797 10.1402 27.8016 10.2046 28.0867 10.3242C28.3719 10.4437 28.6018 10.6093 28.795 10.8208C28.9881 11.0324 29.1261 11.2807 29.2272 11.5658C29.3284 11.851 29.3744 12.1637 29.3744 12.504C29.3744 12.55 29.3744 12.5868 29.3744 12.6144C29.3652 12.6512 29.3652 12.688 29.3652 12.7155C29.356 12.7431 29.356 12.7799 29.356 12.8167H25.9621C25.9897 13.0007 26.0356 13.157 26.1092 13.295C26.192 13.4238 26.284 13.5341 26.3944 13.6261C26.5139 13.7089 26.6335 13.7733 26.7715 13.8193C26.9094 13.8561 27.0474 13.8745 27.1854 13.8745C27.4613 13.8745 27.6912 13.8101 27.866 13.6905C28.0499 13.5617 28.1971 13.4054 28.2983 13.2122L29.3008 13.7089ZM24.1593 8.1351C24.3341 8.1351 24.4904 8.1535 24.6376 8.18109C24.7848 8.20869 24.9135 8.25467 25.0331 8.30066L24.6928 9.37679C24.6284 9.3492 24.564 9.3216 24.4904 9.30321C24.4261 9.28481 24.3341 9.27562 24.2329 9.27562C24.0582 9.27562 23.911 9.3308 23.8098 9.45037C23.7086 9.56074 23.6535 9.7171 23.6535 9.91945V10.2874H24.7756V11.3175H23.6535V14.7942H22.4486V11.3175H21.6392V10.2874H22.4486V9.84587C22.4486 9.56994 22.4853 9.3308 22.5681 9.11926C22.6509 8.90771 22.7705 8.72376 22.9268 8.58579C23.0832 8.43863 23.258 8.32826 23.4695 8.25467C23.681 8.1719 23.911 8.1351 24.1593 8.1351ZM20.3607 11.9613C20.3515 11.8786 20.3239 11.7958 20.2779 11.6946C20.2319 11.5934 20.1675 11.5015 20.0756 11.4187C19.9928 11.3359 19.8824 11.2623 19.7444 11.2071C19.6157 11.1519 19.4593 11.1243 19.2754 11.1243C19.0178 11.1243 18.7879 11.1979 18.5947 11.3451C18.4016 11.4923 18.2636 11.6946 18.1808 11.9613H20.3607ZM21.4552 13.7089C21.2437 14.0768 20.9677 14.3711 20.609 14.6011C20.2595 14.831 19.8272 14.9414 19.3213 14.9414C18.981 14.9414 18.6591 14.8862 18.3648 14.7666C18.0797 14.6471 17.8221 14.4723 17.6106 14.2608C17.399 14.0492 17.2243 13.7917 17.1047 13.5065C16.9851 13.2122 16.93 12.8903 16.93 12.5408C16.93 12.2189 16.9851 11.9062 17.1047 11.621C17.2243 11.3267 17.3806 11.0692 17.5922 10.8576C17.8037 10.6369 18.0429 10.4621 18.328 10.3333C18.6131 10.2046 18.935 10.1402 19.2754 10.1402C19.6341 10.1402 19.956 10.2046 20.2411 10.3242C20.5262 10.4437 20.7562 10.6093 20.9493 10.8208C21.1425 11.0324 21.2805 11.2807 21.3816 11.5658C21.4828 11.851 21.5288 12.1637 21.5288 12.504C21.5288 12.55 21.5288 12.5868 21.5288 12.6144C21.5196 12.6512 21.5196 12.688 21.5196 12.7155C21.5104 12.7431 21.5104 12.7799 21.5104 12.8167H18.1165C18.144 13.0007 18.19 13.157 18.2636 13.295C18.3464 13.4238 18.4384 13.5341 18.5487 13.6261C18.6683 13.7089 18.7879 13.7733 18.9258 13.8193C19.0638 13.8561 19.2018 13.8745 19.3397 13.8745C19.6157 13.8745 19.8456 13.8101 20.0204 13.6905C20.2043 13.5617 20.3515 13.4054 20.4527 13.2122L21.4552 13.7089ZM14.3914 11.1795C14.6765 11.1795 14.9065 11.0968 15.0812 10.922C15.2652 10.7472 15.3572 10.5357 15.3572 10.269C15.3572 10.1494 15.3388 10.039 15.2928 9.92865C15.256 9.81828 15.2008 9.7171 15.118 9.63433C15.0352 9.55155 14.9341 9.47797 14.8145 9.43198C14.6949 9.37679 14.5662 9.3492 14.4098 9.3492H13.2417V11.1795H14.3914ZM12 8.20869H14.4006C14.7317 8.20869 15.0352 8.26387 15.302 8.36505C15.5687 8.46622 15.7986 8.61338 15.9918 8.79734C16.1849 8.98129 16.3413 9.20204 16.4425 9.45957C16.5437 9.70791 16.5988 9.98384 16.5988 10.2874C16.5988 10.5081 16.562 10.7197 16.4885 10.9128C16.4149 11.106 16.3137 11.2807 16.1849 11.4371C16.0562 11.5934 15.909 11.7314 15.7343 11.851C15.5595 11.9705 15.3847 12.0625 15.1916 12.1269L15.1824 12.1913L16.9483 14.7206V14.7942H15.5227L13.8211 12.32H13.2417V14.7942H12V8.20869Z" fill="black"/>
<path d="M13.321 23L12.1278 18.6364H12.6648L13.5767 22.1903H13.6193L14.5483 18.6364H15.1449L16.0739 22.1903H16.1165L17.0284 18.6364H17.5653L16.3722 23H15.8267L14.8636 19.5227H14.8295L13.8665 23H13.321ZM19.223 23.0682C18.9077 23.0682 18.6357 22.9986 18.407 22.8594C18.1797 22.7188 18.0043 22.5227 17.8807 22.2713C17.7585 22.0185 17.6974 21.7244 17.6974 21.3892C17.6974 21.054 17.7585 20.7585 17.8807 20.5028C18.0043 20.2457 18.1761 20.0455 18.3963 19.902C18.6179 19.7571 18.8764 19.6847 19.1719 19.6847C19.3423 19.6847 19.5107 19.7131 19.6768 19.7699C19.843 19.8267 19.9943 19.919 20.1307 20.0469C20.267 20.1733 20.3757 20.3409 20.4567 20.5497C20.5376 20.7585 20.5781 21.0156 20.5781 21.321V21.5341H18.0554V21.0994H20.0668C20.0668 20.9148 20.0298 20.75 19.956 20.6051C19.8835 20.4602 19.7798 20.3459 19.6449 20.2621C19.5114 20.1783 19.3537 20.1364 19.1719 20.1364C18.9716 20.1364 18.7983 20.1861 18.652 20.2855C18.5071 20.3835 18.3956 20.5114 18.3175 20.669C18.2393 20.8267 18.2003 20.9957 18.2003 21.1761V21.4659C18.2003 21.7131 18.2429 21.9226 18.3281 22.0945C18.4148 22.2649 18.5348 22.3949 18.6882 22.4844C18.8416 22.5724 19.0199 22.6165 19.223 22.6165C19.3551 22.6165 19.4744 22.598 19.581 22.5611C19.6889 22.5227 19.782 22.4659 19.8601 22.3906C19.9382 22.3139 19.9986 22.2187 20.0412 22.1051L20.527 22.2415C20.4759 22.4062 20.3899 22.5511 20.2692 22.6761C20.1484 22.7997 19.9993 22.8963 19.8217 22.9659C19.6442 23.0341 19.4446 23.0682 19.223 23.0682ZM21.4112 23V18.6364H21.9141V20.2472H21.9567C21.9936 20.1903 22.0447 20.1179 22.1101 20.0298C22.1768 19.9403 22.272 19.8608 22.3956 19.7912C22.5206 19.7202 22.6896 19.6847 22.9027 19.6847C23.1783 19.6847 23.4212 19.7536 23.6314 19.8913C23.8416 20.0291 24.0057 20.2244 24.1236 20.4773C24.2415 20.7301 24.3004 21.0284 24.3004 21.3722C24.3004 21.7188 24.2415 22.0192 24.1236 22.2734C24.0057 22.5263 23.8423 22.7223 23.6335 22.8615C23.4247 22.9993 23.1839 23.0682 22.9112 23.0682C22.701 23.0682 22.5327 23.0334 22.4062 22.9638C22.2798 22.8928 22.1825 22.8125 22.1143 22.723C22.0462 22.6321 21.9936 22.5568 21.9567 22.4972H21.897V23H21.4112ZM21.9055 21.3636C21.9055 21.6108 21.9418 21.8288 22.0142 22.0178C22.0866 22.2053 22.1925 22.3523 22.3317 22.4588C22.4709 22.5639 22.6413 22.6165 22.843 22.6165C23.0533 22.6165 23.2287 22.5611 23.3693 22.4503C23.5114 22.3381 23.6179 22.1875 23.6889 21.9986C23.7614 21.8082 23.7976 21.5966 23.7976 21.3636C23.7976 21.1335 23.7621 20.9261 23.6911 20.7415C23.6214 20.5554 23.5156 20.4084 23.3736 20.3004C23.233 20.1911 23.0561 20.1364 22.843 20.1364C22.6385 20.1364 22.4666 20.1882 22.3274 20.2919C22.1882 20.3942 22.0831 20.5376 22.0121 20.7223C21.9411 20.9055 21.9055 21.1193 21.9055 21.3636ZM28.1719 23H26.8253V18.6364H28.2315C28.6548 18.6364 29.017 18.7237 29.3182 18.8984C29.6193 19.0717 29.8501 19.321 30.0107 19.6463C30.1712 19.9702 30.2514 20.358 30.2514 20.8097C30.2514 21.2642 30.1705 21.6555 30.0085 21.9837C29.8466 22.3104 29.6108 22.5618 29.3011 22.7379C28.9915 22.9126 28.6151 23 28.1719 23ZM27.3537 22.5312H28.1378C28.4986 22.5312 28.7976 22.4616 29.0348 22.3224C29.272 22.1832 29.4489 21.9851 29.5653 21.728C29.6818 21.4709 29.7401 21.1648 29.7401 20.8097C29.7401 20.4574 29.6825 20.1541 29.5675 19.8999C29.4524 19.6442 29.2805 19.4482 29.0518 19.3118C28.8232 19.174 28.5384 19.1051 28.1974 19.1051H27.3537V22.5312ZM32.4418 23.0682C32.1264 23.0682 31.8544 22.9986 31.6257 22.8594C31.3984 22.7188 31.223 22.5227 31.0994 22.2713C30.9773 22.0185 30.9162 21.7244 30.9162 21.3892C30.9162 21.054 30.9773 20.7585 31.0994 20.5028C31.223 20.2457 31.3949 20.0455 31.6151 19.902C31.8366 19.7571 32.0952 19.6847 32.3906 19.6847C32.5611 19.6847 32.7294 19.7131 32.8956 19.7699C33.0618 19.8267 33.2131 19.919 33.3494 20.0469C33.4858 20.1733 33.5945 20.3409 33.6754 20.5497C33.7564 20.7585 33.7969 21.0156 33.7969 21.321V21.5341H31.2741V21.0994H33.2855C33.2855 20.9148 33.2486 20.75 33.1747 20.6051C33.1023 20.4602 32.9986 20.3459 32.8636 20.2621C32.7301 20.1783 32.5724 20.1364 32.3906 20.1364C32.1903 20.1364 32.017 20.1861 31.8707 20.2855C31.7259 20.3835 31.6143 20.5114 31.5362 20.669C31.4581 20.8267 31.419 20.9957 31.419 21.1761V21.4659C31.419 21.7131 31.4616 21.9226 31.5469 22.0945C31.6335 22.2649 31.7536 22.3949 31.907 22.4844C32.0604 22.5724 32.2386 22.6165 32.4418 22.6165C32.5739 22.6165 32.6932 22.598 32.7997 22.5611C32.9077 22.5227 33.0007 22.4659 33.0788 22.3906C33.157 22.3139 33.2173 22.2187 33.2599 22.1051L33.7457 22.2415C33.6946 22.4062 33.6087 22.5511 33.4879 22.6761C33.3672 22.7997 33.218 22.8963 33.0405 22.9659C32.8629 23.0341 32.6634 23.0682 32.4418 23.0682ZM36.88 20.4602L36.4283 20.5881C36.3999 20.5128 36.358 20.4396 36.3026 20.3686C36.2486 20.2962 36.1747 20.2365 36.081 20.1896C35.9872 20.1428 35.8672 20.1193 35.7209 20.1193C35.5206 20.1193 35.3537 20.1655 35.2202 20.2578C35.0881 20.3487 35.022 20.4645 35.022 20.6051C35.022 20.7301 35.0675 20.8288 35.1584 20.9013C35.2493 20.9737 35.3913 21.0341 35.5845 21.0824L36.0703 21.2017C36.3629 21.2727 36.581 21.3814 36.7244 21.5277C36.8679 21.6726 36.9396 21.8594 36.9396 22.0881C36.9396 22.2756 36.8857 22.4432 36.7777 22.5909C36.6712 22.7386 36.522 22.8551 36.3303 22.9403C36.1385 23.0256 35.9155 23.0682 35.6612 23.0682C35.3274 23.0682 35.0511 22.9957 34.8324 22.8509C34.6136 22.706 34.4751 22.4943 34.4169 22.2159L34.8942 22.0966C34.9396 22.2727 35.0256 22.4048 35.152 22.4929C35.2798 22.581 35.4467 22.625 35.6527 22.625C35.8871 22.625 36.0732 22.5753 36.2109 22.4759C36.3501 22.375 36.4197 22.2543 36.4197 22.1136C36.4197 22 36.38 21.9048 36.3004 21.8281C36.2209 21.75 36.0987 21.6918 35.9339 21.6534L35.3885 21.5256C35.0888 21.4545 34.8686 21.3445 34.728 21.1953C34.5888 21.0447 34.5192 20.8565 34.5192 20.6307C34.5192 20.446 34.571 20.2827 34.6747 20.1406C34.7798 19.9986 34.9226 19.8871 35.103 19.8061C35.2848 19.7251 35.4908 19.6847 35.7209 19.6847C36.0447 19.6847 36.299 19.7557 36.4837 19.8977C36.6697 20.0398 36.8018 20.2273 36.88 20.4602ZM37.6966 23V19.7273H38.1994V23H37.6966ZM37.9522 19.1818C37.8542 19.1818 37.7697 19.1484 37.6987 19.0817C37.6291 19.0149 37.5943 18.9347 37.5943 18.8409C37.5943 18.7472 37.6291 18.6669 37.6987 18.6001C37.7697 18.5334 37.8542 18.5 37.9522 18.5C38.0502 18.5 38.1341 18.5334 38.2037 18.6001C38.2747 18.6669 38.3102 18.7472 38.3102 18.8409C38.3102 18.9347 38.2747 19.0149 38.2037 19.0817C38.1341 19.1484 38.0502 19.1818 37.9522 19.1818ZM40.4414 24.2955C40.1985 24.2955 39.9897 24.2642 39.815 24.2017C39.6403 24.1406 39.4947 24.0597 39.3782 23.9588C39.2631 23.8594 39.1715 23.7528 39.1033 23.6392L39.5039 23.358C39.5494 23.4176 39.6069 23.4858 39.6765 23.5625C39.7461 23.6406 39.8413 23.7081 39.962 23.7649C40.0842 23.8232 40.244 23.8523 40.4414 23.8523C40.7056 23.8523 40.9237 23.7884 41.0955 23.6605C41.2674 23.5327 41.3533 23.3324 41.3533 23.0597V22.3949H41.3107C41.2738 22.4545 41.2212 22.5284 41.1531 22.6165C41.0863 22.7031 40.9897 22.7805 40.8633 22.8487C40.7383 22.9155 40.5692 22.9489 40.3562 22.9489C40.092 22.9489 39.8548 22.8864 39.6445 22.7614C39.4357 22.6364 39.2702 22.4545 39.1481 22.2159C39.0273 21.9773 38.967 21.6875 38.967 21.3466C38.967 21.0114 39.0259 20.7195 39.1438 20.4709C39.2617 20.2209 39.4258 20.0277 39.636 19.8913C39.8462 19.7536 40.0891 19.6847 40.3647 19.6847C40.5778 19.6847 40.7468 19.7202 40.8718 19.7912C40.9982 19.8608 41.0948 19.9403 41.1616 20.0298C41.2298 20.1179 41.2823 20.1903 41.3192 20.2472H41.3704V19.7273H41.8562V23.0938C41.8562 23.375 41.7923 23.6037 41.6644 23.7798C41.538 23.9574 41.3675 24.0874 41.1531 24.1697C40.94 24.2536 40.7028 24.2955 40.4414 24.2955ZM40.4244 22.4972C40.6261 22.4972 40.7965 22.451 40.9357 22.3587C41.0749 22.2663 41.1808 22.1335 41.2532 21.9602C41.3256 21.7869 41.3619 21.5795 41.3619 21.3381C41.3619 21.1023 41.3263 20.8942 41.2553 20.7138C41.1843 20.5334 41.0792 20.392 40.94 20.2898C40.8008 20.1875 40.6289 20.1364 40.4244 20.1364C40.2113 20.1364 40.0337 20.1903 39.8917 20.2983C39.7511 20.4062 39.6452 20.5511 39.5742 20.733C39.5046 20.9148 39.4698 21.1165 39.4698 21.3381C39.4698 21.5653 39.5053 21.7663 39.5763 21.9411C39.6488 22.1143 39.7553 22.2507 39.896 22.3501C40.038 22.4482 40.2141 22.4972 40.4244 22.4972ZM43.2795 21.0312V23H42.7766V19.7273H43.2624V20.2386H43.305C43.3817 20.0724 43.4982 19.9389 43.6545 19.8381C43.8107 19.7358 44.0124 19.6847 44.2596 19.6847C44.4812 19.6847 44.6751 19.7301 44.8413 19.821C45.0075 19.9105 45.1367 20.0469 45.229 20.2301C45.3214 20.4119 45.3675 20.642 45.3675 20.9205V23H44.8647V20.9545C44.8647 20.6974 44.7979 20.4972 44.6644 20.3537C44.5309 20.2088 44.3477 20.1364 44.1147 20.1364C43.9542 20.1364 43.8107 20.1712 43.6843 20.2408C43.5593 20.3104 43.4606 20.4119 43.3881 20.5455C43.3157 20.679 43.2795 20.8409 43.2795 21.0312Z" fill="#090D06"/>
</svg>