<svg xmlns:xlink="http://www.w3.org/1999/xlink" xmlns="http://www.w3.org/2000/svg" width="92" height="17" viewBox="0 0 92 17" fill="none">
<path d="M8 13.3038L12.944 16.4448L11.632 10.5248L16 6.54167L10.248 6.02798L8 0.444824L5.752 6.02798L0 6.54167L4.368 10.5248L3.056 16.4448L8 13.3038Z" fill="#F0FF3E"/>
<path d="M27 13.3038L31.944 16.4448L30.632 10.5248L35 6.54167L29.248 6.02798L27 0.444824L24.752 6.02798L19 6.54167L23.368 10.5248L22.056 16.4448L27 13.3038Z" fill="#F0FF3E"/>
<path d="M46 13.3038L50.944 16.4448L49.632 10.5248L54 6.54167L48.248 6.02798L46 0.444824L43.752 6.02798L38 6.54167L42.368 10.5248L41.056 16.4448L46 13.3038Z" fill="#F0FF3E"/>
<path d="M65 13.3038L69.944 16.4448L68.632 10.5248L73 6.54167L67.248 6.02798L65 0.444824L62.752 6.02798L57 6.54167L61.368 10.5248L60.056 16.4448L65 13.3038Z" fill="#F0FF3E"/>
<path d="M92 6.54167L86.248 6.01956L84 0.444824L81.752 6.02798L76 6.54167L80.368 10.5248L79.056 16.4448L84 13.3038L88.944 16.4448L87.64 10.5248L92 6.54167ZM84 11.729V3.89746L85.368 7.29956L88.872 7.61956L86.216 10.0448L87.016 13.649L84 11.729Z" fill="#F0FF3E"/>
</svg>