<svg xmlns:xlink="http://www.w3.org/1999/xlink" xmlns="http://www.w3.org/2000/svg" width="228" height="40" viewBox="0 0 228 40" fill="none">
<g filter="url(#filter0_bi_39_240)">
<rect width="228" height="40" rx="10" fill="#F8F8F8" fill-opacity="0.01"/>
<rect x="0.75" y="0.75" width="226.5" height="38.5" rx="9.25" stroke="url(#paint0_linear_39_240)" stroke-opacity="0.25" stroke-width="1.5"/>
<g filter="url(#filter1_bi_39_240)">
<rect x="4" y="4" width="157" height="32" rx="8" fill="white" fill-opacity="0.05"/>
<rect x="4.75" y="4.75" width="155.5" height="30.5" rx="7.25" stroke="url(#paint1_linear_39_240)" stroke-opacity="0.25" stroke-width="1.5"/>
<path opacity="0.5" d="M17.188 24C17.1 24 17.028 23.972 16.972 23.916C16.916 23.86 16.888 23.788 16.888 23.7V15.9C16.888 15.812 16.916 15.74 16.972 15.684C17.028 15.628 17.1 15.6 17.188 15.6H20.2C21 15.6 21.668 15.728 22.204 15.984C22.74 16.232 23.148 16.6 23.428 17.088C23.716 17.568 23.868 18.164 23.884 18.876C23.892 19.228 23.896 19.536 23.896 19.8C23.896 20.064 23.892 20.368 23.884 20.712C23.86 21.456 23.712 22.072 23.44 22.56C23.168 23.048 22.768 23.412 22.24 23.652C21.712 23.884 21.052 24 20.26 24H17.188ZM18.796 22.452H20.2C20.6 22.452 20.928 22.392 21.184 22.272C21.44 22.152 21.628 21.964 21.748 21.708C21.876 21.444 21.944 21.104 21.952 20.688C21.96 20.456 21.964 20.248 21.964 20.064C21.972 19.88 21.972 19.696 21.964 19.512C21.964 19.328 21.96 19.124 21.952 18.9C21.936 18.3 21.78 17.86 21.484 17.58C21.196 17.292 20.748 17.148 20.14 17.148H18.796V22.452ZM28.0478 24.12C27.1278 24.12 26.3958 23.864 25.8518 23.352C25.3158 22.84 25.0318 22.096 24.9998 21.12C24.9998 21.056 24.9998 20.972 24.9998 20.868C24.9998 20.756 24.9998 20.668 24.9998 20.604C25.0318 19.988 25.1718 19.46 25.4198 19.02C25.6678 18.572 26.0158 18.232 26.4638 18C26.9118 17.76 27.4358 17.64 28.0358 17.64C28.7078 17.64 29.2678 17.78 29.7158 18.06C30.1718 18.332 30.5118 18.708 30.7358 19.188C30.9678 19.66 31.0838 20.204 31.0838 20.82V21.096C31.0838 21.176 31.0518 21.244 30.9878 21.3C30.9318 21.356 30.8638 21.384 30.7838 21.384H26.8598C26.8598 21.392 26.8598 21.408 26.8598 21.432C26.8598 21.448 26.8598 21.464 26.8598 21.48C26.8678 21.736 26.9158 21.972 27.0038 22.188C27.0998 22.396 27.2318 22.564 27.3998 22.692C27.5758 22.82 27.7838 22.884 28.0238 22.884C28.2238 22.884 28.3878 22.856 28.5158 22.8C28.6438 22.744 28.7478 22.676 28.8278 22.596C28.9158 22.516 28.9798 22.448 29.0198 22.392C29.0918 22.312 29.1478 22.264 29.1878 22.248C29.2358 22.224 29.3078 22.212 29.4038 22.212H30.6518C30.7318 22.212 30.7958 22.236 30.8438 22.284C30.8998 22.324 30.9238 22.384 30.9158 22.464C30.9078 22.592 30.8398 22.752 30.7118 22.944C30.5918 23.128 30.4118 23.312 30.1718 23.496C29.9318 23.672 29.6318 23.82 29.2718 23.94C28.9198 24.06 28.5118 24.12 28.0478 24.12ZM26.8598 20.292H29.2118V20.268C29.2118 19.98 29.1638 19.732 29.0678 19.524C28.9798 19.308 28.8478 19.14 28.6718 19.02C28.4958 18.9 28.2838 18.84 28.0358 18.84C27.7878 18.84 27.5758 18.9 27.3998 19.02C27.2238 19.14 27.0878 19.308 26.9918 19.524C26.9038 19.732 26.8598 19.98 26.8598 20.268V20.292ZM34.7433 24.12C34.2473 24.12 33.8193 24.064 33.4593 23.952C33.1073 23.832 32.8193 23.688 32.5953 23.52C32.3793 23.352 32.2153 23.184 32.1033 23.016C31.9993 22.84 31.9433 22.692 31.9353 22.572C31.9273 22.484 31.9553 22.412 32.0193 22.356C32.0833 22.3 32.1473 22.272 32.2113 22.272H33.3753C33.3993 22.272 33.4233 22.276 33.4473 22.284C33.4713 22.292 33.4953 22.312 33.5193 22.344C33.6233 22.416 33.7313 22.5 33.8433 22.596C33.9553 22.684 34.0833 22.76 34.2273 22.824C34.3793 22.888 34.5673 22.92 34.7913 22.92C35.0553 22.92 35.2793 22.868 35.4633 22.764C35.6473 22.652 35.7393 22.496 35.7393 22.296C35.7393 22.152 35.6953 22.032 35.6073 21.936C35.5273 21.84 35.3713 21.752 35.1393 21.672C34.9073 21.592 34.5633 21.504 34.1073 21.408C33.6753 21.312 33.3073 21.184 33.0033 21.024C32.6993 20.864 32.4713 20.664 32.3193 20.424C32.1673 20.176 32.0913 19.88 32.0913 19.536C32.0913 19.224 32.1873 18.924 32.3793 18.636C32.5793 18.348 32.8713 18.112 33.2553 17.928C33.6393 17.736 34.1193 17.64 34.6953 17.64C35.1353 17.64 35.5193 17.696 35.8473 17.808C36.1833 17.912 36.4633 18.048 36.6873 18.216C36.9113 18.376 37.0793 18.544 37.1913 18.72C37.3113 18.888 37.3753 19.036 37.3833 19.164C37.3913 19.244 37.3673 19.312 37.3113 19.368C37.2553 19.424 37.1913 19.452 37.1193 19.452H36.0513C36.0113 19.452 35.9753 19.448 35.9433 19.44C35.9113 19.424 35.8833 19.404 35.8593 19.38C35.7633 19.316 35.6633 19.244 35.5593 19.164C35.4633 19.076 35.3473 19 35.2113 18.936C35.0753 18.872 34.8993 18.84 34.6833 18.84C34.4193 18.84 34.2153 18.9 34.0713 19.02C33.9353 19.132 33.8673 19.276 33.8673 19.452C33.8673 19.564 33.9033 19.668 33.9753 19.764C34.0473 19.86 34.1953 19.948 34.4193 20.028C34.6433 20.108 34.9833 20.192 35.4393 20.28C35.9833 20.376 36.4153 20.52 36.7353 20.712C37.0553 20.904 37.2833 21.128 37.4193 21.384C37.5633 21.632 37.6353 21.9 37.6353 22.188C37.6353 22.564 37.5233 22.9 37.2993 23.196C37.0753 23.484 36.7473 23.712 36.3153 23.88C35.8913 24.04 35.3673 24.12 34.7433 24.12ZM39.0753 24C38.9953 24 38.9273 23.972 38.8713 23.916C38.8153 23.86 38.7873 23.788 38.7873 23.7V18.06C38.7873 17.972 38.8153 17.9 38.8713 17.844C38.9273 17.788 38.9953 17.76 39.0753 17.76H40.2753C40.3633 17.76 40.4353 17.788 40.4913 17.844C40.5473 17.9 40.5753 17.972 40.5753 18.06V23.7C40.5753 23.788 40.5473 23.86 40.4913 23.916C40.4353 23.972 40.3633 24 40.2753 24H39.0753ZM39.0393 16.8C38.9593 16.8 38.8913 16.772 38.8353 16.716C38.7793 16.66 38.7513 16.588 38.7513 16.5V15.54C38.7513 15.452 38.7793 15.38 38.8353 15.324C38.8913 15.26 38.9593 15.228 39.0393 15.228H40.2993C40.3873 15.228 40.4593 15.26 40.5153 15.324C40.5793 15.38 40.6113 15.452 40.6113 15.54V16.5C40.6113 16.588 40.5793 16.66 40.5153 16.716C40.4593 16.772 40.3873 16.8 40.2993 16.8H39.0393ZM45.0082 26.64C44.4162 26.64 43.9242 26.56 43.5322 26.4C43.1402 26.248 42.8282 26.06 42.5962 25.836C42.3722 25.62 42.2122 25.404 42.1162 25.188C42.0202 24.972 41.9682 24.804 41.9602 24.684C41.9522 24.596 41.9802 24.524 42.0442 24.468C42.1082 24.412 42.1802 24.384 42.2602 24.384H43.5442C43.6162 24.384 43.6762 24.4 43.7242 24.432C43.7802 24.472 43.8242 24.536 43.8562 24.624C43.8962 24.72 43.9522 24.82 44.0242 24.924C44.0962 25.036 44.2042 25.128 44.3482 25.2C44.5002 25.272 44.7002 25.308 44.9482 25.308C45.2282 25.308 45.4602 25.268 45.6442 25.188C45.8282 25.108 45.9642 24.972 46.0522 24.78C46.1482 24.588 46.1962 24.328 46.1962 24V23.196C46.0042 23.404 45.7602 23.576 45.4642 23.712C45.1762 23.848 44.8202 23.916 44.3962 23.916C43.9802 23.916 43.6122 23.852 43.2922 23.724C42.9802 23.588 42.7202 23.4 42.5122 23.16C42.3042 22.912 42.1442 22.616 42.0322 22.272C41.9202 21.928 41.8562 21.54 41.8402 21.108C41.8322 20.892 41.8322 20.68 41.8402 20.472C41.8562 20.056 41.9202 19.676 42.0322 19.332C42.1442 18.988 42.3042 18.692 42.5122 18.444C42.7202 18.188 42.9802 17.992 43.2922 17.856C43.6122 17.712 43.9802 17.64 44.3962 17.64C44.8362 17.64 45.2122 17.724 45.5242 17.892C45.8362 18.06 46.0922 18.268 46.2922 18.516V18.06C46.2922 17.98 46.3202 17.912 46.3762 17.856C46.4322 17.792 46.5002 17.76 46.5802 17.76H47.7562C47.8362 17.76 47.9042 17.792 47.9602 17.856C48.0242 17.912 48.0562 17.98 48.0562 18.06L48.0682 23.832C48.0682 24.432 47.9522 24.94 47.7202 25.356C47.4882 25.772 47.1442 26.088 46.6882 26.304C46.2402 26.528 45.6802 26.64 45.0082 26.64ZM44.9482 22.512C45.2362 22.512 45.4682 22.448 45.6442 22.32C45.8282 22.184 45.9642 22.016 46.0522 21.816C46.1402 21.608 46.1882 21.392 46.1962 21.168C46.2042 21.08 46.2082 20.956 46.2082 20.796C46.2082 20.628 46.2042 20.5 46.1962 20.412C46.1882 20.188 46.1402 19.976 46.0522 19.776C45.9642 19.568 45.8282 19.4 45.6442 19.272C45.4682 19.144 45.2362 19.08 44.9482 19.08C44.6442 19.08 44.4042 19.148 44.2282 19.284C44.0522 19.412 43.9242 19.584 43.8442 19.8C43.7642 20.016 43.7162 20.252 43.7002 20.508C43.6922 20.7 43.6922 20.888 43.7002 21.072C43.7162 21.336 43.7642 21.576 43.8442 21.792C43.9242 22.008 44.0522 22.184 44.2282 22.32C44.4042 22.448 44.6442 22.512 44.9482 22.512ZM49.8682 24C49.7882 24 49.7202 23.972 49.6642 23.916C49.6082 23.86 49.5802 23.788 49.5802 23.7V18.06C49.5802 17.972 49.6082 17.9 49.6642 17.844C49.7202 17.788 49.7882 17.76 49.8682 17.76H51.0442C51.1322 17.76 51.2042 17.788 51.2602 17.844C51.3162 17.9 51.3442 17.972 51.3442 18.06V18.528C51.5522 18.272 51.8202 18.06 52.1482 17.892C52.4762 17.724 52.8762 17.64 53.3482 17.64C53.8202 17.64 54.2322 17.748 54.5842 17.964C54.9442 18.172 55.2242 18.48 55.4242 18.888C55.6322 19.288 55.7362 19.776 55.7362 20.352V23.7C55.7362 23.788 55.7042 23.86 55.6402 23.916C55.5842 23.972 55.5162 24 55.4362 24H54.1642C54.0762 24 54.0042 23.972 53.9482 23.916C53.8922 23.86 53.8642 23.788 53.8642 23.7V20.424C53.8642 20 53.7602 19.672 53.5522 19.44C53.3522 19.2 53.0562 19.08 52.6642 19.08C52.2882 19.08 51.9882 19.2 51.7642 19.44C51.5402 19.672 51.4282 20 51.4282 20.424V23.7C51.4282 23.788 51.4002 23.86 51.3442 23.916C51.2882 23.972 51.2202 24 51.1402 24H49.8682ZM62.6184 24.12C62.0184 24.12 61.4944 24.024 61.0464 23.832C60.5984 23.632 60.2504 23.348 60.0024 22.98C59.7544 22.612 59.6304 22.18 59.6304 21.684C59.6304 21.332 59.6984 21.02 59.8344 20.748C59.9784 20.476 60.1744 20.232 60.4224 20.016C60.6704 19.792 60.9544 19.588 61.2744 19.404C60.9464 19.052 60.7104 18.732 60.5664 18.444C60.4304 18.156 60.3624 17.86 60.3624 17.556C60.3624 17.188 60.4584 16.848 60.6504 16.536C60.8424 16.224 61.1264 15.972 61.5024 15.78C61.8784 15.58 62.3384 15.48 62.8824 15.48C63.3944 15.48 63.8304 15.576 64.1904 15.768C64.5504 15.952 64.8264 16.2 65.0184 16.512C65.2104 16.824 65.3064 17.164 65.3064 17.532C65.3064 17.86 65.2304 18.156 65.0784 18.42C64.9344 18.676 64.7344 18.908 64.4784 19.116C64.2224 19.324 63.9304 19.524 63.6024 19.716L65.1744 21.288C65.2544 21.152 65.3544 20.964 65.4744 20.724C65.5944 20.484 65.7024 20.176 65.7984 19.8C65.8224 19.672 65.9064 19.608 66.0504 19.608H67.0944C67.1664 19.608 67.2224 19.632 67.2624 19.68C67.3104 19.72 67.3344 19.776 67.3344 19.848C67.3264 20 67.2904 20.18 67.2264 20.388C67.1624 20.588 67.0744 20.8 66.9624 21.024C66.8504 21.248 66.7264 21.468 66.5904 21.684C66.4544 21.9 66.3184 22.1 66.1824 22.284L67.4904 23.604C67.5464 23.668 67.5744 23.728 67.5744 23.784C67.5744 23.848 67.5544 23.9 67.5144 23.94C67.4744 23.98 67.4184 24 67.3464 24H65.9664C65.8864 24 65.8224 23.988 65.7744 23.964C65.7264 23.932 65.6824 23.904 65.6424 23.88L65.0424 23.304C64.7224 23.568 64.3624 23.772 63.9624 23.916C63.5704 24.052 63.1224 24.12 62.6184 24.12ZM62.6184 22.74C62.8824 22.74 63.1304 22.7 63.3624 22.62C63.6024 22.532 63.8224 22.392 64.0224 22.2L62.2464 20.46C61.9984 20.596 61.7864 20.76 61.6104 20.952C61.4344 21.136 61.3464 21.36 61.3464 21.624C61.3464 21.856 61.4064 22.056 61.5264 22.224C61.6464 22.392 61.8024 22.52 61.9944 22.608C62.1944 22.696 62.4024 22.74 62.6184 22.74ZM62.6664 18.72C62.8664 18.608 63.0504 18.5 63.2184 18.396C63.3864 18.284 63.5184 18.164 63.6144 18.036C63.7104 17.9 63.7584 17.748 63.7584 17.58C63.7584 17.332 63.6744 17.136 63.5064 16.992C63.3384 16.848 63.1304 16.776 62.8824 16.776C62.6504 16.776 62.4464 16.848 62.2704 16.992C62.0944 17.136 62.0064 17.332 62.0064 17.58C62.0064 17.692 62.0264 17.804 62.0664 17.916C62.1064 18.02 62.1744 18.136 62.2704 18.264C62.3664 18.392 62.4984 18.544 62.6664 18.72ZM71.6685 24C71.5805 24 71.5085 23.972 71.4525 23.916C71.3965 23.86 71.3685 23.788 71.3685 23.7V15.9C71.3685 15.812 71.3965 15.74 71.4525 15.684C71.5085 15.628 71.5805 15.6 71.6685 15.6H74.6805C75.4805 15.6 76.1485 15.728 76.6845 15.984C77.2205 16.232 77.6285 16.6 77.9085 17.088C78.1965 17.568 78.3485 18.164 78.3645 18.876C78.3725 19.228 78.3765 19.536 78.3765 19.8C78.3765 20.064 78.3725 20.368 78.3645 20.712C78.3405 21.456 78.1925 22.072 77.9205 22.56C77.6485 23.048 77.2485 23.412 76.7205 23.652C76.1925 23.884 75.5325 24 74.7405 24H71.6685ZM73.2765 22.452H74.6805C75.0805 22.452 75.4085 22.392 75.6645 22.272C75.9205 22.152 76.1085 21.964 76.2285 21.708C76.3565 21.444 76.4245 21.104 76.4325 20.688C76.4405 20.456 76.4445 20.248 76.4445 20.064C76.4525 19.88 76.4525 19.696 76.4445 19.512C76.4445 19.328 76.4405 19.124 76.4325 18.9C76.4165 18.3 76.2605 17.86 75.9645 17.58C75.6765 17.292 75.2285 17.148 74.6205 17.148H73.2765V22.452ZM82.5283 24.12C81.6083 24.12 80.8763 23.864 80.3323 23.352C79.7963 22.84 79.5123 22.096 79.4803 21.12C79.4803 21.056 79.4803 20.972 79.4803 20.868C79.4803 20.756 79.4803 20.668 79.4803 20.604C79.5123 19.988 79.6523 19.46 79.9003 19.02C80.1483 18.572 80.4963 18.232 80.9443 18C81.3923 17.76 81.9163 17.64 82.5163 17.64C83.1883 17.64 83.7483 17.78 84.1963 18.06C84.6523 18.332 84.9923 18.708 85.2163 19.188C85.4483 19.66 85.5643 20.204 85.5643 20.82V21.096C85.5643 21.176 85.5323 21.244 85.4683 21.3C85.4123 21.356 85.3443 21.384 85.2643 21.384H81.3403C81.3403 21.392 81.3403 21.408 81.3403 21.432C81.3403 21.448 81.3403 21.464 81.3403 21.48C81.3483 21.736 81.3963 21.972 81.4843 22.188C81.5803 22.396 81.7123 22.564 81.8803 22.692C82.0563 22.82 82.2643 22.884 82.5043 22.884C82.7043 22.884 82.8683 22.856 82.9963 22.8C83.1243 22.744 83.2283 22.676 83.3083 22.596C83.3963 22.516 83.4603 22.448 83.5003 22.392C83.5723 22.312 83.6283 22.264 83.6683 22.248C83.7163 22.224 83.7883 22.212 83.8843 22.212H85.1323C85.2123 22.212 85.2763 22.236 85.3243 22.284C85.3803 22.324 85.4043 22.384 85.3963 22.464C85.3883 22.592 85.3203 22.752 85.1923 22.944C85.0723 23.128 84.8923 23.312 84.6523 23.496C84.4123 23.672 84.1123 23.82 83.7523 23.94C83.4003 24.06 82.9923 24.12 82.5283 24.12ZM81.3403 20.292H83.6923V20.268C83.6923 19.98 83.6443 19.732 83.5483 19.524C83.4603 19.308 83.3283 19.14 83.1523 19.02C82.9763 18.9 82.7643 18.84 82.5163 18.84C82.2683 18.84 82.0563 18.9 81.8803 19.02C81.7043 19.14 81.5683 19.308 81.4723 19.524C81.3843 19.732 81.3403 19.98 81.3403 20.268V20.292ZM88.7374 24C88.6174 24 88.5254 23.972 88.4614 23.916C88.4054 23.852 88.3574 23.78 88.3174 23.7L86.0614 18.132C86.0454 18.1 86.0374 18.064 86.0374 18.024C86.0374 17.952 86.0614 17.892 86.1094 17.844C86.1654 17.788 86.2294 17.76 86.3014 17.76H87.4654C87.5694 17.76 87.6454 17.788 87.6934 17.844C87.7494 17.9 87.7854 17.952 87.8014 18L89.2774 21.96L90.7534 18C90.7774 17.952 90.8134 17.9 90.8614 17.844C90.9174 17.788 90.9934 17.76 91.0894 17.76H92.2534C92.3254 17.76 92.3854 17.788 92.4334 17.844C92.4894 17.892 92.5174 17.952 92.5174 18.024C92.5174 18.064 92.5134 18.1 92.5054 18.132L90.2374 23.7C90.2054 23.78 90.1574 23.852 90.0934 23.916C90.0294 23.972 89.9374 24 89.8174 24H88.7374ZM96.0869 24.12C95.1669 24.12 94.4349 23.864 93.8909 23.352C93.3549 22.84 93.0709 22.096 93.0389 21.12C93.0389 21.056 93.0389 20.972 93.0389 20.868C93.0389 20.756 93.0389 20.668 93.0389 20.604C93.0709 19.988 93.2109 19.46 93.4589 19.02C93.7069 18.572 94.0549 18.232 94.5029 18C94.9509 17.76 95.4749 17.64 96.0749 17.64C96.7469 17.64 97.3069 17.78 97.7549 18.06C98.2109 18.332 98.5509 18.708 98.7749 19.188C99.0069 19.66 99.1229 20.204 99.1229 20.82V21.096C99.1229 21.176 99.0909 21.244 99.0269 21.3C98.9709 21.356 98.9029 21.384 98.8229 21.384H94.8989C94.8989 21.392 94.8989 21.408 94.8989 21.432C94.8989 21.448 94.8989 21.464 94.8989 21.48C94.9069 21.736 94.9549 21.972 95.0429 22.188C95.1389 22.396 95.2709 22.564 95.4389 22.692C95.6149 22.82 95.8229 22.884 96.0629 22.884C96.2629 22.884 96.4269 22.856 96.5549 22.8C96.6829 22.744 96.7869 22.676 96.8669 22.596C96.9549 22.516 97.0189 22.448 97.0589 22.392C97.1309 22.312 97.1869 22.264 97.2269 22.248C97.2749 22.224 97.3469 22.212 97.4429 22.212H98.6909C98.7709 22.212 98.8349 22.236 98.8829 22.284C98.9389 22.324 98.9629 22.384 98.9549 22.464C98.9469 22.592 98.8789 22.752 98.7509 22.944C98.6309 23.128 98.4509 23.312 98.2109 23.496C97.9709 23.672 97.6709 23.82 97.3109 23.94C96.9589 24.06 96.5509 24.12 96.0869 24.12ZM94.8989 20.292H97.2509V20.268C97.2509 19.98 97.2029 19.732 97.1069 19.524C97.0189 19.308 96.8869 19.14 96.7109 19.02C96.5349 18.9 96.3229 18.84 96.0749 18.84C95.8269 18.84 95.6149 18.9 95.4389 19.02C95.2629 19.14 95.1269 19.308 95.0309 19.524C94.9429 19.732 94.8989 19.98 94.8989 20.268V20.292ZM100.622 24C100.534 24 100.462 23.972 100.406 23.916C100.35 23.86 100.322 23.788 100.322 23.7V15.78C100.322 15.692 100.35 15.62 100.406 15.564C100.462 15.508 100.534 15.48 100.622 15.48H101.822C101.902 15.48 101.97 15.508 102.026 15.564C102.082 15.62 102.11 15.692 102.11 15.78V23.7C102.11 23.788 102.082 23.86 102.026 23.916C101.97 23.972 101.902 24 101.822 24H100.622ZM106.483 24.12C105.819 24.12 105.263 24.012 104.815 23.796C104.367 23.572 104.023 23.256 103.783 22.848C103.551 22.44 103.423 21.964 103.399 21.42C103.391 21.26 103.387 21.08 103.387 20.88C103.387 20.672 103.391 20.492 103.399 20.34C103.423 19.788 103.559 19.312 103.807 18.912C104.055 18.504 104.403 18.192 104.851 17.976C105.299 17.752 105.843 17.64 106.483 17.64C107.115 17.64 107.655 17.752 108.103 17.976C108.551 18.192 108.899 18.504 109.147 18.912C109.395 19.312 109.531 19.788 109.555 20.34C109.571 20.492 109.579 20.672 109.579 20.88C109.579 21.08 109.571 21.26 109.555 21.42C109.531 21.964 109.399 22.44 109.159 22.848C108.927 23.256 108.587 23.572 108.139 23.796C107.691 24.012 107.139 24.12 106.483 24.12ZM106.483 22.8C106.875 22.8 107.171 22.68 107.371 22.44C107.571 22.192 107.679 21.832 107.695 21.36C107.703 21.24 107.707 21.08 107.707 20.88C107.707 20.68 107.703 20.52 107.695 20.4C107.679 19.936 107.571 19.58 107.371 19.332C107.171 19.084 106.875 18.96 106.483 18.96C106.091 18.96 105.791 19.084 105.583 19.332C105.383 19.58 105.275 19.936 105.259 20.4C105.251 20.52 105.247 20.68 105.247 20.88C105.247 21.08 105.251 21.24 105.259 21.36C105.275 21.832 105.383 22.192 105.583 22.44C105.791 22.68 106.091 22.8 106.483 22.8ZM111.134 26.28C111.046 26.28 110.974 26.252 110.918 26.196C110.862 26.14 110.834 26.068 110.834 25.98V18.06C110.834 17.972 110.862 17.9 110.918 17.844C110.974 17.788 111.046 17.76 111.134 17.76H112.274C112.362 17.76 112.434 17.788 112.49 17.844C112.546 17.9 112.574 17.972 112.574 18.06V18.516C112.766 18.26 113.014 18.052 113.318 17.892C113.622 17.724 114.002 17.64 114.458 17.64C114.874 17.64 115.234 17.708 115.538 17.844C115.85 17.972 116.11 18.16 116.318 18.408C116.534 18.648 116.698 18.94 116.81 19.284C116.93 19.628 116.998 20.016 117.014 20.448C117.022 20.6 117.026 20.744 117.026 20.88C117.026 21.016 117.022 21.164 117.014 21.324C117.006 21.732 116.942 22.108 116.822 22.452C116.71 22.796 116.546 23.092 116.33 23.34C116.114 23.588 115.85 23.78 115.538 23.916C115.234 24.052 114.874 24.12 114.458 24.12C114.05 24.12 113.694 24.048 113.39 23.904C113.094 23.752 112.85 23.548 112.658 23.292V25.98C112.658 26.068 112.63 26.14 112.574 26.196C112.518 26.252 112.45 26.28 112.37 26.28H111.134ZM113.918 22.68C114.222 22.68 114.462 22.616 114.638 22.488C114.814 22.352 114.938 22.176 115.01 21.96C115.09 21.744 115.138 21.508 115.154 21.252C115.17 21.004 115.17 20.756 115.154 20.508C115.138 20.252 115.09 20.016 115.01 19.8C114.938 19.584 114.814 19.412 114.638 19.284C114.462 19.148 114.222 19.08 113.918 19.08C113.622 19.08 113.382 19.148 113.198 19.284C113.014 19.42 112.882 19.592 112.802 19.8C112.722 20.008 112.674 20.232 112.658 20.472C112.65 20.616 112.646 20.764 112.646 20.916C112.646 21.068 112.65 21.22 112.658 21.372C112.666 21.596 112.714 21.808 112.802 22.008C112.898 22.2 113.034 22.36 113.21 22.488C113.394 22.616 113.63 22.68 113.918 22.68ZM118.587 24C118.507 24 118.439 23.972 118.383 23.916C118.327 23.86 118.299 23.788 118.299 23.7V18.06C118.299 17.972 118.327 17.9 118.383 17.844C118.439 17.788 118.507 17.76 118.587 17.76H119.703C119.783 17.76 119.851 17.788 119.907 17.844C119.971 17.9 120.003 17.972 120.003 18.06V18.468C120.163 18.244 120.383 18.052 120.663 17.892C120.951 17.732 121.291 17.648 121.683 17.64C122.611 17.624 123.247 17.976 123.591 18.696C123.775 18.384 124.039 18.132 124.383 17.94C124.735 17.74 125.119 17.64 125.535 17.64C125.951 17.64 126.327 17.736 126.663 17.928C126.999 18.112 127.263 18.4 127.455 18.792C127.655 19.176 127.755 19.672 127.755 20.28V23.7C127.755 23.788 127.727 23.86 127.671 23.916C127.615 23.972 127.547 24 127.467 24H126.279C126.199 24 126.131 23.972 126.075 23.916C126.019 23.86 125.991 23.788 125.991 23.7V20.376C125.991 20.048 125.943 19.792 125.847 19.608C125.751 19.416 125.623 19.28 125.463 19.2C125.311 19.12 125.139 19.08 124.947 19.08C124.779 19.08 124.615 19.12 124.455 19.2C124.303 19.28 124.175 19.416 124.071 19.608C123.975 19.792 123.927 20.048 123.927 20.376V23.7C123.927 23.788 123.899 23.86 123.843 23.916C123.787 23.972 123.715 24 123.627 24H122.451C122.363 24 122.291 23.972 122.235 23.916C122.179 23.86 122.151 23.788 122.151 23.7V20.376C122.151 20.048 122.103 19.792 122.007 19.608C121.911 19.416 121.783 19.28 121.623 19.2C121.471 19.12 121.303 19.08 121.119 19.08C120.951 19.08 120.787 19.124 120.627 19.212C120.467 19.292 120.335 19.424 120.231 19.608C120.135 19.792 120.087 20.044 120.087 20.364V23.7C120.087 23.788 120.059 23.86 120.003 23.916C119.947 23.972 119.879 24 119.799 24H118.587ZM131.993 24.12C131.073 24.12 130.341 23.864 129.797 23.352C129.261 22.84 128.977 22.096 128.945 21.12C128.945 21.056 128.945 20.972 128.945 20.868C128.945 20.756 128.945 20.668 128.945 20.604C128.977 19.988 129.117 19.46 129.365 19.02C129.613 18.572 129.961 18.232 130.409 18C130.857 17.76 131.381 17.64 131.981 17.64C132.653 17.64 133.213 17.78 133.661 18.06C134.117 18.332 134.457 18.708 134.681 19.188C134.913 19.66 135.029 20.204 135.029 20.82V21.096C135.029 21.176 134.997 21.244 134.933 21.3C134.877 21.356 134.809 21.384 134.729 21.384H130.805C130.805 21.392 130.805 21.408 130.805 21.432C130.805 21.448 130.805 21.464 130.805 21.48C130.813 21.736 130.861 21.972 130.949 22.188C131.045 22.396 131.177 22.564 131.345 22.692C131.521 22.82 131.729 22.884 131.969 22.884C132.169 22.884 132.333 22.856 132.461 22.8C132.589 22.744 132.693 22.676 132.773 22.596C132.861 22.516 132.925 22.448 132.965 22.392C133.037 22.312 133.093 22.264 133.133 22.248C133.181 22.224 133.253 22.212 133.349 22.212H134.597C134.677 22.212 134.741 22.236 134.789 22.284C134.845 22.324 134.869 22.384 134.861 22.464C134.853 22.592 134.785 22.752 134.657 22.944C134.537 23.128 134.357 23.312 134.117 23.496C133.877 23.672 133.577 23.82 133.217 23.94C132.865 24.06 132.457 24.12 131.993 24.12ZM130.805 20.292H133.157V20.268C133.157 19.98 133.109 19.732 133.013 19.524C132.925 19.308 132.793 19.14 132.617 19.02C132.441 18.9 132.229 18.84 131.981 18.84C131.733 18.84 131.521 18.9 131.345 19.02C131.169 19.14 131.033 19.308 130.937 19.524C130.849 19.732 130.805 19.98 130.805 20.268V20.292ZM136.517 24C136.437 24 136.369 23.972 136.313 23.916C136.257 23.86 136.229 23.788 136.229 23.7V18.06C136.229 17.972 136.257 17.9 136.313 17.844C136.369 17.788 136.437 17.76 136.517 17.76H137.693C137.781 17.76 137.853 17.788 137.909 17.844C137.965 17.9 137.993 17.972 137.993 18.06V18.528C138.201 18.272 138.469 18.06 138.797 17.892C139.125 17.724 139.525 17.64 139.997 17.64C140.469 17.64 140.881 17.748 141.233 17.964C141.593 18.172 141.873 18.48 142.073 18.888C142.281 19.288 142.385 19.776 142.385 20.352V23.7C142.385 23.788 142.353 23.86 142.289 23.916C142.233 23.972 142.165 24 142.085 24H140.813C140.725 24 140.653 23.972 140.597 23.916C140.541 23.86 140.513 23.788 140.513 23.7V20.424C140.513 20 140.409 19.672 140.201 19.44C140.001 19.2 139.705 19.08 139.313 19.08C138.937 19.08 138.637 19.2 138.413 19.44C138.189 19.672 138.077 20 138.077 20.424V23.7C138.077 23.788 138.049 23.86 137.993 23.916C137.937 23.972 137.869 24 137.789 24H136.517ZM146.752 24C146.256 24 145.832 23.92 145.48 23.76C145.128 23.592 144.86 23.336 144.676 22.992C144.5 22.648 144.412 22.216 144.412 21.696V19.176H143.476C143.388 19.176 143.316 19.148 143.26 19.092C143.204 19.036 143.176 18.964 143.176 18.876V18.06C143.176 17.972 143.204 17.9 143.26 17.844C143.316 17.788 143.388 17.76 143.476 17.76H144.412V15.78C144.412 15.692 144.44 15.62 144.496 15.564C144.56 15.508 144.632 15.48 144.712 15.48H145.888C145.976 15.48 146.048 15.508 146.104 15.564C146.16 15.62 146.188 15.692 146.188 15.78V17.76H147.688C147.768 17.76 147.836 17.788 147.892 17.844C147.948 17.9 147.976 17.972 147.976 18.06V18.876C147.976 18.964 147.948 19.036 147.892 19.092C147.836 19.148 147.768 19.176 147.688 19.176H146.188V21.552C146.188 21.856 146.24 22.096 146.344 22.272C146.456 22.44 146.648 22.524 146.92 22.524H147.796C147.876 22.524 147.944 22.552 148 22.608C148.056 22.664 148.084 22.732 148.084 22.812V23.7C148.084 23.788 148.056 23.86 148 23.916C147.944 23.972 147.876 24 147.796 24H146.752Z" fill="#F8F8F8" fill-opacity="0.7"/>
</g>
</g>
<defs>
<filter id="filter0_bi_39_240" x="-100" y="-100" width="428" height="240" filterUnits="userSpaceOnUse" color-interpolation-filters="sRGB">
<feFlood flood-opacity="0" result="BackgroundImageFix"/>
<feGaussianBlur in="BackgroundImageFix" stdDeviation="50"/>
<feComposite in2="SourceAlpha" operator="in" result="effect1_backgroundBlur_39_240"/>
<feBlend mode="normal" in="SourceGraphic" in2="effect1_backgroundBlur_39_240" result="shape"/>
<feColorMatrix in="SourceAlpha" type="matrix" values="0 0 0 0 0 0 0 0 0 0 0 0 0 0 0 0 0 0 127 0" result="hardAlpha"/>
<feOffset dx="2" dy="4"/>
<feGaussianBlur stdDeviation="8"/>
<feComposite in2="hardAlpha" operator="arithmetic" k2="-1" k3="1"/>
<feColorMatrix type="matrix" values="0 0 0 0 0.972549 0 0 0 0 0.972549 0 0 0 0 0.972549 0 0 0 0.06 0"/>
<feBlend mode="normal" in2="shape" result="effect2_innerShadow_39_240"/>
</filter>
<filter id="filter1_bi_39_240" x="-96" y="-96" width="357" height="232" filterUnits="userSpaceOnUse" color-interpolation-filters="sRGB">
<feFlood flood-opacity="0" result="BackgroundImageFix"/>
<feGaussianBlur in="BackgroundImageFix" stdDeviation="50"/>
<feComposite in2="SourceAlpha" operator="in" result="effect1_backgroundBlur_39_240"/>
<feBlend mode="normal" in="SourceGraphic" in2="effect1_backgroundBlur_39_240" result="shape"/>
<feColorMatrix in="SourceAlpha" type="matrix" values="0 0 0 0 0 0 0 0 0 0 0 0 0 0 0 0 0 0 127 0" result="hardAlpha"/>
<feOffset dx="2" dy="4"/>
<feGaussianBlur stdDeviation="8"/>
<feComposite in2="hardAlpha" operator="arithmetic" k2="-1" k3="1"/>
<feColorMatrix type="matrix" values="0 0 0 0 0.972549 0 0 0 0 0.972549 0 0 0 0 0.972549 0 0 0 0.06 0"/>
<feBlend mode="normal" in2="shape" result="effect2_innerShadow_39_240"/>
</filter>
<linearGradient id="paint0_linear_39_240" x1="114" y1="-4.53911e-07" x2="117.515" y2="50.5739" gradientUnits="userSpaceOnUse">
<stop stop-color="white" stop-opacity="0.4"/>
<stop offset="0.4" stop-color="white" stop-opacity="0.01"/>
<stop offset="0.6" stop-color="white" stop-opacity="0.01"/>
<stop offset="1" stop-color="white" stop-opacity="0.1"/>
</linearGradient>
<linearGradient id="paint1_linear_39_240" x1="82.5" y1="4" x2="85.7613" y2="44.3912" gradientUnits="userSpaceOnUse">
<stop stop-color="white" stop-opacity="0.4"/>
<stop offset="0.4" stop-color="white" stop-opacity="0.01"/>
<stop offset="0.6" stop-color="white" stop-opacity="0.01"/>
<stop offset="1" stop-color="white" stop-opacity="0.1"/>
</linearGradient>
</defs>
</svg>