<svg xmlns:xlink="http://www.w3.org/1999/xlink" xmlns="http://www.w3.org/2000/svg" width="194" height="32" viewBox="0 0 194 32" fill="none">
<g clip-path="url(#clip0_61_274)">
<mask id="mask0_61_274" style="mask-type:luminance" maskUnits="userSpaceOnUse" x="0" y="0" width="193" height="33">
<path d="M192.827 0.000366211H0.82666V32.0004H192.827V0.000366211Z" fill="white"/>
</mask>
<g mask="url(#mask0_61_274)">
<path fill-rule="evenodd" clip-rule="evenodd" d="M52.1557 0.000366211L35.7573 32.0004H20.3862L27.2222 18.7263H26.9061C21.295 26.0745 12.839 30.8942 0.82666 32.0004V18.9239C0.82666 18.9239 8.53196 18.4893 13.0365 13.709H0.82666V0.000366211H14.5381V11.2992H14.8542L20.4652 0.000366211H30.8575V11.2202H31.1736L36.9427 0.000366211H52.1557Z" fill="#CECFCC"/>
<path d="M141.418 28.4856H145.844V3.12146H141.418V28.4856Z" fill="#CECFCC"/>
<path fill-rule="evenodd" clip-rule="evenodd" d="M117.077 28.2091C118.026 28.6042 119.014 28.8018 120.001 28.8018C121.661 28.8018 123.123 28.4066 124.388 27.6165C125.692 26.8264 126.679 25.7201 127.391 24.2978C128.102 22.8756 128.458 21.2952 128.458 19.4778C128.458 17.6605 128.102 16.0801 127.351 14.6578C126.6 13.2356 125.613 12.1688 124.309 11.3787C123.005 10.5885 121.503 10.1934 119.843 10.2329C118.777 10.2329 117.789 10.4304 116.801 10.8651C115.813 11.2602 115.023 11.8528 114.39 12.6034C114.351 12.6429 114.311 12.7219 114.232 12.7615V3.12146H109.807V28.4461H114.193V26.0757C114.311 26.2337 114.43 26.3522 114.549 26.4707C115.26 27.2215 116.09 27.814 117.077 28.2091ZM121.582 24.1003C120.871 24.5348 120.041 24.7719 119.093 24.7719C118.184 24.7719 117.315 24.5348 116.564 24.1003C115.813 23.6262 115.181 22.9941 114.746 22.2039C114.311 21.4137 114.074 20.505 114.074 19.4778C114.074 18.4506 114.272 17.5419 114.707 16.7518C115.141 15.9616 115.773 15.3295 116.524 14.8554C117.275 14.4208 118.144 14.1837 119.053 14.1837C119.962 14.1837 120.792 14.3812 121.543 14.8159C122.293 15.2505 122.847 15.8826 123.242 16.6727C123.637 17.4629 123.834 18.3716 123.834 19.4383C123.834 20.4655 123.637 21.3742 123.242 22.2039C122.886 23.0336 122.333 23.6657 121.582 24.1003Z" fill="#CECFCC"/>
<path d="M58.5579 4.6626H63.6157L68.1203 21.1375L72.9411 4.6626H77.1296L82.3455 20.8215L86.6921 4.6626H91.3152L84.4793 28.4861H80.1327L74.8378 12.6828L69.9775 28.4861H65.5914L58.5579 4.6626Z" fill="#CECFCC"/>
<path fill-rule="evenodd" clip-rule="evenodd" d="M98.7429 28.8805C96.9648 28.8805 95.3842 28.4855 94.0012 27.7348C92.5787 26.9446 91.5118 25.8384 90.682 24.4161C89.8917 22.9938 89.4966 21.374 89.4966 19.5962C89.4966 17.8183 89.8917 16.2379 90.7215 14.8156C91.5513 13.3934 92.6577 12.2871 94.0407 11.497C95.4632 10.7068 97.0043 10.3117 98.7429 10.3117C100.679 10.3117 102.378 10.7463 103.84 11.6155C105.302 12.4847 106.408 13.7094 107.12 15.2898C107.871 16.87 108.108 18.6874 107.91 20.7023H94.0407C94.0802 21.5321 94.2778 22.2432 94.6334 22.9148C95.0286 23.6655 95.6213 24.2186 96.3325 24.6136C97.0833 25.0087 97.8736 25.2458 98.7824 25.2458C99.4542 25.2458 100.126 25.1272 100.718 24.8902C101.311 24.6532 101.825 24.3371 102.22 23.942C102.655 23.547 102.931 23.0728 103.129 22.5987H107.752C107.475 23.8235 106.922 24.9297 106.053 25.9174C105.223 26.8656 104.156 27.6163 102.892 28.1694C101.667 28.6435 100.284 28.92 98.7429 28.8805ZM94.6729 16.1984C94.3963 16.633 94.2383 17.1466 94.1197 17.6603H103.326C103.247 16.9886 103.05 16.396 102.734 15.8824C102.339 15.2503 101.825 14.7366 101.153 14.4206C100.481 14.065 99.7308 13.8675 98.901 13.8675C97.9921 13.8675 97.2019 14.065 96.4511 14.4996C95.7003 14.8946 95.1076 15.4478 94.6729 16.1984Z" fill="#CECFCC"/>
<path d="M131.738 10.6283C131.738 9.16649 132.054 7.90223 132.726 6.79601C133.398 5.65027 134.307 4.7811 135.492 4.14896C136.678 3.51683 138.1 3.20077 139.681 3.16125V7.11207C138.93 7.11207 138.298 7.2701 137.784 7.58617C137.27 7.86273 136.875 8.29731 136.599 8.85043C136.322 9.36403 136.203 9.95665 136.164 10.6283H139.602V14.3815H136.164V28.486H131.738V14.3815H128.893V10.6283H131.738Z" fill="#CECFCC"/>
<path fill-rule="evenodd" clip-rule="evenodd" d="M157.067 28.8405C155.249 28.8405 153.669 28.4453 152.246 27.6552C150.824 26.8651 149.717 25.7588 148.927 24.3365C148.137 22.9143 147.742 21.3339 147.742 19.5166C147.742 17.6992 148.137 16.1188 148.927 14.6966C149.717 13.2743 150.863 12.168 152.246 11.3779C153.669 10.5877 155.289 10.1926 157.067 10.1926C158.885 10.1926 160.505 10.5877 161.927 11.3779C163.35 12.168 164.496 13.2743 165.286 14.6966C166.076 16.1188 166.471 17.7387 166.511 19.5166C166.511 21.2944 166.076 22.9143 165.286 24.3365C164.496 25.7588 163.389 26.8256 161.967 27.6552C160.505 28.4453 158.885 28.8405 157.067 28.8405ZM157.067 24.8107C158.015 24.8107 158.845 24.6131 159.596 24.1785C160.347 23.7439 160.9 23.1118 161.295 22.3216C161.69 21.5315 161.888 20.6227 161.888 19.5956C161.888 18.5683 161.69 17.6597 161.295 16.83C160.9 16.0398 160.347 15.4077 159.596 14.9731C158.845 14.5385 158.015 14.3014 157.067 14.3014C156.119 14.3014 155.289 14.5385 154.577 14.9731C153.866 15.4077 153.313 16.0003 152.878 16.83C152.483 17.6202 152.286 18.5288 152.286 19.5956C152.286 20.6227 152.483 21.5315 152.878 22.3216C153.274 23.1118 153.866 23.7439 154.577 24.1785C155.289 24.5735 156.119 24.8107 157.067 24.8107Z" fill="#CECFCC"/>
<path d="M171.251 10.6276H166.312L171.647 28.4458H175.954L179.47 17.0674L183.264 28.4458H187.492L192.826 10.6276H188.361L185.358 21.7293L181.999 10.6276H177.692L174.373 21.9663L171.251 10.6276Z" fill="#CECFCC"/>
</g>
</g>
<defs>
<clipPath id="clip0_61_274">
<rect width="193" height="32" fill="white" transform="translate(0.267822)"/>
</clipPath>
</defs>
</svg>