<svg xmlns:xlink="http://www.w3.org/1999/xlink" xmlns="http://www.w3.org/2000/svg" width="160" height="32" viewBox="0 0 160 32" fill="none">
<g clip-path="url(#clip0_61_299)">
<mask id="mask0_61_299" style="mask-type:luminance" maskUnits="userSpaceOnUse" x="1" y="0" width="159" height="33">
<path d="M159.131 0.000305176H1.53064V32.0003H159.131V0.000305176Z" fill="white"/>
</mask>
<g mask="url(#mask0_61_299)">
<path d="M106.299 0.0133057H133.75V5.08008H122.861V31.7357H117.415V5.08008H106.299V0.0133057Z" fill="#CECFCC"/>
<path d="M61.1523 0.0133057V5.08008H39.1483V13.231H56.8439V18.2977H39.1483V26.6689H61.1523V31.7357H33.7035V5.08008H33.7012V0.0133057H61.1523Z" fill="#CECFCC"/>
<path d="M74.8587 0.0270996H67.7332L93.2556 31.7494H100.402L87.6392 15.8992L100.382 0.0513018L93.2556 0.0623138L84.0715 11.4685L74.8587 0.0270996Z" fill="#CECFCC"/>
<path d="M82.1702 22.6867L78.6018 18.25L67.7122 31.7738H74.8582L82.1702 22.6867Z" fill="#CECFCC"/>
<path fill-rule="evenodd" clip-rule="evenodd" d="M33.8934 31.7359L8.33668 0.000305176H1.53064V31.7227H6.97548V6.78095L27.0533 31.7359H33.8934Z" fill="#CECFCC"/>
<path d="M134.973 31.542C134.574 31.542 134.235 31.4039 133.951 31.1276C133.667 30.8515 133.527 30.517 133.53 30.1207C133.527 29.7355 133.667 29.4046 133.951 29.1284C134.235 28.8522 134.574 28.714 134.973 28.714C135.357 28.714 135.692 28.8522 135.976 29.1284C136.264 29.4046 136.408 29.7355 136.412 30.1207C136.408 30.3825 136.341 30.6224 136.209 30.8369C136.072 31.0549 135.899 31.2258 135.681 31.3494C135.467 31.4766 135.231 31.542 134.973 31.542Z" fill="#CECFCC"/>
<path d="M144.267 18.1786H146.68V27.4743C146.677 28.3287 146.492 29.0594 146.131 29.6738C145.765 30.2881 145.26 30.7571 144.611 31.0879C143.965 31.4151 143.209 31.5823 142.349 31.5823C141.563 31.5823 140.859 31.4405 140.231 31.1643C139.604 30.888 139.106 30.4735 138.741 29.9282C138.372 29.3829 138.191 28.7031 138.191 27.8888H140.608C140.611 28.2451 140.693 28.554 140.847 28.8121C141.002 29.0703 141.216 29.2665 141.489 29.4047C141.766 29.5429 142.083 29.6119 142.441 29.6119C142.829 29.6119 143.161 29.5319 143.43 29.3683C143.699 29.2084 143.906 28.9685 144.05 28.6485C144.19 28.3323 144.264 27.9397 144.267 27.4743V18.1786Z" fill="#CECFCC"/>
<path d="M156.608 21.814C156.549 21.2505 156.291 20.8107 155.841 20.498C155.387 20.1817 154.8 20.0254 154.081 20.0254C153.575 20.0254 153.14 20.1018 152.779 20.2508C152.417 20.4035 152.137 20.6071 151.945 20.8652C151.753 21.1233 151.657 21.4178 151.649 21.7486C151.649 22.0249 151.716 22.2648 151.845 22.4648C151.974 22.6683 152.147 22.8392 152.373 22.9774C152.594 23.1191 152.841 23.2355 153.111 23.33C153.383 23.4245 153.657 23.5045 153.929 23.5699L155.187 23.8789C155.693 23.9953 156.184 24.1516 156.652 24.3515C157.121 24.5479 157.545 24.7987 157.917 25.1004C158.29 25.4022 158.585 25.7657 158.803 26.1911C159.021 26.6164 159.131 27.1144 159.131 27.6888C159.131 28.4631 158.932 29.143 158.53 29.7319C158.128 30.3172 157.549 30.7753 156.789 31.1061C156.032 31.4333 155.117 31.6005 154.04 31.6005C153 31.6005 152.092 31.4406 151.329 31.1207C150.561 30.8044 149.963 30.339 149.532 29.7283C149.1 29.1175 148.868 28.3723 148.835 27.4961H151.225C151.259 27.9542 151.406 28.3359 151.657 28.6449C151.911 28.9503 152.243 29.1757 152.649 29.3284C153.059 29.4774 153.516 29.5538 154.022 29.5538C154.549 29.5538 155.014 29.4738 155.416 29.3175C155.815 29.1611 156.128 28.9431 156.353 28.6595C156.582 28.3795 156.697 28.0487 156.7 27.6707C156.697 27.3253 156.593 27.0381 156.394 26.8127C156.191 26.5873 155.911 26.3983 155.553 26.2456C155.191 26.0929 154.771 25.9547 154.291 25.8348L152.764 25.4494C151.661 25.1695 150.786 24.7442 150.148 24.1734C149.506 23.6027 149.189 22.8465 149.189 21.8977C149.189 21.1197 149.403 20.4363 149.835 19.8509C150.262 19.2657 150.849 18.8112 151.591 18.4877C152.336 18.1605 153.177 18.0005 154.114 18.0005C155.066 18.0005 155.899 18.1605 156.619 18.4877C157.338 18.8112 157.903 19.262 158.312 19.8364C158.722 20.4108 158.936 21.0688 158.947 21.814H156.608Z" fill="#CECFCC"/>
</g>
</g>
<defs>
<clipPath id="clip0_61_299">
<rect width="159" height="32" fill="white" transform="translate(0.971436)"/>
</clipPath>
</defs>
</svg>