<svg xmlns:xlink="http://www.w3.org/1999/xlink" xmlns="http://www.w3.org/2000/svg" width="150" height="40" viewBox="0 0 150 40" fill="none">
<path d="M31.5257 7.7941C31.5119 7.70795 31.4698 7.62885 31.4061 7.56922C31.3424 7.5096 31.2607 7.47284 31.1739 7.46472C31.0333 7.44223 27.9475 7.22864 27.9475 7.22864L25.5946 4.87576C25.3833 4.63968 24.9134 4.70938 24.7357 4.75885C24.7133 4.75885 24.2658 4.89937 23.5363 5.13656C22.8258 3.08383 21.569 1.19973 19.3566 1.19973H19.1677C18.5326 0.379089 17.7569 0.000244141 17.0993 0.000244141C11.9461 0.0227275 9.48866 6.45072 8.71298 9.73554L5.11115 10.8406C4.00609 11.1925 3.9645 11.2183 3.81836 12.2717L0.781982 35.6914L23.5441 39.952L35.8807 37.2923C35.8807 37.2698 31.5493 8.01893 31.5268 7.79635L31.5257 7.7941ZM22.2738 5.53227C21.7005 5.72113 21.0372 5.90999 20.3447 6.12246V5.69865C20.3672 4.63968 20.2065 3.58521 19.8748 2.57796C21.0282 2.75558 21.8039 4.05062 22.2738 5.53227ZM18.4854 2.85001C18.862 3.95956 19.0475 5.1287 19.0002 6.3012V6.51255L15.0207 7.74913C15.7997 4.84091 17.2353 3.4031 18.4831 2.86237L18.4854 2.85001ZM16.9565 1.41894C17.1926 1.42456 17.4208 1.49763 17.6153 1.63029C15.9549 2.40371 14.2 4.35527 13.4469 8.26287L10.2992 9.22741C11.1873 6.26186 13.2591 1.4122 16.9543 1.4122L16.9565 1.41894Z" fill="#CECFCC"/>
<path d="M31.1744 7.46349C31.0339 7.44101 27.9481 7.22741 27.9481 7.22741L25.5952 4.87453C25.5086 4.7846 25.3906 4.73513 25.2658 4.73401L23.5481 39.9474L35.8847 37.2877L31.5274 7.81423C31.4982 7.63436 31.3566 7.49047 31.1756 7.46236L31.1744 7.46349Z" fill="#A9AAA7"/>
<path d="M19.3565 14.2899L17.8254 18.8091C16.9002 18.3594 15.8873 18.12 14.8598 18.1009C12.4575 18.1009 12.3417 19.6073 12.3417 19.985C12.3417 22.0422 17.7321 22.8336 17.7321 27.6833C17.7321 31.4965 15.3072 33.9449 12.0584 33.9449C8.1508 33.9449 6.14978 31.5201 6.14978 31.5201L7.18851 28.0576C7.18851 28.0576 9.2345 29.8226 10.9792 29.8226C11.1877 29.8308 11.3958 29.7966 11.5907 29.722C11.7856 29.6473 11.9633 29.5339 12.113 29.3885C12.2627 29.2431 12.3813 29.0688 12.4616 28.8761C12.5419 28.6835 12.5822 28.4765 12.58 28.2678C12.58 25.5586 8.15417 25.4417 8.15417 21.017C8.15417 17.296 10.8364 13.6705 16.2279 13.6705C18.347 13.702 19.3599 14.2888 19.3599 14.2888L19.3565 14.2899Z" fill="#090D06"/>
<path d="M54.3145 21.4787C53.0623 20.8071 52.4146 20.2265 52.4146 19.4317C52.4146 18.4241 53.2942 17.7732 54.7224 17.7732C55.7825 17.7962 56.828 18.0249 57.8009 18.4465L58.9556 14.9378C58.9556 14.9378 57.8969 14.1189 54.7943 14.1189C50.4667 14.1189 47.4601 16.5978 47.4601 20.081C47.4601 22.0513 48.8546 23.5674 50.729 24.6485C52.2435 25.5281 52.776 26.1102 52.776 27.0282C52.776 27.9462 52.0308 28.7122 50.6122 28.7122C48.522 28.7122 46.5501 27.6311 46.5501 27.6311L45.3251 31.1399C45.3251 31.1399 47.153 32.3649 50.206 32.3649C54.652 32.3649 57.8505 30.1771 57.8505 26.2238C57.8745 24.0839 56.2624 22.5934 54.3321 21.4628L54.3145 21.4787ZM72.0568 14.0981C69.869 14.0981 68.1386 15.1329 66.8144 16.7305L66.7408 16.7065L68.6408 6.76551H63.691L58.882 32.0819H63.835L65.4934 23.4266C66.1427 20.1577 67.8331 18.1363 69.4116 18.1363C70.5151 18.1363 70.9501 18.8815 70.9501 19.9642C70.9501 20.6999 70.8765 21.4308 70.7342 22.152L68.8599 32.0579H73.8128L75.7607 21.8226C75.9734 20.7623 76.0965 19.686 76.1205 18.6081C76.0965 15.8189 74.63 14.1365 72.0584 14.1365L72.0568 14.0981ZM87.2978 14.0981C81.3357 14.0981 77.3919 19.4845 77.3919 25.4529C77.3919 29.3008 79.7716 32.3777 84.2208 32.3777C90.0693 32.3777 94.0307 27.1353 94.0307 21.023C94.0307 17.4646 91.9404 14.0981 87.3058 14.0981H87.2978ZM84.8669 28.5955C83.1829 28.5955 82.4632 27.1561 82.4632 25.3809C82.4632 22.5439 83.9249 17.9044 86.6245 17.9044C88.3789 17.9044 88.9642 19.4189 88.9642 20.887C88.9578 23.9336 87.4929 28.5955 84.8701 28.5955H84.8669ZM106.697 14.0981C103.338 14.0981 101.454 17.0216 101.454 17.0216H101.381L101.674 14.3892H97.2868L96.2792 20.9542L92.8408 39.0835H97.7714L99.1435 31.7492H99.2395C99.2395 31.7492 100.247 32.3985 102.15 32.3985C107.968 32.3985 111.767 26.4365 111.767 20.4104C111.791 17.092 110.305 14.1125 106.694 14.1125L106.697 14.0981ZM101.96 28.6674C101.212 28.6823 100.485 28.4255 99.9128 27.9446L100.732 23.3035C101.317 20.2249 102.919 18.1571 104.65 18.1571C106.164 18.1571 106.62 19.5516 106.62 20.8758C106.628 24.1015 104.733 28.669 101.966 28.669L101.96 28.6674ZM118.864 6.98141C118.106 6.97661 117.377 7.27727 116.844 7.81622C116.312 8.35518 116.016 9.08604 116.045 9.84409C116.045 11.3058 116.983 12.323 118.384 12.323H118.458C118.84 12.3381 119.221 12.2748 119.578 12.137C119.935 11.9991 120.259 11.7895 120.532 11.5213C120.805 11.253 121.019 10.9317 121.163 10.5773C121.307 10.2228 121.376 9.84262 121.367 9.46027C121.367 8.02093 120.404 6.98141 118.888 6.98141H118.864ZM111.946 32.0339H116.899L120.263 14.49H115.293M132.885 14.466H129.426L129.595 13.6471C129.888 11.9631 130.894 10.4486 132.519 10.4486C133.057 10.4488 133.592 10.5297 134.107 10.6885L135.063 6.81349C135.063 6.81349 134.183 6.38168 132.37 6.38168C130.605 6.3378 128.882 6.92597 127.513 8.04012C125.829 9.47946 125.034 11.5489 124.634 13.6423L124.474 14.4612H122.167L121.444 18.1875H123.751L121.119 32.0371H126.09L128.722 18.1875H132.138L132.81 14.4612L132.885 14.466ZM144.812 14.49L140.315 26.5596H140.241L139.016 14.49H133.796L136.779 30.5978C136.851 30.8731 136.817 31.1653 136.683 31.4166C136.035 32.6112 135.113 33.6332 133.99 34.3992C133.13 34.9909 132.191 35.4611 131.201 35.7938L132.573 39.9998C134.387 39.5142 136.053 38.5861 137.42 37.2987C139.68 35.1812 141.77 31.9123 143.913 27.4632L149.971 14.4804H144.811L144.812 14.49Z" fill="#CECFCC"/>
</svg>