<svg xmlns:xlink="http://www.w3.org/1999/xlink" xmlns="http://www.w3.org/2000/svg" width="91" height="57" viewBox="0 0 91 57" fill="none">
<g clip-path="url(#clip0_971_1084)">
<path d="M33.4727 35.8596H40.9137L28.2517 0L0 56.8957C31.0818 44.4467 60.6753 40.9207 88.1951 49.7477C54.2345 36.8431 33.0335 40.345 13.4428 45.9338L26.9099 18.3496L33.4727 35.8596Z" fill="#CECFCC"/>
<path d="M26.4898 27.0091L20.3418 38.9542C23.4158 37.2512 26.6362 36.3397 30.6129 38.1147L26.4898 27.0091Z" fill="#CECFCC"/>
<path d="M47.35 14.224L46.8377 16.023H45.1787L47.35 9.04294H49.4482L51.6439 16.023H49.9117L49.375 14.224H47.35ZM49.1554 13.0246L48.7163 11.5375C48.5943 11.1298 48.4723 10.6021 48.3504 10.1943H48.3259C48.2283 10.6021 48.1063 11.1298 48.0087 11.5375L47.594 13.0246H49.1554Z" fill="#CECFCC"/>
<path d="M52.5977 9.11502C53.1831 9.01906 53.9639 8.97108 54.769 8.97108C56.1108 8.97108 56.9891 9.21091 57.6722 9.71468C58.4041 10.2423 58.8677 11.1058 58.8677 12.3531C58.8677 13.6964 58.3798 14.6079 57.6966 15.1836C56.9403 15.7832 55.818 16.095 54.4274 16.095C53.5979 16.095 53.0124 16.0471 52.5977 15.9991V9.11502ZM54.2078 14.8238C54.3542 14.8477 54.5738 14.8477 54.769 14.8477C56.2328 14.8477 57.1843 14.0802 57.1843 12.4011C57.1843 10.962 56.3303 10.1944 54.9397 10.1944C54.5738 10.1944 54.3542 10.2184 54.2078 10.2663V14.8238Z" fill="#CECFCC"/>
<path d="M61.5463 15.999L59.2773 9.01899H61.0339L61.8879 11.9693C62.1318 12.8088 62.3514 13.6003 62.5222 14.4639H62.5466C62.7174 13.6244 62.9369 12.7848 63.1809 11.9933L64.0835 9.01899H65.7913L63.4005 15.999H61.5463Z" fill="#CECFCC"/>
<path d="M67.6459 14.224L67.1336 16.023H65.4746L67.6459 9.04294H69.744L71.9398 16.023H70.2076L69.6709 14.224H67.6459ZM69.4513 13.0246L69.0122 11.5375C68.8901 11.1298 68.7681 10.6021 68.6462 10.1943H68.6218C68.5242 10.6021 68.4022 11.1298 68.3046 11.5375L67.8899 13.0246H69.4513Z" fill="#CECFCC"/>
<path d="M72.917 15.999V9.01899H74.7954L76.2595 11.5855C76.6741 12.3291 77.113 13.1926 77.4307 13.9842H77.455C77.3574 13.0727 77.3082 12.1132 77.3082 11.0818V9.04294H78.7723V16.023H77.113L75.6005 13.3366C75.1858 12.593 74.722 11.6815 74.3566 10.8659H74.3323C74.3808 11.7774 74.405 12.7609 74.405 13.9122V16.023H72.917V15.999Z" fill="#CECFCC"/>
<path d="M85.4106 15.8073C85.1178 15.9512 84.4595 16.1191 83.5811 16.1191C81.1168 16.1191 79.8486 14.6079 79.8486 12.6171C79.8486 10.2425 81.5806 8.89921 83.7279 8.89921C84.5572 8.89921 85.1912 9.06711 85.484 9.21105L85.167 10.4583C84.85 10.3144 84.3862 10.1945 83.8247 10.1945C82.5566 10.1945 81.5564 10.962 81.5564 12.4971C81.5564 13.8884 82.4098 14.7758 83.8247 14.7758C84.3128 14.7758 84.85 14.6799 85.167 14.536L85.4106 15.8073Z" fill="#CECFCC"/>
<path d="M90.6802 13.0487H88.0698V14.7038H90.9972V15.999H86.459V9.01899H90.8505V10.3143H88.0698V11.7534H90.6802V13.0487Z" fill="#CECFCC"/>
<path d="M53.4797 33.1726H47.6489L46.673 35.9791H42.6963L48.4051 20.7717H52.7478L58.4568 35.9791H54.4313L53.4797 33.1726ZM52.5039 30.3423L50.5765 24.7055L48.6247 30.3423H52.5039Z" fill="#CECFCC"/>
<path d="M77.4412 20.7479V35.9552H73.6837V26.4327L70.3414 35.9552H67.0721L63.7054 26.4327V35.9552H59.9482V20.7479H64.5593L68.7799 31.3499L72.903 20.7479H77.4412Z" fill="#CECFCC"/>
<path d="M83.9282 32.981H90.8082V35.9793H79.7568V33.1729L86.5143 23.6503H79.8295V20.676H90.7598V23.4824L83.9282 32.981Z" fill="#CECFCC"/>
</g>
<defs>
<clipPath id="clip0_971_1084">
<rect width="91" height="57" fill="white"/>
</clipPath>
</defs>
</svg>