<svg xmlns:xlink="http://www.w3.org/1999/xlink" xmlns="http://www.w3.org/2000/svg" width="207" height="40" viewBox="0 0 207 40" fill="none">
<path d="M121.137 18.0873H113.102V18.9221C115.613 18.9221 116.031 19.4439 116.031 22.6056V28.2978C116.031 31.4804 115.613 32.0647 113.102 32.0647C111.177 31.8143 109.838 30.7256 108.08 28.8004L105.987 26.5395C108.749 26.0178 110.257 24.2786 110.257 22.3552C110.257 19.9273 108.165 18.0021 104.231 18.0021H96.363V18.8369C98.8743 18.8369 99.2917 19.3586 99.2917 22.5204V28.2126C99.2917 31.3952 98.8743 31.9795 96.363 31.9795V32.8143H105.236V31.9795C102.725 31.9795 102.307 31.3934 102.307 28.2126V26.623H103.06L108 32.8143H121.057C127.502 32.8143 130.264 29.383 130.264 25.3656C130.347 21.4317 127.586 18.0839 121.14 18.0839L121.137 18.0873ZM102.389 25.3691V19.4439H104.233C106.241 19.4439 107.161 20.8665 107.161 22.4578C107.161 24.0491 106.24 25.3865 104.233 25.3865L102.389 25.3691ZM121.306 31.5604H120.97C119.38 31.5604 119.126 31.143 119.126 29.1326V19.4282H121.3C125.987 19.4282 126.824 22.8595 126.824 25.4543C126.824 28.216 125.902 31.5639 121.3 31.5639L121.306 31.5604ZM71.4186 27.0613L74.5143 17.9378C75.436 15.2595 75.036 14.5065 72.1699 14.5065V13.5847H80.6221V14.5065C77.7769 14.5065 77.1091 15.176 76.0186 18.4404L70.9108 33.7395H70.2413L65.6378 19.7621L61.0326 33.7395H60.4465L55.5073 18.423C54.4186 15.1586 53.7682 14.4891 51.1543 14.4891V13.5673H61.0326V14.4891C58.3543 14.4891 57.6847 15.0752 58.6047 17.9204L61.6186 27.0439L66.1404 13.5656H66.9752L71.4186 27.0613ZM86.6499 33.5917C81.7108 33.5917 77.6934 29.9917 77.6934 25.5569C77.6934 21.2039 81.6934 17.5221 86.6499 17.5221C91.6065 17.5221 95.6065 21.1221 95.6065 25.5569C95.6065 29.9917 91.6065 33.5917 86.6499 33.5917ZM86.6499 18.8613C82.5491 18.8613 81.1265 22.5447 81.1265 25.4734C81.1265 28.4021 82.5491 32.0856 86.6499 32.0856C90.8343 32.0856 92.2586 28.4021 92.2586 25.4734C92.2586 22.6282 90.836 18.8613 86.6499 18.8613ZM141.393 32.0839V33.0056H131.097V32.0839C134.111 32.0839 134.61 31.3308 134.61 26.8108V19.6108C134.61 15.0891 134.088 14.4212 131.097 14.4212V13.4995H140.387C144.991 13.4995 147.587 15.8439 147.587 19.023C147.587 22.1186 144.993 24.5465 140.387 24.5465H137.876V26.8908C137.876 31.3256 138.398 32.0804 141.389 32.0804L141.393 32.0839ZM140.387 15.176H137.876V22.9604H140.387C142.899 22.9604 144.071 21.2212 144.071 19.1099C144.071 16.9986 142.899 15.176 140.387 15.176ZM178.306 28.8178L178.055 29.6526C177.638 31.1586 177.133 31.6613 173.954 31.6613H173.368C171.024 31.6613 170.606 31.1395 170.606 27.9778V25.8856C174.12 25.8856 174.373 26.2212 174.373 28.5639H175.208V21.8682H174.373C174.373 24.2126 174.123 24.5465 170.606 24.5465V19.5308H173.034C176.217 19.5308 176.718 20.0526 177.135 21.5395L177.386 22.3743H178.139L177.803 18.1899H164.662V19.0247C167.173 19.0247 167.591 19.5465 167.591 22.7082V28.4004C167.591 31.3291 167.255 32.0839 165.246 32.1673C163.403 31.9169 162.064 30.8282 160.307 28.903L158.215 26.6421C160.977 26.1204 162.485 24.3812 162.485 22.4578C162.485 20.0299 160.393 18.1047 156.459 18.1047H148.591V18.9395C151.102 18.9395 151.52 19.4612 151.52 22.623V28.3152C151.52 31.4978 151.102 32.0821 148.591 32.0821V32.9169H157.464V32.0821C154.953 32.0821 154.535 31.496 154.535 28.3152V26.7256H155.288L160.227 32.9169H178.641L178.892 28.7326H178.306V28.8178ZM154.619 25.3865V19.4439H156.462C158.471 19.4439 159.391 20.8665 159.391 22.4578C159.391 24.0491 158.469 25.3865 156.462 25.3865H154.619Z" fill="#CECFCC"/>
<path d="M187.43 33.5912C185.673 33.5912 184.082 32.6694 183.43 32.0851C183.179 32.3355 182.844 33.0068 182.677 33.5912H181.842V27.3999H182.764C183.099 30.3286 185.191 32.0868 187.786 32.0868C189.209 32.0868 190.381 31.252 190.381 29.9129C190.381 28.7407 189.376 27.8207 187.536 26.9842L185.025 25.812C183.268 24.9773 181.929 23.4677 181.929 21.5425C181.929 19.3686 183.938 17.5425 186.699 17.5425C188.205 17.5425 189.461 18.0468 190.212 18.7147C190.463 18.5477 190.63 18.0451 190.798 17.5425H191.633V22.8155H190.711C190.376 20.7233 189.205 18.9651 186.861 18.9651C185.605 18.9651 184.433 19.7181 184.433 20.8086C184.433 21.9807 185.355 22.5651 187.529 23.5703L189.957 24.7425C192.131 25.7477 192.971 27.4207 192.971 28.7425C192.887 31.5877 190.459 33.5947 187.447 33.5947L187.43 33.5912Z" fill="#CECFCC"/>
<path d="M201.241 33.5912C199.484 33.5912 197.893 32.6694 197.241 32.0851C196.99 32.3355 196.655 33.0068 196.488 33.5912H195.653V27.3999H196.575C196.91 30.3286 199.003 32.0868 201.597 32.0868C203.02 32.0868 204.192 31.252 204.192 29.9129C204.192 28.7407 203.187 27.8207 201.347 26.9842L198.836 25.812C197.079 24.9773 195.74 23.4677 195.74 21.5425C195.74 19.3686 197.749 17.5425 200.51 17.5425C202.017 17.5425 203.272 18.0468 204.024 18.7147C204.274 18.5477 204.441 18.0451 204.61 17.5425H205.444V22.8155H204.523C204.187 20.7233 203.017 18.9651 200.672 18.9651C199.417 18.9651 198.244 19.7181 198.244 20.8086C198.244 21.9807 199.166 22.5651 201.34 23.5703L203.768 24.7425C205.942 25.7477 206.782 27.4207 206.782 28.7425C206.698 31.5877 204.27 33.5947 201.258 33.5947L201.241 33.5912Z" fill="#CECFCC"/>
<path d="M3.21602 20.0007C3.21602 26.812 7.29949 32.6811 13.2733 35.4348L4.80486 13.0449C3.82168 15.2181 3.21602 17.5359 3.21602 20.0007ZM33.2371 19.1287C33.2371 17.027 32.4046 15.5057 31.7243 14.4178C30.8171 12.9681 29.986 11.8086 29.986 10.3602C29.986 8.76598 31.2721 7.31496 33.0103 7.31496H33.2371C30.0594 4.49361 25.8252 2.82526 21.151 2.82526C14.8743 2.89814 9.43153 5.94072 6.17915 10.5788H7.31307C9.20339 10.5788 12.0769 10.3615 12.0769 10.3615C13.0601 10.2886 13.1361 11.6654 12.2127 11.8112C12.2127 11.8112 11.2295 11.9413 10.1716 11.9413L16.69 30.4922L20.6214 19.2615L17.8239 11.9426L15.9336 11.8125C14.9504 11.7396 15.1011 10.3628 16.0096 10.3628C16.0096 10.3628 18.9592 10.5801 20.6974 10.5801C22.5877 10.5801 25.4612 10.3628 25.4612 10.3628C26.4444 10.2899 26.5205 11.6667 25.597 11.8125C25.597 11.8125 24.6138 11.9426 23.556 11.9426L30.0743 30.422L31.8886 24.696C32.645 22.3041 33.2493 20.6383 33.2493 19.1157L33.2371 19.1287ZM21.4402 21.5232L16.0721 36.4499C17.6609 36.8845 19.3992 37.1747 21.1374 37.1747C23.2559 37.1747 25.2209 36.813 27.1125 36.2326C27.0365 36.1597 27.0365 36.1024 26.9767 36.0152L21.4402 21.5232ZM36.867 11.8151L37.0028 13.5537C37.0028 15.2923 36.6999 17.2496 35.6421 19.713L30.2101 34.857C35.5036 31.886 39.1321 26.3786 39.1321 20.002C39.056 17.0309 38.225 14.276 36.8643 11.8138L36.867 11.8151ZM21.1374 0C9.64338 0 0.267822 8.98591 0.267822 19.9993C0.267822 31.0128 9.64338 40 21.1374 40C32.6314 40 42.007 31.0141 42.007 20.0007C42.007 8.98721 32.6314 0 21.1374 0ZM21.1374 39.1294C10.173 39.1294 1.251 30.5794 1.251 19.9993C1.251 9.47913 10.173 0.942187 21.1374 0.942187C32.1018 0.942187 41.0238 9.49214 41.0238 19.9993C41.0238 30.5794 32.1018 39.1294 21.1374 39.1294Z" fill="#CECFCC"/>
</svg>