<svg xmlns:xlink="http://www.w3.org/1999/xlink" xmlns="http://www.w3.org/2000/svg" width="185" height="46" viewBox="0 0 185 46" fill="none">
<g clip-path="url(#clip0_61_312)">
<path d="M26.8994 27.6015C29.4056 27.6015 31.4373 25.5698 31.4373 23.0636C31.4373 20.5573 29.4056 18.5256 26.8994 18.5256C24.3932 18.5256 22.3615 20.5573 22.3615 23.0636C22.3615 25.5698 24.3932 27.6015 26.8994 27.6015Z" fill="#CECFCC"/>
<path fill-rule="evenodd" clip-rule="evenodd" d="M26.8996 13.8372C32.9924 13.8372 38.6524 14.7115 42.9201 16.1807C48.062 17.9509 51.2235 20.6341 51.2235 23.0638C51.2235 25.5957 47.8729 28.4462 42.3512 30.2757C38.1766 31.6588 32.6832 32.3808 26.8996 32.3808C20.9698 32.3808 15.3546 31.7031 11.133 30.2605C5.79195 28.4349 2.57495 25.5474 2.57495 23.0638C2.57495 20.6538 5.59348 17.9913 10.6631 16.2238C14.9467 14.7304 20.7465 13.8372 26.8988 13.8372H26.8996Z" stroke="#CECFCC" stroke-width="2"/>
<path fill-rule="evenodd" clip-rule="evenodd" d="M18.8673 18.4768C21.9112 13.1989 25.496 8.73248 28.9008 5.76949C33.003 2.19953 36.9068 0.801437 39.0114 2.01509C41.2048 3.27994 42.0003 7.60657 40.8266 13.3037C39.9402 17.6111 37.8204 22.7304 34.931 27.7406C31.9686 32.8774 28.5765 37.4031 25.2181 40.3386C20.9684 44.0535 16.8599 45.3978 14.7084 44.157C12.6207 42.954 11.8223 39.0083 12.8238 33.7335C13.6701 29.2767 15.7937 23.8063 18.8663 18.4767L18.8673 18.4768Z" stroke="#CECFCC" stroke-width="2"/>
<path fill-rule="evenodd" clip-rule="evenodd" d="M18.875 27.7539C15.8226 22.4819 13.7443 17.1445 12.8769 12.715C11.8326 7.37808 12.5709 3.29759 14.6737 2.0804C16.8649 0.811841 21.0106 2.28339 25.3602 6.14552C28.6489 9.06545 32.0258 13.4578 34.9236 18.4633C37.8945 23.5951 40.1212 28.7943 40.9874 33.1698C42.0835 38.707 41.1963 42.9377 39.0468 44.182C36.9612 45.3894 33.1445 44.1111 29.0749 40.609C25.6364 37.6502 21.9576 33.0782 18.875 27.7538V27.7539Z" stroke="#CECFCC" stroke-width="2"/>
<path fill-rule="evenodd" clip-rule="evenodd" d="M91.8481 38.415L82.9663 25.2043C87.4551 24.8143 91.4999 21.6122 91.4999 15.7623C91.4999 9.80967 87.2091 6 81.1899 6H67.9714V38.3904H72.0662V25.5204H78.6275L87.0131 38.3904L91.8481 38.415ZM80.6999 22.0002H72.0683V9.61672H80.6999C84.5987 9.61672 87.2612 12.1414 87.2612 15.7848C87.2612 19.4283 84.5967 22.0043 80.6999 22.0043V22.0002ZM107.091 38.9959C110.99 38.9959 114.194 37.7335 116.563 35.4038L114.786 33.0228C112.91 34.9173 110.15 35.9847 107.437 35.9847C102.308 35.9847 99.1495 32.2941 98.8534 27.8768H118.139V26.9532C118.139 19.9127 113.896 14.3747 106.693 14.3747C99.8854 14.3747 94.9546 19.8634 94.9546 26.6617C94.9546 33.9957 100.036 38.9774 107.089 38.9774L107.091 38.9959ZM114.492 25.2023H98.8555C99.0536 21.6102 101.566 17.3818 106.649 17.3818C112.076 17.3818 114.442 21.7046 114.492 25.2023ZM142.71 38.413V22.2896C142.71 16.608 138.519 14.3726 133.486 14.3726C129.587 14.3726 126.531 15.635 123.966 18.2583L125.693 20.783C127.813 18.5497 130.134 17.5296 132.994 17.5296C136.447 17.5296 139.013 19.3256 139.013 22.4826V26.7069C137.089 24.5208 134.376 23.5007 131.12 23.5007C127.075 23.5007 122.78 25.9782 122.78 31.2226C122.78 36.3213 127.071 38.9938 131.12 38.9938C134.326 38.9938 137.041 37.8772 139.013 35.7404V38.4088L142.71 38.413ZM132.452 36.3726C128.999 36.3726 126.581 34.2379 126.581 31.2739C126.581 28.2627 128.999 26.126 132.452 26.126C135.067 26.126 137.581 27.0968 139.013 29.0407V33.46C137.583 35.4018 135.067 36.3726 132.452 36.3726ZM160.599 38.9959C164.939 38.9959 167.504 37.2471 169.33 34.9173L166.864 32.6841C165.286 34.7716 163.263 35.7425 160.818 35.7425C155.737 35.7425 152.582 31.8569 152.582 26.6617C152.582 21.4665 155.739 17.6302 160.818 17.6302C163.284 17.6302 165.306 18.5538 166.864 20.6886L169.33 18.4553C167.506 16.1235 164.939 14.3767 160.599 14.3767C153.495 14.3767 148.71 19.7197 148.71 26.6637C148.71 33.657 153.495 38.9795 160.599 38.9795V38.9959ZM180.531 38.9959C182.699 38.9959 184.033 38.3637 184.971 37.4913L183.887 34.7716C183.393 35.3053 182.428 35.7425 181.371 35.7425C179.745 35.7425 178.952 34.4801 178.952 32.7313V18.1618H183.789V14.9576H178.952V8.54731H175.251V14.9576H171.305V18.1638H175.251V33.5113C175.251 37.009 177.028 39 180.531 39V38.9959Z" fill="#CECFCC"/>
</g>
<defs>
<clipPath id="clip0_61_312">
<rect width="184" height="46" fill="white" transform="translate(0.971436)"/>
</clipPath>
</defs>
</svg>