<svg xmlns:xlink="http://www.w3.org/1999/xlink" xmlns="http://www.w3.org/2000/svg" width="188" height="44" viewBox="0 0 188 44" fill="none">
<mask id="mask0_61_262" style="mask-type:luminance" maskUnits="userSpaceOnUse" x="0" y="0" width="187" height="44">
<path d="M186.724 0.960327H0.97876V43.0403H186.724V0.960327Z" fill="white"/>
</mask>
<g mask="url(#mask0_61_262)">
<path d="M53.7695 35.1225V7.06909H70.84V12.4988H60.2368V20.04H70.84V25.3942H60.2368V35.1225H53.7695Z" fill="#CECFCC"/>
<path d="M75.1267 35.1208V15.8167H81.2179V19.8133C81.5187 18.4559 82.1955 17.3248 83.1731 16.5708C84.1507 15.8167 85.2787 15.4396 86.4819 15.4396C87.0835 15.4396 87.6852 15.5151 88.0611 15.5905V21.3213C87.3091 21.246 86.7075 21.1706 86.2563 21.1706C82.8723 21.1706 81.2179 23.3574 81.2179 27.5801V35.0453H75.1267V35.1208Z" fill="#CECFCC"/>
<path d="M98.5884 35.5733C95.8061 35.5733 93.55 34.593 91.9708 32.7079C90.3165 30.8227 89.5645 28.3344 89.5645 25.3935C89.5645 22.4527 90.3916 20.0397 92.046 18.079C93.7005 16.1939 95.9564 15.2136 98.6637 15.2136C100.017 15.2136 101.22 15.5153 102.273 16.1185C103.326 16.7218 104.153 17.4759 104.68 18.5315V15.7416H110.771V35.0455H104.68V32.3309C104.153 33.3112 103.326 34.0652 102.198 34.6685C101.145 35.3471 99.942 35.5733 98.5884 35.5733ZM100.318 30.5211C101.747 30.5211 102.95 30.0687 103.702 29.0884C104.454 28.1081 104.905 26.9017 104.905 25.4689C104.905 24.0362 104.529 22.8297 103.702 21.8494C102.875 20.8691 101.747 20.4167 100.318 20.4167C98.9645 20.4167 97.8364 20.8691 97.0092 21.8494C96.1821 22.7543 95.7308 24.0362 95.7308 25.4689C95.7308 26.977 96.1821 28.1835 97.0092 29.1638C97.8364 30.0687 98.9645 30.5211 100.318 30.5211Z" fill="#CECFCC"/>
<path d="M115.809 35.1204V15.8165H121.9V18.6066C122.351 17.6262 123.028 16.7968 124.006 16.1935C124.983 15.5903 126.111 15.2887 127.389 15.2887C130.397 15.2887 132.428 16.4952 133.406 18.8328C133.932 17.777 134.76 16.8721 135.812 16.269C136.94 15.5903 138.144 15.2887 139.497 15.2887C144.084 15.2887 146.34 17.9279 146.34 23.1309V35.1204H140.174V24.262C140.174 21.6982 139.196 20.4917 137.317 20.4917C135.135 20.4917 134.082 22.0752 134.082 25.2423V35.1959H128.067V24.1866C128.067 21.6982 127.088 20.4162 125.209 20.4162C124.156 20.4162 123.329 20.7933 122.803 21.472C122.276 22.1507 121.975 23.4325 121.975 25.1668V35.1204H115.809Z" fill="#CECFCC"/>
<path d="M170.255 24.4128C170.255 25.2423 170.179 26.0717 170.104 27.1275H155.892C155.966 28.4093 156.343 29.3896 157.17 30.0683C157.997 30.7469 159.05 31.124 160.403 31.124C162.283 31.124 163.486 30.5207 164.013 29.3142H170.03C169.729 31.1994 168.675 32.7829 166.946 33.9139C165.141 35.1204 163.036 35.7237 160.479 35.7237C157.17 35.7237 154.613 34.8188 152.733 33.0092C150.853 31.1994 149.875 28.7109 149.875 25.4685C149.875 22.3014 150.853 19.8131 152.733 18.0033C154.613 16.1935 157.17 15.2887 160.253 15.2887C163.261 15.2887 165.667 16.1181 167.548 17.8524C169.277 19.5113 170.255 21.6982 170.255 24.4128ZM155.816 23.2817H164.164C164.164 21.9998 163.787 21.0195 163.111 20.3409C162.434 19.6622 161.456 19.2851 160.102 19.2851C158.824 19.2851 157.772 19.6622 157.019 20.4162C156.267 21.1703 155.892 22.1507 155.816 23.2817Z" fill="#CECFCC"/>
<path d="M173.714 35.1208V15.8167H179.805V19.8133C180.106 18.4559 180.783 17.3248 181.76 16.5708C182.739 15.8167 183.867 15.4396 185.069 15.4396C185.671 15.4396 186.273 15.5151 186.649 15.5905V21.3213C185.896 21.246 185.294 21.1706 184.844 21.1706C181.459 21.1706 179.805 23.3574 179.805 27.5801V35.0453H173.714V35.1208Z" fill="#CECFCC"/>
<path d="M28.9533 0.960327V14.987H14.9661L0.97876 0.960327H28.9533ZM0.97876 14.987H14.9661L28.9533 29.0137H14.9661V43.0403L0.97876 29.0137V14.987Z" fill="#CECFCC"/>
</g>
</svg>