<svg xmlns:xlink="http://www.w3.org/1999/xlink" xmlns="http://www.w3.org/2000/svg" width="63" height="10" viewBox="0 0 63 10" fill="none">
<g clip-path="url(#clip0_19_726)">
<path d="M10.9631 3.74169C10.8731 3.48104 10.6373 3.29156 10.3522 3.252L7.46445 2.85225L6.17405 0.368343C5.91855 -0.122781 5.0741 -0.122781 4.81859 0.368343L3.5282 2.85225L0.647249 3.252C0.362982 3.29156 0.126381 3.48171 0.0371925 3.74246C-0.0519963 4.00244 0.0221171 4.28839 0.228446 4.47987L2.31794 6.42006L1.82503 9.15743C1.77666 9.42746 1.89311 9.70114 2.12588 9.86246C2.2574 9.95317 2.41317 9.99924 2.56962 9.99924C2.69059 9.99924 2.81156 9.97184 2.92336 9.91638L5.49673 8.62365L8.07833 9.91638C8.33233 10.0453 8.64072 10.0237 8.87442 9.86168C9.1065 9.70037 9.22294 9.42746 9.17457 9.15732L8.68247 6.41995L10.772 4.47976C10.9782 4.28905 11.0516 4.00244 10.9631 3.74169Z" fill="#F0FF3E"/>
<path d="M23.9631 3.74169C23.8731 3.48104 23.6373 3.29156 23.3522 3.252L20.4644 2.85225L19.1741 0.368343C18.9186 -0.122781 18.0741 -0.122781 17.8186 0.368343L16.5282 2.85225L13.6472 3.252C13.363 3.29156 13.1264 3.48171 13.0372 3.74246C12.948 4.00244 13.0221 4.28839 13.2284 4.47987L15.3179 6.42006L14.825 9.15743C14.7767 9.42746 14.8931 9.70114 15.1259 9.86246C15.2574 9.95317 15.4132 9.99924 15.5696 9.99924C15.6906 9.99924 15.8116 9.97184 15.9234 9.91638L18.4967 8.62365L21.0783 9.91638C21.3323 10.0453 21.6407 10.0237 21.8744 9.86168C22.1065 9.70037 22.2229 9.42746 22.1746 9.15732L21.6825 6.41995L23.772 4.47976C23.9782 4.28905 24.0516 4.00244 23.9631 3.74169Z" fill="#F0FF3E"/>
<path d="M36.9631 3.74169C36.8731 3.48104 36.6373 3.29156 36.3522 3.252L33.4644 2.85225L32.1741 0.368343C31.9186 -0.122781 31.0741 -0.122781 30.8186 0.368343L29.5282 2.85225L26.6472 3.252C26.363 3.29156 26.1264 3.48171 26.0372 3.74246C25.948 4.00244 26.0221 4.28839 26.2284 4.47987L28.3179 6.42006L27.825 9.15743C27.7767 9.42746 27.8931 9.70114 28.1259 9.86246C28.2574 9.95317 28.4132 9.99924 28.5696 9.99924C28.6906 9.99924 28.8116 9.97184 28.9234 9.91638L31.4967 8.62365L34.0783 9.91638C34.3323 10.0453 34.6407 10.0237 34.8744 9.86168C35.1065 9.70037 35.2229 9.42746 35.1746 9.15732L34.6825 6.41995L36.772 4.47976C36.9782 4.28905 37.0516 4.00244 36.9631 3.74169Z" fill="#F0FF3E"/>
<path d="M49.9631 3.74169C49.8731 3.48104 49.6373 3.29156 49.3522 3.252L46.4644 2.85225L45.1741 0.368343C44.9186 -0.122781 44.0741 -0.122781 43.8186 0.368343L42.5282 2.85225L39.6472 3.252C39.363 3.29156 39.1264 3.48171 39.0372 3.74246C38.948 4.00244 39.0221 4.28839 39.2284 4.47987L41.3179 6.42006L40.825 9.15743C40.7767 9.42746 40.8931 9.70114 41.1259 9.86246C41.2574 9.95317 41.4132 9.99924 41.5696 9.99924C41.6906 9.99924 41.8116 9.97184 41.9234 9.91638L44.4967 8.62365L47.0783 9.91638C47.3323 10.0453 47.6407 10.0237 47.8744 9.86168C48.1065 9.70037 48.2229 9.42746 48.1746 9.15732L47.6825 6.41995L49.772 4.47976C49.9782 4.28905 50.0516 4.00244 49.9631 3.74169Z" fill="#F0FF3E"/>
<path d="M62.9631 3.74169C62.8731 3.48104 62.6373 3.29156 62.3522 3.252L59.4644 2.85225L58.1741 0.368343C57.9186 -0.122781 57.0741 -0.122781 56.8186 0.368343L55.5282 2.85225L52.6472 3.252C52.363 3.29156 52.1264 3.48171 52.0372 3.74246C51.948 4.00244 52.0221 4.28839 52.2284 4.47987L54.3179 6.42006L53.825 9.15743C53.7767 9.42746 53.8931 9.70114 54.1259 9.86246C54.2574 9.95317 54.4132 9.99924 54.5696 9.99924C54.6906 9.99924 54.8116 9.97184 54.9234 9.91638L57.4967 8.62365L60.0783 9.91638C60.3323 10.0453 60.6407 10.0237 60.8744 9.86168C61.1065 9.70037 61.2229 9.42746 61.1746 9.15732L60.6825 6.41995L62.772 4.47976C62.9782 4.28905 63.0516 4.00244 62.9631 3.74169Z" fill="#F0FF3E"/>
</g>
<defs>
<clipPath id="clip0_19_726">
<rect width="63" height="10" fill="white"/>
</clipPath>
</defs>
</svg>