<svg xmlns="http://www.w3.org/2000/svg" xmlns:xlink="http://www.w3.org/1999/xlink" viewBox="0 0 128 128" width="128" height="128" preserveAspectRatio="xMidYMid meet" style="width: 100%; height: 100%; transform: translate3d(0px, 0px, 0px); content-visibility: visible;"><defs><clipPath id="__lottie_element_19"><rect width="128" height="128" x="0" y="0"></rect></clipPath></defs><g clip-path="url(#__lottie_element_19)"><g transform="matrix(1,0,0,1,0,0)" opacity="1" style="display: block;"><g opacity="1" transform="matrix(1,0,0,1,64,64)"><path stroke-linecap="butt" stroke-linejoin="miter" fill-opacity="0" stroke-miterlimit="4" stroke="#000000" stroke-opacity="1" stroke-width="5px" d=" M0,-37 C20.434999465942383,-37 37,-20.434999465942383 37,0 C37,20.434999465942383 20.434999465942383,37 0,37 C-20.434999465942383,37 -37,20.434999465942383 -37,0 C-37,-20.434999465942383 -20.434999465942383,-37 0,-37z"></path></g></g><g transform="matrix(1,0,0,1,0,0)" opacity="1" style="display: block;"><g opacity="1" transform="matrix(1,0,0,1,71.56999969482422,71.56999969482422)"><path stroke-linecap="round" stroke-linejoin="miter" fill-opacity="0" stroke-miterlimit="4" stroke="#000000" stroke-opacity="1" stroke-width="5px" d=" M-7.570000171661377,-7.570000171661377 C-7.570000171661377,-7.570000171661377 7.570000171661377,7.570000171661377 7.570000171661377,7.570000171661377"></path></g></g><g transform="matrix(1,0,0,1,0,0)" opacity="1" style="display: block;"><g opacity="1" transform="matrix(1,0,0,1,0,0)"><path stroke-linecap="round" stroke-linejoin="miter" fill-opacity="0" stroke-miterlimit="4" stroke="#000000" stroke-opacity="1" stroke-width="5px" d=" M64,49 C64,49 64,64 64,64"></path></g></g></g></svg>