<svg xmlns:xlink="http://www.w3.org/1999/xlink" xmlns="http://www.w3.org/2000/svg" width="344" height="71" viewBox="0 0 344 71" fill="none">
<path d="M26.248 33.6238C26.248 32.2817 25.9985 31.0257 25.4996 29.8557C25.0178 28.6856 24.3467 27.6705 23.4864 26.8102C22.6261 25.9326 21.6024 25.2444 20.4151 24.7454C19.2451 24.2292 17.9719 23.9711 16.5954 23.9711H13.1369V43.2249H16.5954C17.9719 43.2249 19.2451 42.9754 20.4151 42.4764C21.6024 41.9602 22.6261 41.2719 23.4864 40.4116C24.3467 39.5341 25.0178 38.519 25.4996 37.3661C25.9985 36.1961 26.248 34.9487 26.248 33.6238ZM3.56168 50.916V16.3058C3.56168 15.5659 3.92301 15.196 4.64567 15.196H17.4987C19.0472 15.196 20.57 15.4197 22.0669 15.867C23.5811 16.2972 25.0178 16.908 26.3771 17.6995C27.7364 18.491 28.9924 19.4545 30.1452 20.5901C31.298 21.7085 32.296 22.9474 33.1391 24.3067C33.9822 25.6659 34.6446 27.1371 35.1264 28.72C35.6082 30.2858 35.8491 31.9204 35.8491 33.6238C35.8491 35.224 35.6254 36.7983 35.178 38.3469C34.7479 39.8782 34.1371 41.3236 33.3456 42.6829C32.5541 44.0421 31.5991 45.2982 30.4807 46.451C29.3623 47.5866 28.1235 48.5674 26.7642 49.3933C25.4049 50.202 23.9424 50.8386 22.3766 51.3031C20.8281 51.7677 19.2021 52 17.4987 52H4.64567C3.92301 52 3.56168 51.6387 3.56168 50.916ZM42.253 50.916V16.3058C42.253 15.5659 42.6143 15.196 43.337 15.196H67.9848C68.7075 15.196 69.0688 15.5659 69.0688 16.3058V22.6549C69.0688 23.3775 68.7075 23.7389 67.9848 23.7389H51.8282V29.8557H64.0876C64.4662 29.8557 64.7587 29.9503 64.9651 30.1396C65.1888 30.3116 65.3007 30.5955 65.3007 30.9913V36.1015C65.3007 36.8242 64.8963 37.1855 64.0876 37.1855H51.8282V43.5088H68.4494C69.1893 43.5088 69.5592 43.8701 69.5592 44.5927V50.916C69.5592 51.6387 69.1893 52 68.4494 52H43.337C42.6143 52 42.253 51.6387 42.253 50.916ZM107.567 16.3058L94.3006 50.916C94.0253 51.6387 93.5263 52 92.8037 52H86.9708C86.2653 52 85.7663 51.6387 85.4738 50.916L72.1821 16.2542C71.8895 15.5143 72.1218 15.1444 72.8789 15.1444L80.7765 15.196C81.5164 15.196 82.0068 15.5659 82.2477 16.3058L89.8614 38.5018L97.3977 16.3058C97.6558 15.5659 98.1462 15.196 98.8688 15.196H106.87C107.627 15.196 107.859 15.5659 107.567 16.3058ZM112.277 50.916V16.3058C112.277 15.5659 112.638 15.196 113.361 15.196H138.009C138.731 15.196 139.093 15.5659 139.093 16.3058V22.6549C139.093 23.3775 138.731 23.7389 138.009 23.7389H121.852V29.8557H134.111C134.49 29.8557 134.782 29.9503 134.989 30.1396C135.213 30.3116 135.324 30.5955 135.324 30.9913V36.1015C135.324 36.8242 134.92 37.1855 134.111 37.1855H121.852V43.5088H138.473C139.213 43.5088 139.583 43.8701 139.583 44.5927V50.916C139.583 51.6387 139.213 52 138.473 52H113.361C112.638 52 112.277 51.6387 112.277 50.916ZM144.864 50.916V16.3058C144.864 15.9445 144.967 15.6692 145.174 15.4799C145.38 15.2906 145.63 15.196 145.922 15.196H153.33C154.052 15.196 154.414 15.5659 154.414 16.3058V43.2249H168.144C168.867 43.2249 169.228 43.5862 169.228 44.3088V50.916C169.228 51.6387 168.867 52 168.144 52H145.922C145.217 52 144.864 51.6387 144.864 50.916ZM235.926 23.0678H230.583V31.3268H235.926C236.528 31.3268 237.061 31.2149 237.526 30.9913C238.008 30.7504 238.403 30.4407 238.713 30.0621C239.04 29.6664 239.289 29.219 239.462 28.72C239.634 28.2211 239.72 27.7135 239.72 27.1973C239.72 26.6983 239.634 26.2079 239.462 25.7262C239.289 25.2272 239.04 24.7798 238.713 24.3841C238.386 23.9883 237.99 23.67 237.526 23.4291C237.061 23.1883 236.528 23.0678 235.926 23.0678ZM221.034 50.916V16.3058C221.034 15.9445 221.137 15.6692 221.343 15.4799C221.55 15.2906 221.799 15.196 222.092 15.196H237.99C239.694 15.196 241.251 15.5401 242.662 16.2284C244.073 16.9166 245.277 17.8285 246.275 18.9641C247.29 20.0825 248.073 21.3644 248.624 22.8097C249.174 24.255 249.45 25.7348 249.45 27.2489C249.45 28.7459 249.174 30.2084 248.624 31.6365C248.09 33.0474 247.325 34.3121 246.327 35.4305C245.346 36.5489 244.159 37.4522 242.765 38.1404C241.389 38.8115 239.857 39.147 238.171 39.147H230.583V50.916C230.583 51.6387 230.205 52 229.448 52H222.092C221.386 52 221.034 51.6387 221.034 50.916ZM254.821 50.916V16.3058C254.821 15.5659 255.183 15.196 255.905 15.196H263.313C264.035 15.196 264.397 15.5659 264.397 16.3058V50.916C264.397 51.6387 264.035 52 263.313 52H255.905C255.183 52 254.821 51.6387 254.821 50.916ZM270.704 33.598C270.704 30.9827 271.194 28.5222 272.175 26.2165C273.173 23.9109 274.532 21.9064 276.253 20.203C277.973 18.4824 279.978 17.1317 282.266 16.1509C284.572 15.153 287.032 14.654 289.648 14.654C292.263 14.654 294.724 15.153 297.029 16.1509C299.335 17.1317 301.339 18.4824 303.043 20.203C304.763 21.9064 306.114 23.9109 307.095 26.2165C308.093 28.5222 308.592 30.9827 308.592 33.598C308.592 36.2133 308.093 38.6738 307.095 40.9794C306.114 43.2679 304.763 45.2724 303.043 46.993C301.339 48.6964 299.335 50.0471 297.029 51.0451C294.724 52.0258 292.263 52.5162 289.648 52.5162C287.032 52.5162 284.572 52.0258 282.266 51.0451C279.978 50.0471 277.973 48.6964 276.253 46.993C274.532 45.2724 273.173 43.2679 272.175 40.9794C271.194 38.6738 270.704 36.2133 270.704 33.598ZM280.227 33.598C280.227 34.9573 280.46 36.2391 280.924 37.4436C281.406 38.6308 282.06 39.6718 282.886 40.5665C283.729 41.444 284.727 42.1409 285.88 42.657C287.032 43.1732 288.288 43.4313 289.648 43.4313C291.024 43.4313 292.28 43.1732 293.416 42.657C294.569 42.1409 295.567 41.444 296.41 40.5665C297.253 39.6718 297.907 38.6308 298.371 37.4436C298.836 36.2391 299.068 34.9573 299.068 33.598C299.068 32.2215 298.836 30.9396 298.371 29.7524C297.907 28.5652 297.253 27.5242 296.41 26.6295C295.567 25.7348 294.569 25.0379 293.416 24.5389C292.28 24.0228 291.024 23.7647 289.648 23.7647C288.288 23.7647 287.032 24.0228 285.88 24.5389C284.727 25.0379 283.729 25.7348 282.886 26.6295C282.06 27.5242 281.406 28.5652 280.924 29.7524C280.46 30.9396 280.227 32.2215 280.227 33.598ZM313.647 46.1929C313.492 46.0209 313.346 45.8488 313.208 45.6767C313.088 45.5047 313.002 45.3326 312.95 45.1605C312.899 44.9713 312.899 44.782 312.95 44.5927C313.019 44.4035 313.157 44.2056 313.363 43.9991L317.647 39.9213C317.888 39.6804 318.138 39.5599 318.396 39.5599C318.585 39.5599 318.774 39.6116 318.964 39.7148C319.17 39.818 319.368 39.9557 319.557 40.1277C320.022 40.5063 320.538 40.9278 321.106 41.3924C321.691 41.8398 322.31 42.2613 322.964 42.657C323.618 43.0356 324.306 43.3539 325.029 43.612C325.752 43.8701 326.491 43.9991 327.249 43.9991C328.092 43.9991 328.78 43.9045 329.313 43.7152C329.847 43.526 330.268 43.2765 330.578 42.9668C330.888 42.657 331.094 42.2957 331.197 41.8828C331.318 41.4526 331.378 41.0053 331.378 40.5407C331.378 40.0245 331.197 39.5685 330.836 39.1728C330.475 38.7598 330.027 38.4071 329.494 38.1146C328.961 37.8049 328.401 37.5382 327.816 37.3145C327.231 37.0908 326.715 36.9016 326.268 36.7467C324.289 36.0585 322.534 35.31 321.003 34.5013C319.489 33.6926 318.224 32.7979 317.209 31.8172C316.194 30.8364 315.419 29.7524 314.886 28.5652C314.37 27.378 314.112 26.0617 314.112 24.6164C314.112 23.085 314.439 21.6913 315.092 20.4353C315.746 19.1792 316.658 18.1124 317.828 17.2349C319.015 16.3402 320.426 15.652 322.061 15.1702C323.713 14.6712 325.537 14.4217 327.532 14.4217C328.651 14.4217 329.778 14.5422 330.913 14.783C332.066 15.0067 333.167 15.3336 334.217 15.7638C335.284 16.1939 336.273 16.7101 337.185 17.3123C338.114 17.8974 338.897 18.5426 339.534 19.248C339.878 19.6438 340.05 20.0223 340.05 20.3837C340.05 20.745 339.852 21.1235 339.456 21.5193L335.662 25.5713C335.404 25.8294 335.138 25.9585 334.862 25.9585C334.639 25.9585 334.424 25.8982 334.217 25.7778C334.011 25.6401 333.795 25.4767 333.572 25.2874C332.677 24.4787 331.757 23.8335 330.81 23.3517C329.864 22.8699 328.78 22.6291 327.558 22.6291C327.094 22.6291 326.629 22.6721 326.165 22.7581C325.7 22.8269 325.278 22.9646 324.9 23.1711C324.539 23.3603 324.237 23.6184 323.997 23.9453C323.773 24.255 323.661 24.6422 323.661 25.1067C323.661 25.5713 323.79 25.9757 324.048 26.3198C324.306 26.6467 324.685 26.9564 325.184 27.2489C325.683 27.5242 326.285 27.7995 326.99 28.0748C327.713 28.3329 328.522 28.6082 329.417 28.9007C331.172 29.4857 332.772 30.0965 334.217 30.7332C335.68 31.3698 336.927 32.1269 337.959 33.0044C339.009 33.8647 339.818 34.8971 340.385 36.1015C340.97 37.3059 341.263 38.7685 341.263 40.4891C341.263 42.2957 340.902 43.9389 340.179 45.4186C339.474 46.8984 338.484 48.163 337.211 49.2126C335.955 50.245 334.467 51.0451 332.746 51.6129C331.025 52.1807 329.15 52.4646 327.119 52.4646C325.846 52.4646 324.582 52.3011 323.326 51.9742C322.069 51.6301 320.856 51.1741 319.686 50.6063C318.534 50.0385 317.441 49.3761 316.409 48.619C315.393 47.8619 314.473 47.0532 313.647 46.1929Z" fill="white"/>
<ellipse cx="194.76" cy="32.8966" rx="20.3962" ry="20.214" fill="black" stroke="white" stroke-width="1.59709"/>
<path d="M203.545 22.3887C196.15 26.5094 193.54 32.4158 195.28 40.2452C202.24 36.3992 206.155 31.0422 203.545 22.3887Z" fill="#A9FF5D"/>
<path d="M194.05 40.1455C188.44 39.2864 185.106 36.3107 184.144 31.0042C189.528 31.7728 193.375 34.1967 194.05 40.1455Z" fill="#A9FF5D"/>
</svg>