<svg xmlns="http://www.w3.org/2000/svg" xmlns:xlink="http://www.w3.org/1999/xlink" viewBox="0 0 600 600" width="600" height="600" preserveAspectRatio="xMidYMid meet" style="width: 100%; height: 100%; transform: translate3d(0px, 0px, 0px); content-visibility: visible;"><defs><clipPath id="__lottie_element_40"><rect width="600" height="600" x="0" y="0"></rect></clipPath></defs><g clip-path="url(#__lottie_element_40)"><g transform="matrix(1,0,0,1,300,300)" opacity="1" style="display: none;"><g opacity="1" transform="matrix(-0.6101252436637878,-1.147478699684143,1.147478699684143,-0.6101252436637878,0,0)"><g opacity="1" transform="matrix(0.5199999809265137,0,0,0.5199999809265137,0,0)"><path stroke-linecap="round" stroke-linejoin="miter" fill-opacity="0" stroke-miterlimit="4" stroke="#71AA20" stroke-opacity="1" stroke-width="43px" d=" M130.3699951171875,-270.2239990234375 C170.1439971923828,-250.9810028076172 205.03700256347656,-223.21400451660156 232.67100524902344,-189.3000030517578"></path></g></g><g opacity="1" transform="matrix(0.5871434211730957,-0.9771707057952881,0.9771707057952881,0.5871434211730957,0,0)"><g opacity="1" transform="matrix(0.5199999809265137,0,0,0.5199999809265137,0,0)"><path stroke-linecap="round" stroke-linejoin="miter" fill-opacity="0" stroke-miterlimit="4" stroke="#71AA20" stroke-opacity="1" stroke-width="43px" d=" M130.3699951171875,-270.2239990234375 C170.1439971923828,-250.9810028076172 205.03700256347656,-223.21400451660156 232.67100524902344,-189.3000030517578"></path></g></g><g opacity="1" transform="matrix(1,0,0,1,0,0)"><g opacity="1" transform="matrix(0.5199999809265137,0,0,0.5199999809265137,0,0)"><path stroke-linecap="round" stroke-linejoin="miter" fill-opacity="0" stroke-miterlimit="4" stroke="#71AA20" stroke-opacity="1" stroke-width="43px" d=" M130.3699951171875,-270.2239990234375 C170.1439971923828,-250.9810028076172 205.03700256347656,-223.21400451660156 232.67100524902344,-189.3000030517578"></path></g></g></g><g transform="matrix(1,0,0,1,300,300)" opacity="1" style="display: none;"><g opacity="1" transform="matrix(-0.6101252436637878,-1.147478699684143,1.147478699684143,-0.6101252436637878,0,0)"><g opacity="1" transform="matrix(0.5199999809265137,0,0,0.5199999809265137,0,0)"><path stroke-linecap="round" stroke-linejoin="miter" fill-opacity="0" stroke-miterlimit="4" stroke="#71A202" stroke-opacity="1" stroke-width="19px" d=" M0,-300 C2.0169999599456787,-300 4.03000020980835,-299.9800109863281 6.038000106811523,-299.94000244140625"></path></g></g><g opacity="1" transform="matrix(0.5871434211730957,-0.9771707057952881,0.9771707057952881,0.5871434211730957,0,0)"><g opacity="1" transform="matrix(0.5199999809265137,0,0,0.5199999809265137,0,0)"><path stroke-linecap="round" stroke-linejoin="miter" fill-opacity="0" stroke-miterlimit="4" stroke="#71A202" stroke-opacity="1" stroke-width="19px" d=" M0,-300 C2.0169999599456787,-300 4.03000020980835,-299.9800109863281 6.038000106811523,-299.94000244140625"></path></g></g><g opacity="1" transform="matrix(1,0,0,1,0,0)"><g opacity="1" transform="matrix(0.5199999809265137,0,0,0.5199999809265137,0,0)"><path stroke-linecap="round" stroke-linejoin="miter" fill-opacity="0" stroke-miterlimit="4" stroke="#71A202" stroke-opacity="1" stroke-width="19px" d=" M0,-300 C2.0169999599456787,-300 4.03000020980835,-299.9800109863281 6.038000106811523,-299.94000244140625"></path></g></g></g><g transform="matrix(0.699999988079071,0,0,0.699999988079071,300,300)" opacity="1" style="display: block;"><g opacity="1" transform="matrix(0.8137153387069702,1.7450181245803833,-1.7450181245803833,0.8137153387069702,0,0)"><g opacity="1" transform="matrix(0.5199999809265137,0,0,0.5199999809265137,0,0)"><path stroke-linecap="round" stroke-linejoin="miter" fill-opacity="0" stroke-miterlimit="4" stroke="#71A202" stroke-opacity="1" stroke-width="5px" d=" M-0.013000000268220901,-300 C-0.00800000037997961,-300 -0.004000000189989805,-300 0,-300"></path></g></g><g opacity="1" transform="matrix(-0.944454550743103,1.4002114534378052,-1.4002114534378052,-0.944454550743103,0,0)"><g opacity="1" transform="matrix(0.5199999809265137,0,0,0.5199999809265137,0,0)"><path stroke-linecap="round" stroke-linejoin="miter" fill-opacity="0" stroke-miterlimit="4" stroke="#71A202" stroke-opacity="1" stroke-width="5px" d=" M-0.013000000268220901,-300 C-0.00800000037997961,-300 -0.004000000189989805,-300 0,-300"></path></g></g><g opacity="1" transform="matrix(-1.4795135259628296,-0.07753799110651016,0.07753799110651016,-1.4795135259628296,0,0)"><g opacity="1" transform="matrix(0.5199999809265137,0,0,0.5199999809265137,0,0)"><path stroke-linecap="round" stroke-linejoin="miter" fill-opacity="0" stroke-miterlimit="4" stroke="#71A202" stroke-opacity="1" stroke-width="5px" d=" M-0.013000000268220901,-300 C-0.00800000037997961,-300 -0.004000000189989805,-300 0,-300"></path></g></g><g opacity="1" transform="matrix(-0.6101252436637878,-1.147478699684143,1.147478699684143,-0.6101252436637878,0,0)"><g opacity="1" transform="matrix(0.5199999809265137,0,0,0.5199999809265137,0,0)"><path stroke-linecap="round" stroke-linejoin="miter" fill-opacity="0" stroke-miterlimit="4" stroke="#71A202" stroke-opacity="1" stroke-width="5px" d=" M-0.013000000268220901,-300 C-0.00800000037997961,-300 -0.004000000189989805,-300 0,-300"></path></g></g><g opacity="1" transform="matrix(0.5871434211730957,-0.9771707057952881,0.9771707057952881,0.5871434211730957,0,0)"><g opacity="1" transform="matrix(0.5199999809265137,0,0,0.5199999809265137,0,0)"><path stroke-linecap="round" stroke-linejoin="miter" fill-opacity="0" stroke-miterlimit="4" stroke="#71A202" stroke-opacity="1" stroke-width="5px" d=" M-0.013000000268220901,-300 C-0.00800000037997961,-300 -0.004000000189989805,-300 0,-300"></path></g></g><g opacity="1" transform="matrix(1,0,0,1,0,0)"><g opacity="1" transform="matrix(0.5199999809265137,0,0,0.5199999809265137,0,0)"><path stroke-linecap="round" stroke-linejoin="miter" fill-opacity="0" stroke-miterlimit="4" stroke="#71A202" stroke-opacity="1" stroke-width="5px" d=" M-0.013000000268220901,-300 C-0.00800000037997961,-300 -0.004000000189989805,-300 0,-300"></path></g></g></g></g></svg>