<svg xmlns="http://www.w3.org/2000/svg" xmlns:xlink="http://www.w3.org/1999/xlink" viewBox="0 0 128 128" width="128" height="128" preserveAspectRatio="xMidYMid meet" style="width: 100%; height: 100%; transform: translate3d(0px, 0px, 0px); content-visibility: visible;"><defs><clipPath id="__lottie_element_29"><rect width="128" height="128" x="0" y="0"></rect></clipPath></defs><g clip-path="url(#__lottie_element_29)"><g transform="matrix(0.9993515610694885,0,0,0.9993515610694885,0.041500091552734375,0.041500091552734375)" opacity="1" style="display: block;"><g opacity="1" transform="matrix(1,0,0,1,64,64)"><path stroke-linecap="butt" stroke-linejoin="miter" fill-opacity="0" stroke-miterlimit="4" stroke="#000000" stroke-opacity="1" stroke-width="5px" d=" M-11,-37 C-11,-37 11,-37 11,-37 C25.358999252319336,-37 37,-25.358999252319336 37,-11 C37,-11 37,11 37,11 C37,25.358999252319336 25.358999252319336,37 11,37 C11,37 -11,37 -11,37 C-25.358999252319336,37 -37,25.358999252319336 -37,11 C-37,11 -37,-11 -37,-11 C-37,-25.358999252319336 -25.358999252319336,-37 -11,-37z"></path></g></g><g transform="matrix(1.0012788772583008,-0.002725598169490695,0.002725598169490695,1.0012788772583008,-0.2562864422798157,0.09259013831615448)" opacity="1" style="display: block;"><g opacity="1" transform="matrix(1,0,0,1,63.5,63.3849983215332)"><path stroke-linecap="round" stroke-linejoin="miter" fill-opacity="0" stroke-miterlimit="4" stroke="#000000" stroke-opacity="1" stroke-width="5px" d=" M-15.309000015258789,3.2739999294281006 C-14.302000045776367,4.265999794006348 -9.645999908447266,8.85200023651123 -9.645999908447266,8.85200023651123 C-8.08899974822998,10.385000228881836 -5.590000152587891,10.385000228881836 -4.0329999923706055,8.85200023651123 C-4.0329999923706055,8.85200023651123 15.5,-10.385000228881836 15.5,-10.385000228881836"></path></g></g><g transform="matrix(1.0012788772583008,-0.002725598169490695,0.002725598169490695,1.0012788772583008,-0.29717040061950684,-14.926592826843262)" opacity="1" style="display: block;"><g opacity="1" transform="matrix(1,0,0,1,63.5,63.3849983215332)"><path stroke-linecap="round" stroke-linejoin="miter" fill-opacity="0" stroke-miterlimit="4" stroke="#000000" stroke-opacity="1" stroke-width="5px" d="M0 0"></path></g></g></g></svg>