<svg xmlns:xlink="http://www.w3.org/1999/xlink" xmlns="http://www.w3.org/2000/svg" width="63" height="21" viewBox="0 0 63 21" fill="none">
<g clip-path="url(#clip0_2678_6127)">
<path d="M57.763 10.28H55.534C54.0991 10.28 53.3303 11.4111 53.3303 13.296V20.1099H49.1027V10.2793H47.3087C45.8738 10.2793 45.1057 11.4104 45.1057 13.2953V20.1092H40.8774V6.64408H45.1057V8.69098C45.7978 7.10198 46.7458 6.64408 48.1554 6.64408H53.3309V8.69098C54.0231 7.10198 54.9711 6.64408 56.3807 6.64408H57.7637L57.763 10.28ZM39.9548 14.4271H31.1406C31.3711 15.9355 32.2678 16.7973 33.7793 16.7973C34.9065 16.7973 35.7012 16.312 35.9577 15.4509L39.6983 16.5547C38.7763 18.8975 36.4953 20.3252 33.7793 20.3252C29.1927 20.3252 27.0916 16.5813 27.0916 13.3773C27.0916 10.2267 28.9362 6.45613 33.5229 6.45613C38.3913 6.45613 40.0054 10.28 40.0054 13.1081C40.0086 13.5483 39.9917 13.9885 39.9548 14.4271ZM35.8551 11.815C35.7525 10.6566 34.9578 9.58014 33.5235 9.58014C32.1905 9.58014 31.3971 10.1987 31.1406 11.815H35.8551ZM19.713 20.1092H23.4276L28.0655 6.64545H23.8126L21.5576 14.4811L19.2513 6.64476H15.0231L19.713 20.1092ZM2.39171 20.1092H6.59395V10.28H10.5923V20.1099H14.7686V6.64476H6.59395V5.81028C6.59395 4.89447 7.20883 4.32926 8.18278 4.32926H10.5917V0.693359H7.49128C4.44153 0.693359 2.39171 2.65962 2.39171 5.54032V6.64476H0.00878906V10.2807H2.39171V20.1092Z" fill="white"/>
<path d="M60.3777 20.5127C61.8211 20.5127 62.9912 19.2825 62.9912 17.7653C62.9912 16.2481 61.8211 15.0186 60.3777 15.0186C58.9344 15.0186 57.7637 16.2487 57.7637 17.766C57.7637 19.2832 58.9344 20.5127 60.3777 20.5127Z" fill="#1DBF73"/>
</g>
<defs>
<clipPath id="clip0_2678_6127">
<rect width="63" height="20" fill="white" transform="translate(0 0.693359)"/>
</clipPath>
</defs>
</svg>