<svg xmlns:xlink="http://www.w3.org/1999/xlink" xmlns="http://www.w3.org/2000/svg" width="81" height="19" viewBox="0 0 81 19" fill="none">
<path d="M73.7186 8.6344C73.7186 4.46196 70.7833 1.52734 66.6683 1.52734C61.4297 1.52734 57.9186 5.29645 57.9186 10.6789C57.9186 14.8792 60.882 17.786 65.0672 17.786C68.8733 17.786 71.7102 15.964 72.8759 13.0572H68.6486C68.0868 13.9612 66.893 14.5315 65.4324 14.5315C63.1853 14.5315 61.7808 13.0572 61.6544 10.971H73.4799C73.6343 10.1782 73.7186 9.49671 73.7186 8.6344ZM61.9775 8.14762C62.3567 6.22829 64.2386 4.6984 66.5138 4.6984C68.48 4.6984 69.9687 6.11703 69.9687 8.14762H61.9775ZM46.5567 17.4104L47.3151 13.4049C49.6324 13.8639 49.9835 12.5704 50.5874 9.45498L50.8824 7.91118C51.725 3.55793 53.4244 1.38826 58.2838 1.9724L57.5254 5.97795C55.208 5.51898 54.8008 7.2575 54.2811 9.95568L53.9862 11.4995C53.1435 15.9084 51.388 17.9946 46.5567 17.4104ZM40.8827 17.4243L43.7478 1.90286H47.5257L44.6747 17.4243H40.8827ZM19.2402 1.90286H22.9058L24.0996 13.1267L28.9028 1.90286H32.5403L33.8184 13.238L38.453 1.90286H42.1046L35.4616 17.4243H31.3044L29.9561 6.7429L25.3636 17.4243H21.3469L19.2402 1.90286Z" fill="#2E4369"/>
<path d="M5.54713 6.01915L1.19336 10.136H8.59478L9.36722 8.34181H5.61736L7.96278 6.01915L6.60047 3.69649H12.9626L7.09202 17.4238H9.297L15.94 1.90234H3.1034L5.54713 6.01915Z" fill="#00B9FF"/>
</svg>