<svg xmlns="http://www.w3.org/2000/svg" xmlns:xlink="http://www.w3.org/1999/xlink" viewBox="0 0 128 128" width="128" height="128" preserveAspectRatio="xMidYMid meet" style="width: 100%; height: 100%; transform: translate3d(0px, 0px, 0px); content-visibility: visible;"><defs><clipPath id="__lottie_element_5"><rect width="128" height="128" x="0" y="0"></rect></clipPath></defs><g clip-path="url(#__lottie_element_5)"><g transform="matrix(0.996747612953186,-0.08058685809373856,0.08058685809373856,0.996747612953186,-2.2896947860717773,5.268235206604004)" opacity="1" style="display: block;"><g opacity="1" transform="matrix(1,0,0,1,64.06999969482422,56)"><path stroke-linecap="butt" stroke-linejoin="miter" fill-opacity="0" stroke-miterlimit="4" stroke="#000000" stroke-opacity="1" stroke-width="5px" d=" M-22.858999252319336,-2.006999969482422 C-22.858999252319336,-14.706000328063965 -12.564000129699707,-25 0.13500000536441803,-25 C12.833999633789062,-25 23.128000259399414,-14.706000328063965 23.128000259399414,-2.006999969482422 C23.128000259399414,-2.006999969482422 23.128000259399414,0.6129999756813049 23.128000259399414,0.6129999756813049 C23.128000259399414,2.193000078201294 23.39900016784668,3.760999917984009 23.926000595092773,5.25 C23.926000595092773,5.25 27.145000457763672,14.326000213623047 27.145000457763672,14.326000213623047 C28.992000579833984,19.533000946044922 25.128999710083008,25 19.604999542236328,25 C19.604999542236328,25 -19.54599952697754,25 -19.54599952697754,25 C-25.125999450683594,25 -28.990999221801758,19.43000030517578 -27.040000915527344,14.20199966430664 C-27.040000915527344,14.20199966430664 -23.729999542236328,5.336999893188477 -23.729999542236328,5.336999893188477 C-23.152999877929688,3.7909998893737793 -22.858999252319336,2.1549999713897705 -22.858999252319336,0.5049999952316284 C-22.858999252319336,0.5049999952316284 -22.858999252319336,-2.006999969482422 -22.858999252319336,-2.006999969482422z"></path></g></g><g transform="matrix(0.9669491052627563,0.2549695074558258,-0.2549695074558258,0.9669491052627563,21.093015670776367,-14.30026912689209)" opacity="1" style="display: block;"><g opacity="1" transform="matrix(1,0,0,1,64,94.5)"><path stroke-linecap="round" stroke-linejoin="miter" fill-opacity="0" stroke-miterlimit="4" stroke="#000000" stroke-opacity="1" stroke-width="5px" d=" M8,-2.5 C6.400000095367432,2.299999952316284 2.177000045776367,2.5 0,2.5 C-2.1760001182556152,2.5 -6.400000095367432,2.299999952316284 -8,-2.5"></path></g></g><g transform="matrix(0.996747612953186,-0.08058685809373856,0.08058685809373856,0.996747612953186,-2.2896947860717773,5.268235206604004)" opacity="1" style="display: block;"><g opacity="1" transform="matrix(1,0,0,1,57,48.5)"><path stroke-linecap="round" stroke-linejoin="miter" fill-opacity="0" stroke-miterlimit="4" stroke="#000000" stroke-opacity="1" stroke-width="5px" d="M0 0"></path></g></g><g transform="matrix(0.996747612953186,-0.08058685809373856,0.08058685809373856,0.996747612953186,-2.2896947860717773,5.268235206604004)" opacity="1" style="display: block;"><g opacity="1" transform="matrix(1,0,0,1,57,48.5)"><path stroke-linecap="round" stroke-linejoin="miter" fill-opacity="0" stroke-miterlimit="4" stroke="#000000" stroke-opacity="1" stroke-width="5px" d=" M-4,4.5 C-3.4000000953674316,-0.21199999749660492 -0.33399999141693115,-4.138000011444092 4,-4.5"></path></g></g></g></svg>