<svg xmlns:xlink="http://www.w3.org/1999/xlink" xmlns="http://www.w3.org/2000/svg" width="75" height="23" viewBox="0 0 75 23" fill="none">
<g clip-path="url(#clip0_2678_6130)" filter="url(#filter0_d_2678_6130)">
<path d="M22.3356 13.3246C21.2468 13.3246 20.2266 12.8641 19.2997 12.1144L19.5254 11.0561L19.5352 11.0169C19.7362 9.89008 20.3738 7.99871 22.3356 7.99871C23.8069 7.99871 25.0036 9.19427 25.0036 10.6641C24.9986 12.129 23.802 13.3246 22.3356 13.3246ZM22.3356 5.2991C19.8294 5.2991 17.8873 6.92577 17.0978 9.60093C15.8913 7.79296 14.979 5.6225 14.4445 3.79492H11.7471V10.8062C11.7471 12.1879 10.6191 13.3147 9.236 13.3147C7.85295 13.3147 6.72505 12.1879 6.72505 10.8062V3.79492H4.02737V10.8062C4.01756 13.6774 6.35698 16.034 9.2309 16.034C12.105 16.034 14.4444 13.6774 14.4444 10.8062V9.63035C14.9691 10.7229 15.6115 11.8252 16.3914 12.8052L14.7385 20.566H17.4998L18.6964 14.9365C19.7459 15.6077 20.9524 16.0292 22.3355 16.0292C25.2928 16.0292 27.7009 13.6088 27.7009 10.6543C27.7009 7.70473 25.2929 5.2991 22.3356 5.2991Z" fill="#6FDA44"/>
<path d="M35.9353 5.60269L37.6763 12.6139L39.594 5.60269H41.8794L38.932 15.735H36.6464L34.8368 8.67956L33.0319 15.73H30.7466L27.7988 5.59786H30.0843L32.0019 12.6091L33.7429 5.59786H35.9352V5.60283L35.9353 5.60269ZM47.3478 5.2989C44.3807 5.2989 41.9775 7.70453 41.9775 10.6639C41.9775 13.6282 44.3855 16.029 47.3478 16.029C50.315 16.029 52.723 13.6282 52.723 10.6639C52.723 7.69969 50.315 5.2989 47.3478 5.2989ZM47.3478 13.8241C45.6019 13.8241 44.1894 12.413 44.1894 10.6688C44.1894 8.92453 45.6067 7.51355 47.3478 7.51355C49.0938 7.51355 50.5062 8.92453 50.5062 10.6688C50.5062 12.4082 49.0938 13.8241 47.3478 13.8241ZM59.2507 7.87119C57.7157 7.87119 56.4749 9.11564 56.4749 10.6443V15.73H54.1746V5.60269H56.4749V7.16073C56.4749 7.16073 57.4557 5.59773 59.4714 5.59773H60.1776V7.87119H59.2507ZM66.9702 10.272C68.6032 9.3508 69.7118 7.60165 69.7118 5.59773H67.4115C67.4115 7.28805 66.0384 8.65995 64.3464 8.65995H64.0373V0.712891H61.7373V15.7299H64.0373V10.9579H64.3121C64.5377 10.9579 64.832 11.1049 64.9644 11.2861L68.2306 15.73H70.9869L66.9702 10.272Z" fill="white"/>
</g>
<defs>
<filter id="filter0_d_2678_6130" x="0" y="0.693359" width="75" height="28" filterUnits="userSpaceOnUse" color-interpolation-filters="sRGB">
<feFlood flood-opacity="0" result="BackgroundImageFix"/>
<feColorMatrix in="SourceAlpha" type="matrix" values="0 0 0 0 0 0 0 0 0 0 0 0 0 0 0 0 0 0 127 0" result="hardAlpha"/>
<feOffset dy="4"/>
<feGaussianBlur stdDeviation="2"/>
<feComposite in2="hardAlpha" operator="out"/>
<feColorMatrix type="matrix" values="0 0 0 0 0 0 0 0 0 0 0 0 0 0 0 0 0 0 0.25 0"/>
<feBlend mode="normal" in2="BackgroundImageFix" result="effect1_dropShadow_2678_6130"/>
<feBlend mode="normal" in="SourceGraphic" in2="effect1_dropShadow_2678_6130" result="shape"/>
</filter>
<clipPath id="clip0_2678_6130">
<rect width="67" height="20" fill="white" transform="translate(4 0.693359)"/>
</clipPath>
</defs>
</svg>