<svg xmlns:xlink="http://www.w3.org/1999/xlink" xmlns="http://www.w3.org/2000/svg" width="223" height="40" viewBox="0 0 223 40" fill="none">
<g filter="url(#filter0_bi_39_231)">
<rect width="223" height="40" rx="10" fill="#F8F8F8" fill-opacity="0.01"/>
<rect x="0.75" y="0.75" width="221.5" height="38.5" rx="9.25" stroke="url(#paint0_linear_39_231)" stroke-opacity="0.25" stroke-width="1.5"/>
<g filter="url(#filter1_bi_39_231)">
<rect x="4" y="4" width="125" height="32" rx="8" fill="white" fill-opacity="0.05"/>
<rect x="4.75" y="4.75" width="123.5" height="30.5" rx="7.25" stroke="url(#paint1_linear_39_231)" stroke-opacity="0.25" stroke-width="1.5"/>
<path opacity="0.5" d="M17.188 24C17.1 24 17.028 23.972 16.972 23.916C16.916 23.86 16.888 23.788 16.888 23.7V15.9C16.888 15.812 16.916 15.74 16.972 15.684C17.028 15.628 17.1 15.6 17.188 15.6H18.544C18.632 15.6 18.704 15.628 18.76 15.684C18.816 15.74 18.844 15.812 18.844 15.9V23.7C18.844 23.788 18.816 23.86 18.76 23.916C18.704 23.972 18.632 24 18.544 24H17.188ZM22.7986 24.12C22.3986 24.12 22.0426 24.056 21.7306 23.928C21.4186 23.792 21.1546 23.6 20.9386 23.352C20.7226 23.096 20.5586 22.796 20.4466 22.452C20.3346 22.1 20.2666 21.712 20.2426 21.288C20.2346 21.136 20.2306 21 20.2306 20.88C20.2306 20.752 20.2346 20.616 20.2426 20.472C20.2586 20.056 20.3226 19.676 20.4346 19.332C20.5546 18.988 20.7186 18.692 20.9266 18.444C21.1426 18.188 21.4066 17.992 21.7186 17.856C22.0386 17.712 22.3986 17.64 22.7986 17.64C23.2146 17.64 23.5706 17.712 23.8666 17.856C24.1626 17.992 24.4066 18.172 24.5986 18.396V15.78C24.5986 15.692 24.6266 15.62 24.6826 15.564C24.7386 15.508 24.8106 15.48 24.8986 15.48H26.1346C26.2146 15.48 26.2826 15.508 26.3386 15.564C26.3946 15.62 26.4226 15.692 26.4226 15.78V23.7C26.4226 23.788 26.3946 23.86 26.3386 23.916C26.2826 23.972 26.2146 24 26.1346 24H24.9826C24.9026 24 24.8346 23.972 24.7786 23.916C24.7226 23.86 24.6946 23.788 24.6946 23.7V23.292C24.4946 23.532 24.2426 23.732 23.9386 23.892C23.6346 24.044 23.2546 24.12 22.7986 24.12ZM23.3506 22.68C23.6466 22.68 23.8826 22.612 24.0586 22.476C24.2426 22.34 24.3746 22.168 24.4546 21.96C24.5426 21.752 24.5906 21.528 24.5986 21.288C24.6146 21.136 24.6226 20.984 24.6226 20.832C24.6226 20.68 24.6146 20.532 24.5986 20.388C24.5906 20.164 24.5426 19.956 24.4546 19.764C24.3666 19.564 24.2306 19.4 24.0466 19.272C23.8706 19.144 23.6386 19.08 23.3506 19.08C23.0466 19.08 22.8066 19.148 22.6306 19.284C22.4546 19.412 22.3266 19.584 22.2466 19.8C22.1746 20.016 22.1306 20.252 22.1146 20.508C22.0906 20.756 22.0906 21.004 22.1146 21.252C22.1306 21.508 22.1746 21.744 22.2466 21.96C22.3266 22.176 22.4546 22.352 22.6306 22.488C22.8066 22.616 23.0466 22.68 23.3506 22.68ZM30.7314 24.12C29.8114 24.12 29.0794 23.864 28.5354 23.352C27.9994 22.84 27.7154 22.096 27.6834 21.12C27.6834 21.056 27.6834 20.972 27.6834 20.868C27.6834 20.756 27.6834 20.668 27.6834 20.604C27.7154 19.988 27.8554 19.46 28.1034 19.02C28.3514 18.572 28.6994 18.232 29.1474 18C29.5954 17.76 30.1194 17.64 30.7194 17.64C31.3914 17.64 31.9514 17.78 32.3994 18.06C32.8554 18.332 33.1954 18.708 33.4194 19.188C33.6514 19.66 33.7674 20.204 33.7674 20.82V21.096C33.7674 21.176 33.7354 21.244 33.6714 21.3C33.6154 21.356 33.5474 21.384 33.4674 21.384H29.5434C29.5434 21.392 29.5434 21.408 29.5434 21.432C29.5434 21.448 29.5434 21.464 29.5434 21.48C29.5514 21.736 29.5994 21.972 29.6874 22.188C29.7834 22.396 29.9154 22.564 30.0834 22.692C30.2594 22.82 30.4674 22.884 30.7074 22.884C30.9074 22.884 31.0714 22.856 31.1994 22.8C31.3274 22.744 31.4314 22.676 31.5114 22.596C31.5994 22.516 31.6634 22.448 31.7034 22.392C31.7754 22.312 31.8314 22.264 31.8714 22.248C31.9194 22.224 31.9914 22.212 32.0874 22.212H33.3354C33.4154 22.212 33.4794 22.236 33.5274 22.284C33.5834 22.324 33.6074 22.384 33.5994 22.464C33.5914 22.592 33.5234 22.752 33.3954 22.944C33.2754 23.128 33.0954 23.312 32.8554 23.496C32.6154 23.672 32.3154 23.82 31.9554 23.94C31.6034 24.06 31.1954 24.12 30.7314 24.12ZM29.5434 20.292H31.8954V20.268C31.8954 19.98 31.8474 19.732 31.7514 19.524C31.6634 19.308 31.5314 19.14 31.3554 19.02C31.1794 18.9 30.9674 18.84 30.7194 18.84C30.4714 18.84 30.2594 18.9 30.0834 19.02C29.9074 19.14 29.7714 19.308 29.6754 19.524C29.5874 19.732 29.5434 19.98 29.5434 20.268V20.292ZM36.8029 24.12C36.3789 24.12 35.9989 24.04 35.6629 23.88C35.3269 23.712 35.0589 23.488 34.8589 23.208C34.6589 22.928 34.5589 22.616 34.5589 22.272C34.5589 21.704 34.7869 21.256 35.2429 20.928C35.7069 20.6 36.3149 20.376 37.0669 20.256L38.6389 20.028V19.812C38.6389 19.5 38.5669 19.26 38.4229 19.092C38.2789 18.924 38.0269 18.84 37.6669 18.84C37.4029 18.84 37.1909 18.892 37.0309 18.996C36.8709 19.1 36.7469 19.236 36.6589 19.404C36.5949 19.508 36.5029 19.56 36.3829 19.56H35.2429C35.1549 19.56 35.0869 19.536 35.0389 19.488C34.9909 19.432 34.9709 19.368 34.9789 19.296C34.9789 19.16 35.0309 19 35.1349 18.816C35.2389 18.632 35.3989 18.452 35.6149 18.276C35.8309 18.092 36.1069 17.94 36.4429 17.82C36.7789 17.7 37.1909 17.64 37.6789 17.64C38.1829 17.64 38.6149 17.7 38.9749 17.82C39.3349 17.94 39.6229 18.108 39.8389 18.324C40.0549 18.54 40.2149 18.792 40.3189 19.08C40.4229 19.36 40.4749 19.664 40.4749 19.992V23.7C40.4749 23.788 40.4469 23.86 40.3909 23.916C40.3349 23.972 40.2629 24 40.1749 24H38.9989C38.9189 24 38.8509 23.972 38.7949 23.916C38.7389 23.86 38.7109 23.788 38.7109 23.7V23.256C38.6069 23.408 38.4669 23.552 38.2909 23.688C38.1149 23.816 37.9029 23.92 37.6549 24C37.4149 24.08 37.1309 24.12 36.8029 24.12ZM37.2829 22.872C37.5469 22.872 37.7829 22.816 37.9909 22.704C38.1989 22.592 38.3629 22.42 38.4829 22.188C38.6029 21.956 38.6629 21.664 38.6629 21.312V21.108L37.5469 21.288C37.1149 21.36 36.7989 21.468 36.5989 21.612C36.3989 21.756 36.2989 21.932 36.2989 22.14C36.2989 22.292 36.3429 22.424 36.4309 22.536C36.5269 22.648 36.6509 22.732 36.8029 22.788C36.9549 22.844 37.1149 22.872 37.2829 22.872ZM44.3879 24.12C43.8919 24.12 43.4639 24.064 43.1039 23.952C42.7519 23.832 42.4639 23.688 42.2399 23.52C42.0239 23.352 41.8599 23.184 41.7479 23.016C41.6439 22.84 41.5879 22.692 41.5799 22.572C41.5719 22.484 41.5999 22.412 41.6639 22.356C41.7279 22.3 41.7919 22.272 41.8559 22.272H43.0199C43.0439 22.272 43.0679 22.276 43.0919 22.284C43.1159 22.292 43.1399 22.312 43.1639 22.344C43.2679 22.416 43.3759 22.5 43.4879 22.596C43.5999 22.684 43.7279 22.76 43.8719 22.824C44.0239 22.888 44.2119 22.92 44.4359 22.92C44.6999 22.92 44.9239 22.868 45.1079 22.764C45.2919 22.652 45.3839 22.496 45.3839 22.296C45.3839 22.152 45.3399 22.032 45.2519 21.936C45.1719 21.84 45.0159 21.752 44.7839 21.672C44.5519 21.592 44.2079 21.504 43.7519 21.408C43.3199 21.312 42.9519 21.184 42.6479 21.024C42.3439 20.864 42.1159 20.664 41.9639 20.424C41.8119 20.176 41.7359 19.88 41.7359 19.536C41.7359 19.224 41.8319 18.924 42.0239 18.636C42.2239 18.348 42.5159 18.112 42.8999 17.928C43.2839 17.736 43.7639 17.64 44.3399 17.64C44.7799 17.64 45.1639 17.696 45.4919 17.808C45.8279 17.912 46.1079 18.048 46.3319 18.216C46.5559 18.376 46.7239 18.544 46.8359 18.72C46.9559 18.888 47.0199 19.036 47.0279 19.164C47.0359 19.244 47.0119 19.312 46.9559 19.368C46.8999 19.424 46.8359 19.452 46.7639 19.452H45.6959C45.6559 19.452 45.6199 19.448 45.5879 19.44C45.5559 19.424 45.5279 19.404 45.5039 19.38C45.4079 19.316 45.3079 19.244 45.2039 19.164C45.1079 19.076 44.9919 19 44.8559 18.936C44.7199 18.872 44.5439 18.84 44.3279 18.84C44.0639 18.84 43.8599 18.9 43.7159 19.02C43.5799 19.132 43.5119 19.276 43.5119 19.452C43.5119 19.564 43.5479 19.668 43.6199 19.764C43.6919 19.86 43.8399 19.948 44.0639 20.028C44.2879 20.108 44.6279 20.192 45.0839 20.28C45.6279 20.376 46.0599 20.52 46.3799 20.712C46.6999 20.904 46.9279 21.128 47.0639 21.384C47.2079 21.632 47.2799 21.9 47.2799 22.188C47.2799 22.564 47.1679 22.9 46.9439 23.196C46.7199 23.484 46.3919 23.712 45.9599 23.88C45.5359 24.04 45.0119 24.12 44.3879 24.12ZM53.8762 24.12C53.2762 24.12 52.7522 24.024 52.3042 23.832C51.8562 23.632 51.5082 23.348 51.2602 22.98C51.0122 22.612 50.8882 22.18 50.8882 21.684C50.8882 21.332 50.9562 21.02 51.0922 20.748C51.2362 20.476 51.4322 20.232 51.6802 20.016C51.9282 19.792 52.2122 19.588 52.5322 19.404C52.2042 19.052 51.9682 18.732 51.8242 18.444C51.6882 18.156 51.6202 17.86 51.6202 17.556C51.6202 17.188 51.7162 16.848 51.9082 16.536C52.1002 16.224 52.3842 15.972 52.7602 15.78C53.1362 15.58 53.5962 15.48 54.1402 15.48C54.6522 15.48 55.0882 15.576 55.4482 15.768C55.8082 15.952 56.0842 16.2 56.2762 16.512C56.4682 16.824 56.5642 17.164 56.5642 17.532C56.5642 17.86 56.4882 18.156 56.3362 18.42C56.1922 18.676 55.9922 18.908 55.7362 19.116C55.4802 19.324 55.1882 19.524 54.8602 19.716L56.4322 21.288C56.5122 21.152 56.6122 20.964 56.7322 20.724C56.8522 20.484 56.9602 20.176 57.0562 19.8C57.0802 19.672 57.1642 19.608 57.3082 19.608H58.3522C58.4242 19.608 58.4802 19.632 58.5202 19.68C58.5682 19.72 58.5922 19.776 58.5922 19.848C58.5842 20 58.5482 20.18 58.4842 20.388C58.4202 20.588 58.3322 20.8 58.2202 21.024C58.1082 21.248 57.9842 21.468 57.8482 21.684C57.7122 21.9 57.5762 22.1 57.4402 22.284L58.7482 23.604C58.8042 23.668 58.8322 23.728 58.8322 23.784C58.8322 23.848 58.8122 23.9 58.7722 23.94C58.7322 23.98 58.6762 24 58.6042 24H57.2242C57.1442 24 57.0802 23.988 57.0322 23.964C56.9842 23.932 56.9402 23.904 56.9002 23.88L56.3002 23.304C55.9802 23.568 55.6202 23.772 55.2202 23.916C54.8282 24.052 54.3802 24.12 53.8762 24.12ZM53.8762 22.74C54.1402 22.74 54.3882 22.7 54.6202 22.62C54.8602 22.532 55.0802 22.392 55.2802 22.2L53.5042 20.46C53.2562 20.596 53.0442 20.76 52.8682 20.952C52.6922 21.136 52.6042 21.36 52.6042 21.624C52.6042 21.856 52.6642 22.056 52.7842 22.224C52.9042 22.392 53.0602 22.52 53.2522 22.608C53.4522 22.696 53.6602 22.74 53.8762 22.74ZM53.9242 18.72C54.1242 18.608 54.3082 18.5 54.4762 18.396C54.6442 18.284 54.7762 18.164 54.8722 18.036C54.9682 17.9 55.0162 17.748 55.0162 17.58C55.0162 17.332 54.9322 17.136 54.7642 16.992C54.5962 16.848 54.3882 16.776 54.1402 16.776C53.9082 16.776 53.7042 16.848 53.5282 16.992C53.3522 17.136 53.2642 17.332 53.2642 17.58C53.2642 17.692 53.2842 17.804 53.3242 17.916C53.3642 18.02 53.4322 18.136 53.5282 18.264C53.6242 18.392 53.7562 18.544 53.9242 18.72ZM61.8296 24C61.7576 24 61.6976 23.976 61.6496 23.928C61.6016 23.872 61.5776 23.812 61.5776 23.748C61.5776 23.708 61.5816 23.672 61.5896 23.64L64.4456 15.924C64.4696 15.836 64.5176 15.76 64.5896 15.696C64.6616 15.632 64.7616 15.6 64.8896 15.6H66.4256C66.5536 15.6 66.6536 15.632 66.7256 15.696C66.7976 15.76 66.8456 15.836 66.8696 15.924L69.7256 23.64C69.7336 23.672 69.7376 23.708 69.7376 23.748C69.7376 23.812 69.7136 23.872 69.6656 23.928C69.6176 23.976 69.5576 24 69.4856 24H68.2376C68.1176 24 68.0296 23.972 67.9736 23.916C67.9176 23.86 67.8816 23.808 67.8656 23.76L67.3496 22.416H63.9656L63.4496 23.76C63.4336 23.808 63.3976 23.86 63.3416 23.916C63.2856 23.972 63.1976 24 63.0776 24H61.8296ZM64.4096 20.868H66.8936L65.6576 17.412L64.4096 20.868ZM70.9268 24C70.8468 24 70.7788 23.972 70.7228 23.916C70.6668 23.86 70.6388 23.788 70.6388 23.7V18.06C70.6388 17.972 70.6668 17.9 70.7228 17.844C70.7788 17.788 70.8468 17.76 70.9268 17.76H72.1028C72.1908 17.76 72.2628 17.788 72.3188 17.844C72.3748 17.9 72.4028 17.972 72.4028 18.06V18.528C72.6108 18.272 72.8788 18.06 73.2068 17.892C73.5348 17.724 73.9348 17.64 74.4068 17.64C74.8788 17.64 75.2908 17.748 75.6428 17.964C76.0028 18.172 76.2828 18.48 76.4828 18.888C76.6908 19.288 76.7948 19.776 76.7948 20.352V23.7C76.7948 23.788 76.7628 23.86 76.6988 23.916C76.6428 23.972 76.5748 24 76.4948 24H75.2228C75.1348 24 75.0628 23.972 75.0068 23.916C74.9508 23.86 74.9228 23.788 74.9228 23.7V20.424C74.9228 20 74.8188 19.672 74.6108 19.44C74.4108 19.2 74.1148 19.08 73.7228 19.08C73.3468 19.08 73.0468 19.2 72.8228 19.44C72.5988 19.672 72.4868 20 72.4868 20.424V23.7C72.4868 23.788 72.4588 23.86 72.4028 23.916C72.3468 23.972 72.2788 24 72.1988 24H70.9268ZM80.0686 24.12C79.6446 24.12 79.2646 24.04 78.9286 23.88C78.5926 23.712 78.3246 23.488 78.1246 23.208C77.9246 22.928 77.8246 22.616 77.8246 22.272C77.8246 21.704 78.0526 21.256 78.5086 20.928C78.9726 20.6 79.5806 20.376 80.3326 20.256L81.9046 20.028V19.812C81.9046 19.5 81.8326 19.26 81.6886 19.092C81.5446 18.924 81.2926 18.84 80.9326 18.84C80.6686 18.84 80.4566 18.892 80.2966 18.996C80.1366 19.1 80.0126 19.236 79.9246 19.404C79.8606 19.508 79.7686 19.56 79.6486 19.56H78.5086C78.4206 19.56 78.3526 19.536 78.3046 19.488C78.2566 19.432 78.2366 19.368 78.2446 19.296C78.2446 19.16 78.2966 19 78.4006 18.816C78.5046 18.632 78.6646 18.452 78.8806 18.276C79.0966 18.092 79.3726 17.94 79.7086 17.82C80.0446 17.7 80.4566 17.64 80.9446 17.64C81.4486 17.64 81.8806 17.7 82.2406 17.82C82.6006 17.94 82.8886 18.108 83.1046 18.324C83.3206 18.54 83.4806 18.792 83.5846 19.08C83.6886 19.36 83.7406 19.664 83.7406 19.992V23.7C83.7406 23.788 83.7126 23.86 83.6566 23.916C83.6006 23.972 83.5286 24 83.4406 24H82.2646C82.1846 24 82.1166 23.972 82.0606 23.916C82.0046 23.86 81.9766 23.788 81.9766 23.7V23.256C81.8726 23.408 81.7326 23.552 81.5566 23.688C81.3806 23.816 81.1686 23.92 80.9206 24C80.6806 24.08 80.3966 24.12 80.0686 24.12ZM80.5486 22.872C80.8126 22.872 81.0486 22.816 81.2566 22.704C81.4646 22.592 81.6286 22.42 81.7486 22.188C81.8686 21.956 81.9286 21.664 81.9286 21.312V21.108L80.8126 21.288C80.3806 21.36 80.0646 21.468 79.8646 21.612C79.6646 21.756 79.5646 21.932 79.5646 22.14C79.5646 22.292 79.6086 22.424 79.6966 22.536C79.7926 22.648 79.9166 22.732 80.0686 22.788C80.2206 22.844 80.3806 22.872 80.5486 22.872ZM85.4935 24C85.4055 24 85.3335 23.972 85.2775 23.916C85.2215 23.86 85.1935 23.788 85.1935 23.7V15.78C85.1935 15.692 85.2215 15.62 85.2775 15.564C85.3335 15.508 85.4055 15.48 85.4935 15.48H86.6935C86.7735 15.48 86.8415 15.508 86.8975 15.564C86.9535 15.62 86.9815 15.692 86.9815 15.78V23.7C86.9815 23.788 86.9535 23.86 86.8975 23.916C86.8415 23.972 86.7735 24 86.6935 24H85.4935ZM89.6382 26.28C89.5742 26.28 89.5142 26.256 89.4582 26.208C89.4102 26.16 89.3862 26.1 89.3862 26.028C89.3862 26.012 89.3902 25.988 89.3982 25.956C89.4062 25.932 89.4182 25.9 89.4342 25.86L90.3702 23.616L88.0662 18.18C88.0422 18.116 88.0302 18.064 88.0302 18.024C88.0382 17.952 88.0662 17.892 88.1142 17.844C88.1622 17.788 88.2222 17.76 88.2942 17.76H89.4582C89.5622 17.76 89.6382 17.788 89.6862 17.844C89.7342 17.892 89.7702 17.944 89.7942 18L91.2822 21.72L92.8062 18C92.8382 17.936 92.8782 17.88 92.9262 17.832C92.9742 17.784 93.0502 17.76 93.1542 17.76H94.2942C94.3662 17.76 94.4262 17.788 94.4742 17.844C94.5302 17.892 94.5582 17.948 94.5582 18.012C94.5582 18.052 94.5422 18.108 94.5102 18.18L91.1142 26.04C91.0902 26.104 91.0502 26.16 90.9942 26.208C90.9462 26.256 90.8702 26.28 90.7662 26.28H89.6382ZM98.5177 24C98.0217 24 97.5977 23.92 97.2457 23.76C96.8937 23.592 96.6257 23.336 96.4417 22.992C96.2657 22.648 96.1777 22.216 96.1777 21.696V19.176H95.2417C95.1537 19.176 95.0817 19.148 95.0257 19.092C94.9697 19.036 94.9417 18.964 94.9417 18.876V18.06C94.9417 17.972 94.9697 17.9 95.0257 17.844C95.0817 17.788 95.1537 17.76 95.2417 17.76H96.1777V15.78C96.1777 15.692 96.2057 15.62 96.2617 15.564C96.3257 15.508 96.3977 15.48 96.4777 15.48H97.6537C97.7417 15.48 97.8137 15.508 97.8697 15.564C97.9257 15.62 97.9537 15.692 97.9537 15.78V17.76H99.4537C99.5337 17.76 99.6017 17.788 99.6577 17.844C99.7137 17.9 99.7417 17.972 99.7417 18.06V18.876C99.7417 18.964 99.7137 19.036 99.6577 19.092C99.6017 19.148 99.5337 19.176 99.4537 19.176H97.9537V21.552C97.9537 21.856 98.0057 22.096 98.1097 22.272C98.2217 22.44 98.4137 22.524 98.6857 22.524H99.5617C99.6417 22.524 99.7097 22.552 99.7657 22.608C99.8217 22.664 99.8497 22.732 99.8497 22.812V23.7C99.8497 23.788 99.8217 23.86 99.7657 23.916C99.7097 23.972 99.6417 24 99.5617 24H98.5177ZM101.185 24C101.105 24 101.037 23.972 100.981 23.916C100.925 23.86 100.897 23.788 100.897 23.7V18.06C100.897 17.972 100.925 17.9 100.981 17.844C101.037 17.788 101.105 17.76 101.185 17.76H102.385C102.473 17.76 102.545 17.788 102.601 17.844C102.657 17.9 102.685 17.972 102.685 18.06V23.7C102.685 23.788 102.657 23.86 102.601 23.916C102.545 23.972 102.473 24 102.385 24H101.185ZM101.149 16.8C101.069 16.8 101.001 16.772 100.945 16.716C100.889 16.66 100.861 16.588 100.861 16.5V15.54C100.861 15.452 100.889 15.38 100.945 15.324C101.001 15.26 101.069 15.228 101.149 15.228H102.409C102.497 15.228 102.569 15.26 102.625 15.324C102.689 15.38 102.721 15.452 102.721 15.54V16.5C102.721 16.588 102.689 16.66 102.625 16.716C102.569 16.772 102.497 16.8 102.409 16.8H101.149ZM106.962 24.12C106.378 24.12 105.862 24.012 105.414 23.796C104.974 23.58 104.626 23.268 104.37 22.86C104.114 22.444 103.974 21.948 103.95 21.372C103.942 21.244 103.938 21.084 103.938 20.892C103.938 20.692 103.942 20.528 103.95 20.4C103.974 19.816 104.11 19.32 104.358 18.912C104.614 18.496 104.966 18.18 105.414 17.964C105.862 17.748 106.378 17.64 106.962 17.64C107.498 17.64 107.954 17.716 108.33 17.868C108.706 18.012 109.014 18.196 109.254 18.42C109.494 18.644 109.67 18.88 109.782 19.128C109.902 19.368 109.966 19.58 109.974 19.764C109.982 19.844 109.954 19.916 109.89 19.98C109.834 20.036 109.766 20.064 109.686 20.064H108.402C108.322 20.064 108.258 20.044 108.21 20.004C108.17 19.956 108.13 19.892 108.09 19.812C107.978 19.532 107.834 19.332 107.658 19.212C107.482 19.092 107.262 19.032 106.998 19.032C106.638 19.032 106.354 19.148 106.146 19.38C105.938 19.612 105.826 19.972 105.81 20.46C105.802 20.772 105.802 21.056 105.81 21.312C105.834 21.808 105.946 22.168 106.146 22.392C106.354 22.616 106.638 22.728 106.998 22.728C107.278 22.728 107.502 22.668 107.67 22.548C107.838 22.428 107.978 22.228 108.09 21.948C108.122 21.868 108.162 21.808 108.21 21.768C108.258 21.72 108.322 21.696 108.402 21.696H109.686C109.766 21.696 109.834 21.728 109.89 21.792C109.954 21.848 109.982 21.916 109.974 21.996C109.966 22.132 109.926 22.292 109.854 22.476C109.79 22.66 109.682 22.848 109.53 23.04C109.386 23.232 109.198 23.412 108.966 23.58C108.734 23.74 108.45 23.872 108.114 23.976C107.786 24.072 107.402 24.12 106.962 24.12ZM113.611 24.12C113.115 24.12 112.687 24.064 112.327 23.952C111.975 23.832 111.687 23.688 111.463 23.52C111.247 23.352 111.083 23.184 110.971 23.016C110.867 22.84 110.811 22.692 110.803 22.572C110.795 22.484 110.823 22.412 110.887 22.356C110.951 22.3 111.015 22.272 111.079 22.272H112.243C112.267 22.272 112.291 22.276 112.315 22.284C112.339 22.292 112.363 22.312 112.387 22.344C112.491 22.416 112.599 22.5 112.711 22.596C112.823 22.684 112.951 22.76 113.095 22.824C113.247 22.888 113.435 22.92 113.659 22.92C113.923 22.92 114.147 22.868 114.331 22.764C114.515 22.652 114.607 22.496 114.607 22.296C114.607 22.152 114.563 22.032 114.475 21.936C114.395 21.84 114.239 21.752 114.007 21.672C113.775 21.592 113.431 21.504 112.975 21.408C112.543 21.312 112.175 21.184 111.871 21.024C111.567 20.864 111.339 20.664 111.187 20.424C111.035 20.176 110.959 19.88 110.959 19.536C110.959 19.224 111.055 18.924 111.247 18.636C111.447 18.348 111.739 18.112 112.123 17.928C112.507 17.736 112.987 17.64 113.563 17.64C114.003 17.64 114.387 17.696 114.715 17.808C115.051 17.912 115.331 18.048 115.555 18.216C115.779 18.376 115.947 18.544 116.059 18.72C116.179 18.888 116.243 19.036 116.251 19.164C116.259 19.244 116.235 19.312 116.179 19.368C116.123 19.424 116.059 19.452 115.987 19.452H114.919C114.879 19.452 114.843 19.448 114.811 19.44C114.779 19.424 114.751 19.404 114.727 19.38C114.631 19.316 114.531 19.244 114.427 19.164C114.331 19.076 114.215 19 114.079 18.936C113.943 18.872 113.767 18.84 113.551 18.84C113.287 18.84 113.083 18.9 112.939 19.02C112.803 19.132 112.735 19.276 112.735 19.452C112.735 19.564 112.771 19.668 112.843 19.764C112.915 19.86 113.063 19.948 113.287 20.028C113.511 20.108 113.851 20.192 114.307 20.28C114.851 20.376 115.283 20.52 115.603 20.712C115.923 20.904 116.151 21.128 116.287 21.384C116.431 21.632 116.503 21.9 116.503 22.188C116.503 22.564 116.391 22.9 116.167 23.196C115.943 23.484 115.615 23.712 115.183 23.88C114.759 24.04 114.235 24.12 113.611 24.12Z" fill="#F8F8F8" fill-opacity="0.7"/>
</g>
</g>
<defs>
<filter id="filter0_bi_39_231" x="-100" y="-100" width="423" height="240" filterUnits="userSpaceOnUse" color-interpolation-filters="sRGB">
<feFlood flood-opacity="0" result="BackgroundImageFix"/>
<feGaussianBlur in="BackgroundImageFix" stdDeviation="50"/>
<feComposite in2="SourceAlpha" operator="in" result="effect1_backgroundBlur_39_231"/>
<feBlend mode="normal" in="SourceGraphic" in2="effect1_backgroundBlur_39_231" result="shape"/>
<feColorMatrix in="SourceAlpha" type="matrix" values="0 0 0 0 0 0 0 0 0 0 0 0 0 0 0 0 0 0 127 0" result="hardAlpha"/>
<feOffset dx="2" dy="4"/>
<feGaussianBlur stdDeviation="8"/>
<feComposite in2="hardAlpha" operator="arithmetic" k2="-1" k3="1"/>
<feColorMatrix type="matrix" values="0 0 0 0 0.972549 0 0 0 0 0.972549 0 0 0 0 0.972549 0 0 0 0.06 0"/>
<feBlend mode="normal" in2="shape" result="effect2_innerShadow_39_231"/>
</filter>
<filter id="filter1_bi_39_231" x="-96" y="-96" width="325" height="232" filterUnits="userSpaceOnUse" color-interpolation-filters="sRGB">
<feFlood flood-opacity="0" result="BackgroundImageFix"/>
<feGaussianBlur in="BackgroundImageFix" stdDeviation="50"/>
<feComposite in2="SourceAlpha" operator="in" result="effect1_backgroundBlur_39_231"/>
<feBlend mode="normal" in="SourceGraphic" in2="effect1_backgroundBlur_39_231" result="shape"/>
<feColorMatrix in="SourceAlpha" type="matrix" values="0 0 0 0 0 0 0 0 0 0 0 0 0 0 0 0 0 0 127 0" result="hardAlpha"/>
<feOffset dx="2" dy="4"/>
<feGaussianBlur stdDeviation="8"/>
<feComposite in2="hardAlpha" operator="arithmetic" k2="-1" k3="1"/>
<feColorMatrix type="matrix" values="0 0 0 0 0.972549 0 0 0 0 0.972549 0 0 0 0 0.972549 0 0 0 0.06 0"/>
<feBlend mode="normal" in2="shape" result="effect2_innerShadow_39_231"/>
</filter>
<linearGradient id="paint0_linear_39_231" x1="111.5" y1="-4.53911e-07" x2="115.093" y2="50.5629" gradientUnits="userSpaceOnUse">
<stop stop-color="white" stop-opacity="0.4"/>
<stop offset="0.4" stop-color="white" stop-opacity="0.01"/>
<stop offset="0.6" stop-color="white" stop-opacity="0.01"/>
<stop offset="1" stop-color="white" stop-opacity="0.1"/>
</linearGradient>
<linearGradient id="paint1_linear_39_231" x1="66.5" y1="4" x2="70.581" y2="44.2407" gradientUnits="userSpaceOnUse">
<stop stop-color="white" stop-opacity="0.4"/>
<stop offset="0.4" stop-color="white" stop-opacity="0.01"/>
<stop offset="0.6" stop-color="white" stop-opacity="0.01"/>
<stop offset="1" stop-color="white" stop-opacity="0.1"/>
</linearGradient>
</defs>
</svg>