<svg width="110" height="111" viewBox="0 0 110 111" fill="none" xmlns="http://www.w3.org/2000/svg">
<g filter="url(#filter0_bi_1104_3354)">
<rect x="40.1426" y="0.87207" width="80.2326" height="80.2326" rx="40.1163" transform="rotate(30 40.1426 0.87207)" fill="#F8F8F8" fill-opacity="0.01"/>
<rect x="40.5097" y="2.24207" width="78.2267" height="78.2267" rx="39.1134" transform="rotate(30 40.5097 2.24207)" stroke="#F8F8F8" stroke-opacity="0.1" stroke-width="2.00581"/>
<path fill-rule="evenodd" clip-rule="evenodd" d="M66.6663 46.0001H43.333C42.4125 46.0001 41.6663 46.7463 41.6663 47.6667V67.6667C41.6663 68.5872 42.4125 69.3334 43.333 69.3334H66.6663C67.5868 69.3334 68.333 68.5872 68.333 67.6667V47.6667C68.333 46.7463 67.5868 46.0001 66.6663 46.0001ZM43.333 42.6667C40.5716 42.6667 38.333 44.9053 38.333 47.6667V67.6667C38.333 70.4282 40.5716 72.6667 43.333 72.6667H66.6663C69.4278 72.6667 71.6663 70.4282 71.6663 67.6667V47.6667C71.6663 44.9053 69.4278 42.6667 66.6663 42.6667H43.333Z" fill="url(#paint0_linear_1104_3354)"/>
<path fill-rule="evenodd" clip-rule="evenodd" d="M51.6667 56C50.7462 56 50 56.7462 50 57.6667C50 58.5871 50.7462 59.3333 51.6667 59.3333H63.3333C64.2538 59.3333 65 58.5871 65 57.6667C65 56.7462 64.2538 56 63.3333 56H51.6667ZM46.6667 62.6667C45.7462 62.6667 45 63.4129 45 64.3333C45 65.2538 45.7462 66 46.6667 66H56.6667C57.5871 66 58.3333 65.2538 58.3333 64.3333C58.3333 63.4129 57.5871 62.6667 56.6667 62.6667H46.6667Z" fill="url(#paint1_linear_1104_3354)"/>
<path fill-rule="evenodd" clip-rule="evenodd" d="M46.6667 39.3333C45.7462 39.3333 45 40.0794 45 40.9999V47.6666C45 48.5871 45.7462 49.3333 46.6667 49.3333C47.5871 49.3333 48.3333 48.5871 48.3333 47.6666V40.9999C48.3333 40.0794 47.5871 39.3333 46.6667 39.3333ZM63.3333 39.3333C62.4129 39.3333 61.6667 40.0794 61.6667 40.9999V47.6666C61.6667 48.5871 62.4129 49.3333 63.3333 49.3333C64.2538 49.3333 65 48.5871 65 47.6666V40.9999C65 40.0794 64.2538 39.3333 63.3333 39.3333Z" fill="#E3E2E2"/>
</g>
<defs>
<filter id="filter0_bi_1104_3354" x="-133.695" y="-132.849" width="377.041" height="377.041" filterUnits="userSpaceOnUse" color-interpolation-filters="sRGB">
<feFlood flood-opacity="0" result="BackgroundImageFix"/>
<feGaussianBlur in="BackgroundImageFix" stdDeviation="66.8605"/>
<feComposite in2="SourceAlpha" operator="in" result="effect1_backgroundBlur_1104_3354"/>
<feBlend mode="normal" in="SourceGraphic" in2="effect1_backgroundBlur_1104_3354" result="shape"/>
<feColorMatrix in="SourceAlpha" type="matrix" values="0 0 0 0 0 0 0 0 0 0 0 0 0 0 0 0 0 0 127 0" result="hardAlpha"/>
<feOffset dx="2.67442" dy="5.34884"/>
<feGaussianBlur stdDeviation="10.6977"/>
<feComposite in2="hardAlpha" operator="arithmetic" k2="-1" k3="1"/>
<feColorMatrix type="matrix" values="0 0 0 0 0.972549 0 0 0 0 0.972549 0 0 0 0 0.972549 0 0 0 0.06 0"/>
<feBlend mode="normal" in2="shape" result="effect2_innerShadow_1104_3354"/>
</filter>
<linearGradient id="paint0_linear_1104_3354" x1="54.9997" y1="42.6667" x2="54.9997" y2="72.6667" gradientUnits="userSpaceOnUse">
<stop stop-color="#F8F8F8" stop-opacity="0.9"/>
<stop offset="1" stop-color="#F8F8F8" stop-opacity="0.3"/>
</linearGradient>
<linearGradient id="paint1_linear_1104_3354" x1="55" y1="56" x2="55" y2="66" gradientUnits="userSpaceOnUse">
<stop stop-color="#F8F8F8" stop-opacity="0.9"/>
<stop offset="1" stop-color="#F8F8F8" stop-opacity="0.3"/>
</linearGradient>
</defs>
</svg>
