<svg width="111" height="111" viewBox="0 0 111 111" fill="none" xmlns="http://www.w3.org/2000/svg">
<g filter="url(#filter0_bi_78_419)">
<rect x="0.677734" y="40.988" width="80.2326" height="80.2326" rx="40.1163" transform="rotate(-30 0.677734 40.988)" fill="#F8F8F8" fill-opacity="0.01"/>
<rect x="2.04773" y="41.3551" width="78.2267" height="78.2267" rx="39.1134" transform="rotate(-30 2.04773 41.3551)" stroke="#F8F8F8" stroke-opacity="0.1" stroke-width="2.00581"/>
<path d="M66.6667 41.0002C67.5507 41.0002 68.3986 41.3514 69.0237 41.9766C69.6488 42.6017 70 43.4495 70 44.3336V67.6669C70 68.551 69.6488 69.3988 69.0237 70.0239C68.3986 70.6491 67.5507 71.0002 66.6667 71.0002H43.3333C42.4493 71.0002 41.6014 70.6491 40.9763 70.0239C40.3512 69.3988 40 68.551 40 67.6669V44.3336C40 43.4495 40.3512 42.6017 40.9763 41.9766C41.6014 41.3514 42.4493 41.0002 43.3333 41.0002H66.6667ZM65.8333 66.8336V58.0002C65.8333 56.5592 65.2609 55.1772 64.2419 54.1583C63.223 53.1393 61.841 52.5669 60.4 52.5669C58.9833 52.5669 57.3333 53.4336 56.5333 54.7336V52.8836H51.8833V66.8336H56.5333V58.6169C56.5333 57.3336 57.5667 56.2836 58.85 56.2836C59.4688 56.2836 60.0623 56.5294 60.4999 56.967C60.9375 57.4046 61.1833 57.9981 61.1833 58.6169V66.8336H65.8333ZM46.4667 50.2669C47.2093 50.2669 47.9215 49.9719 48.4466 49.4468C48.9717 48.9217 49.2667 48.2095 49.2667 47.4669C49.2667 45.9169 48.0167 44.6502 46.4667 44.6502C45.7196 44.6502 45.0032 44.947 44.475 45.4752C43.9468 46.0035 43.65 46.7199 43.65 47.4669C43.65 49.0169 44.9167 50.2669 46.4667 50.2669ZM48.7833 66.8336V52.8836H44.1667V66.8336H48.7833Z" fill="url(#paint0_linear_78_419)"/>
</g>
<defs>
<filter id="filter0_bi_78_419" x="-133.043" y="-132.849" width="377.042" height="377.041" filterUnits="userSpaceOnUse" color-interpolation-filters="sRGB">
<feFlood flood-opacity="0" result="BackgroundImageFix"/>
<feGaussianBlur in="BackgroundImageFix" stdDeviation="66.8605"/>
<feComposite in2="SourceAlpha" operator="in" result="effect1_backgroundBlur_78_419"/>
<feBlend mode="normal" in="SourceGraphic" in2="effect1_backgroundBlur_78_419" result="shape"/>
<feColorMatrix in="SourceAlpha" type="matrix" values="0 0 0 0 0 0 0 0 0 0 0 0 0 0 0 0 0 0 127 0" result="hardAlpha"/>
<feOffset dx="2.67442" dy="5.34884"/>
<feGaussianBlur stdDeviation="10.6977"/>
<feComposite in2="hardAlpha" operator="arithmetic" k2="-1" k3="1"/>
<feColorMatrix type="matrix" values="0 0 0 0 0.972549 0 0 0 0 0.972549 0 0 0 0 0.972549 0 0 0 0.06 0"/>
<feBlend mode="normal" in2="shape" result="effect2_innerShadow_78_419"/>
</filter>
<linearGradient id="paint0_linear_78_419" x1="55" y1="41.0002" x2="55" y2="71.0002" gradientUnits="userSpaceOnUse">
<stop stop-color="#F8F8F8" stop-opacity="0.9"/>
<stop offset="1" stop-color="#F8F8F8" stop-opacity="0.3"/>
</linearGradient>
</defs>
</svg>
