<svg width="213" height="40" viewBox="0 0 213 40" fill="none" xmlns="http://www.w3.org/2000/svg">
<g filter="url(#filter0_bi_39_237)">
<rect width="213" height="40" rx="10" fill="#F8F8F8" fill-opacity="0.01"/>
<rect x="0.75" y="0.75" width="211.5" height="38.5" rx="9.25" stroke="url(#paint0_linear_39_237)" stroke-opacity="0.25" stroke-width="1.5"/>
<g filter="url(#filter1_bi_39_237)">
<rect x="4" y="4" width="67" height="32" rx="8" fill="white" fill-opacity="0.05"/>
<rect x="4.75" y="4.75" width="65.5" height="30.5" rx="7.25" stroke="url(#paint1_linear_39_237)" stroke-opacity="0.25" stroke-width="1.5"/>
<path opacity="0.5" d="M20.26 24.12C19.508 24.12 18.864 23.996 18.328 23.748C17.8 23.492 17.388 23.124 17.092 22.644C16.804 22.156 16.648 21.568 16.624 20.88C16.616 20.536 16.612 20.168 16.612 19.776C16.612 19.384 16.616 19.012 16.624 18.66C16.648 17.988 16.804 17.416 17.092 16.944C17.388 16.472 17.804 16.112 18.34 15.864C18.884 15.608 19.524 15.48 20.26 15.48C20.852 15.48 21.372 15.556 21.82 15.708C22.268 15.86 22.644 16.06 22.948 16.308C23.252 16.548 23.484 16.812 23.644 17.1C23.804 17.388 23.888 17.664 23.896 17.928C23.896 18 23.872 18.064 23.824 18.12C23.776 18.168 23.712 18.192 23.632 18.192H22.144C22.064 18.192 22 18.176 21.952 18.144C21.912 18.112 21.876 18.064 21.844 18C21.788 17.856 21.696 17.712 21.568 17.568C21.448 17.416 21.284 17.288 21.076 17.184C20.868 17.08 20.596 17.028 20.26 17.028C19.756 17.028 19.356 17.16 19.06 17.424C18.772 17.688 18.616 18.12 18.592 18.72C18.568 19.408 18.568 20.108 18.592 20.82C18.616 21.444 18.776 21.892 19.072 22.164C19.376 22.436 19.78 22.572 20.284 22.572C20.612 22.572 20.904 22.516 21.16 22.404C21.424 22.284 21.632 22.1 21.784 21.852C21.936 21.604 22.012 21.288 22.012 20.904V20.604H20.704C20.624 20.604 20.556 20.576 20.5 20.52C20.444 20.456 20.416 20.384 20.416 20.304V19.536C20.416 19.448 20.444 19.376 20.5 19.32C20.556 19.264 20.624 19.236 20.704 19.236H23.644C23.732 19.236 23.804 19.264 23.86 19.32C23.916 19.376 23.944 19.448 23.944 19.536V20.844C23.944 21.532 23.792 22.12 23.488 22.608C23.192 23.096 22.764 23.472 22.204 23.736C21.652 23.992 21.004 24.12 20.26 24.12ZM28.1315 24.12C27.4675 24.12 26.9115 24.012 26.4635 23.796C26.0155 23.572 25.6715 23.256 25.4315 22.848C25.1995 22.44 25.0715 21.964 25.0475 21.42C25.0395 21.26 25.0355 21.08 25.0355 20.88C25.0355 20.672 25.0395 20.492 25.0475 20.34C25.0715 19.788 25.2075 19.312 25.4555 18.912C25.7035 18.504 26.0515 18.192 26.4995 17.976C26.9475 17.752 27.4915 17.64 28.1315 17.64C28.7635 17.64 29.3035 17.752 29.7515 17.976C30.1995 18.192 30.5475 18.504 30.7955 18.912C31.0435 19.312 31.1795 19.788 31.2035 20.34C31.2195 20.492 31.2275 20.672 31.2275 20.88C31.2275 21.08 31.2195 21.26 31.2035 21.42C31.1795 21.964 31.0475 22.44 30.8075 22.848C30.5755 23.256 30.2355 23.572 29.7875 23.796C29.3395 24.012 28.7875 24.12 28.1315 24.12ZM28.1315 22.8C28.5235 22.8 28.8195 22.68 29.0195 22.44C29.2195 22.192 29.3275 21.832 29.3435 21.36C29.3515 21.24 29.3555 21.08 29.3555 20.88C29.3555 20.68 29.3515 20.52 29.3435 20.4C29.3275 19.936 29.2195 19.58 29.0195 19.332C28.8195 19.084 28.5235 18.96 28.1315 18.96C27.7395 18.96 27.4395 19.084 27.2315 19.332C27.0315 19.58 26.9235 19.936 26.9075 20.4C26.8995 20.52 26.8955 20.68 26.8955 20.88C26.8955 21.08 26.8995 21.24 26.9075 21.36C26.9235 21.832 27.0315 22.192 27.2315 22.44C27.4395 22.68 27.7395 22.8 28.1315 22.8ZM35.563 24C35.475 24 35.403 23.972 35.347 23.916C35.291 23.86 35.263 23.788 35.263 23.7V15.9C35.263 15.812 35.291 15.74 35.347 15.684C35.403 15.628 35.475 15.6 35.563 15.6H36.895C36.983 15.6 37.055 15.628 37.111 15.684C37.167 15.74 37.195 15.812 37.195 15.9V22.392H40.915C41.003 22.392 41.075 22.42 41.131 22.476C41.187 22.532 41.215 22.604 41.215 22.692V23.7C41.215 23.788 41.187 23.86 41.131 23.916C41.075 23.972 41.003 24 40.915 24H35.563ZM42.4737 24C42.3937 24 42.3257 23.972 42.2697 23.916C42.2137 23.86 42.1857 23.788 42.1857 23.7V18.06C42.1857 17.972 42.2137 17.9 42.2697 17.844C42.3257 17.788 42.3937 17.76 42.4737 17.76H43.6737C43.7617 17.76 43.8337 17.788 43.8897 17.844C43.9457 17.9 43.9737 17.972 43.9737 18.06V23.7C43.9737 23.788 43.9457 23.86 43.8897 23.916C43.8337 23.972 43.7617 24 43.6737 24H42.4737ZM42.4377 16.8C42.3577 16.8 42.2897 16.772 42.2337 16.716C42.1777 16.66 42.1497 16.588 42.1497 16.5V15.54C42.1497 15.452 42.1777 15.38 42.2337 15.324C42.2897 15.26 42.3577 15.228 42.4377 15.228H43.6977C43.7857 15.228 43.8577 15.26 43.9137 15.324C43.9777 15.38 44.0097 15.452 44.0097 15.54V16.5C44.0097 16.588 43.9777 16.66 43.9137 16.716C43.8577 16.772 43.7857 16.8 43.6977 16.8H42.4377ZM47.6867 24C47.5667 24 47.4747 23.972 47.4107 23.916C47.3547 23.852 47.3067 23.78 47.2667 23.7L45.0107 18.132C44.9947 18.1 44.9867 18.064 44.9867 18.024C44.9867 17.952 45.0107 17.892 45.0587 17.844C45.1147 17.788 45.1787 17.76 45.2507 17.76H46.4147C46.5187 17.76 46.5947 17.788 46.6427 17.844C46.6987 17.9 46.7347 17.952 46.7507 18L48.2267 21.96L49.7027 18C49.7267 17.952 49.7627 17.9 49.8107 17.844C49.8667 17.788 49.9427 17.76 50.0387 17.76H51.2027C51.2747 17.76 51.3347 17.788 51.3827 17.844C51.4387 17.892 51.4667 17.952 51.4667 18.024C51.4667 18.064 51.4627 18.1 51.4547 18.132L49.1867 23.7C49.1547 23.78 49.1067 23.852 49.0427 23.916C48.9787 23.972 48.8867 24 48.7667 24H47.6867ZM55.0361 24.12C54.1161 24.12 53.3841 23.864 52.8401 23.352C52.3041 22.84 52.0201 22.096 51.9881 21.12C51.9881 21.056 51.9881 20.972 51.9881 20.868C51.9881 20.756 51.9881 20.668 51.9881 20.604C52.0201 19.988 52.1601 19.46 52.4081 19.02C52.6561 18.572 53.0041 18.232 53.4521 18C53.9001 17.76 54.4241 17.64 55.0241 17.64C55.6961 17.64 56.2561 17.78 56.7041 18.06C57.1601 18.332 57.5001 18.708 57.7241 19.188C57.9561 19.66 58.0721 20.204 58.0721 20.82V21.096C58.0721 21.176 58.0401 21.244 57.9761 21.3C57.9201 21.356 57.8521 21.384 57.7721 21.384H53.8481C53.8481 21.392 53.8481 21.408 53.8481 21.432C53.8481 21.448 53.8481 21.464 53.8481 21.48C53.8561 21.736 53.9041 21.972 53.9921 22.188C54.0881 22.396 54.2201 22.564 54.3881 22.692C54.5641 22.82 54.7721 22.884 55.0121 22.884C55.2121 22.884 55.3761 22.856 55.5041 22.8C55.6321 22.744 55.7361 22.676 55.8161 22.596C55.9041 22.516 55.9681 22.448 56.0081 22.392C56.0801 22.312 56.1361 22.264 56.1761 22.248C56.2241 22.224 56.2961 22.212 56.3921 22.212H57.6401C57.7201 22.212 57.7841 22.236 57.8321 22.284C57.8881 22.324 57.9121 22.384 57.9041 22.464C57.8961 22.592 57.8281 22.752 57.7001 22.944C57.5801 23.128 57.4001 23.312 57.1601 23.496C56.9201 23.672 56.6201 23.82 56.2601 23.94C55.9081 24.06 55.5001 24.12 55.0361 24.12ZM53.8481 20.292H56.2001V20.268C56.2001 19.98 56.1521 19.732 56.0561 19.524C55.9681 19.308 55.8361 19.14 55.6601 19.02C55.4841 18.9 55.2721 18.84 55.0241 18.84C54.7761 18.84 54.5641 18.9 54.3881 19.02C54.2121 19.14 54.0761 19.308 53.9801 19.524C53.8921 19.732 53.8481 19.98 53.8481 20.268V20.292Z" fill="#F8F8F8" fill-opacity="0.7"/>
</g>
</g>
<defs>
<filter id="filter0_bi_39_237" x="-100" y="-100" width="413" height="240" filterUnits="userSpaceOnUse" color-interpolation-filters="sRGB">
<feFlood flood-opacity="0" result="BackgroundImageFix"/>
<feGaussianBlur in="BackgroundImageFix" stdDeviation="50"/>
<feComposite in2="SourceAlpha" operator="in" result="effect1_backgroundBlur_39_237"/>
<feBlend mode="normal" in="SourceGraphic" in2="effect1_backgroundBlur_39_237" result="shape"/>
<feColorMatrix in="SourceAlpha" type="matrix" values="0 0 0 0 0 0 0 0 0 0 0 0 0 0 0 0 0 0 127 0" result="hardAlpha"/>
<feOffset dx="2" dy="4"/>
<feGaussianBlur stdDeviation="8"/>
<feComposite in2="hardAlpha" operator="arithmetic" k2="-1" k3="1"/>
<feColorMatrix type="matrix" values="0 0 0 0 0.972549 0 0 0 0 0.972549 0 0 0 0 0.972549 0 0 0 0.06 0"/>
<feBlend mode="normal" in2="shape" result="effect2_innerShadow_39_237"/>
</filter>
<filter id="filter1_bi_39_237" x="-96" y="-96" width="267" height="232" filterUnits="userSpaceOnUse" color-interpolation-filters="sRGB">
<feFlood flood-opacity="0" result="BackgroundImageFix"/>
<feGaussianBlur in="BackgroundImageFix" stdDeviation="50"/>
<feComposite in2="SourceAlpha" operator="in" result="effect1_backgroundBlur_39_237"/>
<feBlend mode="normal" in="SourceGraphic" in2="effect1_backgroundBlur_39_237" result="shape"/>
<feColorMatrix in="SourceAlpha" type="matrix" values="0 0 0 0 0 0 0 0 0 0 0 0 0 0 0 0 0 0 127 0" result="hardAlpha"/>
<feOffset dx="2" dy="4"/>
<feGaussianBlur stdDeviation="8"/>
<feComposite in2="hardAlpha" operator="arithmetic" k2="-1" k3="1"/>
<feColorMatrix type="matrix" values="0 0 0 0 0.972549 0 0 0 0 0.972549 0 0 0 0 0.972549 0 0 0 0.06 0"/>
<feBlend mode="normal" in2="shape" result="effect2_innerShadow_39_237"/>
</filter>
<linearGradient id="paint0_linear_39_237" x1="106.5" y1="-4.53911e-07" x2="110.26" y2="50.5385" gradientUnits="userSpaceOnUse">
<stop stop-color="white" stop-opacity="0.4"/>
<stop offset="0.4" stop-color="white" stop-opacity="0.01"/>
<stop offset="0.6" stop-color="white" stop-opacity="0.01"/>
<stop offset="1" stop-color="white" stop-opacity="0.1"/>
</linearGradient>
<linearGradient id="paint1_linear_39_237" x1="37.5" y1="4" x2="44.9262" y2="43.2495" gradientUnits="userSpaceOnUse">
<stop stop-color="white" stop-opacity="0.4"/>
<stop offset="0.4" stop-color="white" stop-opacity="0.01"/>
<stop offset="0.6" stop-color="white" stop-opacity="0.01"/>
<stop offset="1" stop-color="white" stop-opacity="0.1"/>
</linearGradient>
</defs>
</svg>
