<svg xmlns:xlink="http://www.w3.org/1999/xlink"  width="24" height="24" viewBox="0 0 24 24" fill="none" xmlns="http://www.w3.org/2000/svg">
<path d="M9.93897 11.2925C10.4414 11.0376 10.8208 10.7534 11.0786 10.4429C11.54 9.88918 11.7707 9.15536 11.7707 8.24425C11.7707 7.35953 11.5414 6.59931 11.0852 5.96504C10.3257 4.93243 9.03597 4.40209 7.216 4.37579H0.000488281V19.3049H6.72672C7.48624 19.3049 8.18857 19.239 8.83675 19.1027C9.48489 18.9679 10.0474 18.7174 10.5249 18.3527C10.9467 18.0363 11.2991 17.6437 11.581 17.1779C12.0248 16.4748 12.2467 15.6824 12.2467 14.7977C12.2467 13.9392 12.052 13.2113 11.6644 12.6107C11.2763 12.0088 10.7014 11.5694 9.93897 11.2925ZM2.97836 6.96695H6.22577C6.94061 6.96695 7.52941 7.04607 7.9901 7.20132C8.524 7.42398 8.79208 7.88397 8.79208 8.57968C8.79208 9.20514 8.58991 9.64314 8.18566 9.89068C7.78136 10.1368 7.25552 10.2598 6.60663 10.2598H2.97836V6.96695ZM8.11535 16.4485C7.75502 16.6243 7.25041 16.7108 6.60297 16.7108H2.97836V12.7309H6.65346C7.29358 12.7382 7.79088 12.8218 8.1446 12.9843C8.77886 13.2759 9.09522 13.8076 9.09522 14.5853C9.09527 15.5038 8.76935 16.1249 8.11535 16.4485Z" fill="black"/>
<path d="M15.5132 5.27515H21.5129V6.71651H15.5132V5.27515Z" fill="black"/>
<path d="M23.902 12.3501C23.7673 11.4829 23.4729 10.7227 23.0217 10.0665C22.5193 9.32237 21.8837 8.77745 21.1131 8.43325C20.3441 8.08904 19.4784 7.91617 18.5175 7.91617C16.8997 7.91617 15.5836 8.42739 14.57 9.44687C13.5563 10.4679 13.0488 11.9341 13.0488 13.8471C13.0488 15.8875 13.6099 17.3612 14.7334 18.2664C15.8569 19.1717 17.1524 19.6242 18.6217 19.6242C20.4014 19.6242 21.7869 19.0881 22.7757 18.0144C23.2927 17.4636 23.6252 16.9202 23.7731 16.3856H20.6722C20.558 16.5393 20.4365 16.6712 20.3031 16.7795C19.8931 17.1165 19.3599 17.2848 18.7006 17.2848C18.0803 17.2848 17.5515 17.1471 17.1099 16.8689C16.3847 16.4236 16.0011 15.6472 15.9548 14.5397H23.9957C24.0105 13.5864 23.9782 12.8569 23.902 12.3501ZM16.026 12.6357C16.1315 11.918 16.3869 11.3482 16.7949 10.9278C17.2028 10.5074 17.777 10.2965 18.5189 10.2965C19.1985 10.2965 19.7699 10.4942 20.2297 10.8912C20.6897 11.2882 20.9475 11.8697 20.9987 12.6357H16.026Z" fill="black"/>
</svg>
