<svg xmlns:xlink="http://www.w3.org/1999/xlink"  width="24" height="24" viewBox="0 0 24 24" fill="none" xmlns="http://www.w3.org/2000/svg">
<path d="M22.5152 6.01828C21.1455 6.01828 19.8818 5.56453 18.8669 4.79906C17.703 3.92156 16.8668 2.63437 16.5715 1.15078C16.4983 0.784218 16.459 0.405936 16.4552 0.01828H12.5425V10.7095L12.5379 16.5656C12.5379 18.1312 11.5183 19.4587 10.105 19.9256C9.69489 20.0611 9.25192 20.1253 8.79067 20.1C8.20192 20.0677 7.6502 19.89 7.17067 19.6031C6.1502 18.9928 5.45833 17.8856 5.43958 16.6191C5.41005 14.6395 7.01036 13.0256 8.98849 13.0256C9.37895 13.0256 9.75395 13.0894 10.105 13.2052V10.283V9.2325C9.73474 9.17766 9.35786 9.14906 8.97677 9.14906C6.81161 9.14906 4.78661 10.0491 3.33911 11.6705C2.24505 12.8958 1.5888 14.4591 1.48755 16.0983C1.35489 18.2517 2.14286 20.2987 3.67099 21.8091C3.89552 22.0308 4.1313 22.2366 4.37786 22.4264C5.68802 23.4347 7.28974 23.9812 8.97677 23.9812C9.35786 23.9812 9.73474 23.9531 10.105 23.8983C11.681 23.6648 13.135 22.9434 14.2825 21.8091C15.6925 20.4155 16.4716 18.5653 16.48 16.5961L16.4599 7.85109C17.1325 8.37 17.868 8.79937 18.6574 9.13266C19.885 9.65062 21.1868 9.91312 22.5265 9.91265V7.07156V6.01734C22.5274 6.01828 22.5161 6.01828 22.5152 6.01828Z" fill="black"/>
</svg>
